<?xml version="1.0" encoding="UTF-8"?>
<svg id="Capa_2" data-name="Capa 2" xmlns="http://www.w3.org/2000/svg" viewBox="0 0 20.46 16.09">
  <defs>
    <style>
      .cls-1 {
        fill: #dac64a;
      }

      .cls-2 {
        fill: #dcc150;
      }

      .cls-3 {
        fill: #40391c;
      }

      .cls-4 {
        fill: #f5ffff;
        font-family: Poppins-SemiBold, Poppins;
        font-size: 1.94px;
        letter-spacing: .26em;
      }

      .cls-5 {
        fill: #fcc329;
      }

      .cls-6 {
        fill: #40391b;
      }

      .cls-7 {
        fill: #413a1c;
      }

      .cls-8 {
        fill: #936525;
      }
    </style>
  </defs>
  <g id="Capa_1-2" data-name="Capa 1">
    <text class="cls-4" transform="translate(15.44 2.59) scale(1.04 1)"><tspan x="0" y="0">®</tspan></text>
    <path class="cls-1" d="M0,11.46s8.69,1.73,20.46,0l-.67,3.33H.85l-.85-3.33Z"/>
    <path class="cls-8" d="M13.6,9.74c.23-.17,.49-.14,.71-.03,.4,.21,.77,.02,1.1-.13,.25-.11,.44-.29,.73-.16,.03,.01,.08,.02,.09,.01,.23-.37,.63-.19,.93-.27,.09-.2,.18-.37,.29-.61,.13,.19,.2,.29,.29,.42,.1-.1,.18-.18,.29-.29,.3,.24,.47,.04,.73-.17,.3-.25,.34-.5,.3-.84-.01-.1,.04-.21,.06-.32,.09,.07,.18,.14,.27,.21-.04,.37-.09,.75-.13,1.17,.1-.03,.18-.08,.27-.09,.08-.01,.21-.02,.24,.02,.04,.05,.03,.18,0,.25-.15,.25-.31,.49-.47,.74h0c-.05,.02-.1,.05-.16,.07-.04,.01-.09,.02-.13,.03l-.13,.23c-.28-.06-.55-.38-.87,.01,.18,.17,.32,.35,.51,.47,.09,.06,.25,.02,.38,.03,.18,.1,.29,.22,.17,.45-.08,.15-.1,.32-.15,.5l-.51-.32c-.08-.22-.02-.58-.35-.59-.39,0-.68-.19-.99-.37-.05-.03-.12,0-.22,0,.33,.35,.56,.74,1.03,.81,.04,0,.07,.06,.1,.09-.04,.16-.04,.3-.22,.41-.12,.07-.17,.27-.24,.41-.07,.13-.15,.25-.22,.38-.03-.05-.07-.1-.1-.14h0s-.09-.06-.14-.1c-.04-.08-.07-.17-.12-.25-.05-.07-.12-.12-.18-.17-.05,.07-.12,.13-.14,.21-.08,.4,.01,.48,.49,.47,.03,.07,.06,.13,.09,.2-.22,0-.41,.04-.54,.27-.05,.09-.19,.12-.28,.18,.07-.15,.14-.29,.23-.5-.46,.04-.57-.23-.63-.59-.33,.4-.03,.8-.27,1.21,.29-.05,.47-.08,.64-.11-.14,.16-.43,.24-.34,.54h0c-.46-.22-.89,.02-.89,.53,0,.26-.06,.39-.38,.3,.04-.18,.08-.33,.13-.52-.07-.03-.15-.08-.21-.07-.28,.05-.53,.08-.67-.25-.02-.04-.22-.04-.31-.01-.07,.02-.12,.13-.18,.19-.47-.1-.48-.1-.71,.3-.19,.35-.34,.73-.52,1.09-.05,.1-.15,.2-.25,.25-.04,.02-.16-.1-.22-.18-.16-.21-.29-.43-.44-.63-.04-.06-.12-.14-.17-.14-.34,.04-.48-.23-.69-.42-.1-.09-.23-.18-.36-.19-.32-.02-.65-.01-.97,.03-.12,.01-.21,.16-.32,.23-.15,.1-.31,.18-.46,.27-.07-.15-.14-.29-.2-.44-.07-.17-.14-.34-.21-.5,.02-.02,.03-.04,.05-.06,.3,0,.41-.18,.4-.46-.06-.43-.12-.47-.59-.43-.18,.28-.32,.53-.49,.76-.15,.21-.04,.31,.12,.41-.07,.16-.14,.31-.2,.47-.12,.28-.31,.31-.55,.2-.09-.35,.57-.53,.14-.93-.08,.03-.16,.07-.24,.11-.26,.13-.48,.09-.67-.13-.05-.06-.1-.12-.17-.16-.13-.09-.27-.17-.41-.26-.08,.14-.16,.28-.24,.42-.05,.09-.07,.23-.15,.28-.09,.05-.23,.02-.34,.03,0-.11-.04-.27,.02-.32,.26-.21,.16-.4,.02-.61-.1-.14-.2-.28-.29-.42-.13-.2-.27-.31-.48-.1-.04,.04-.13,.09-.16,.07-.38-.21-.61,.02-.9,.22-.21,.15-.43,0-.69-.33,.27-.09,.55-.17,.82-.27,.05-.02,.12-.12,.11-.17,0-.06-.09-.14-.14-.15-.2-.02-.41,0-.6-.02-.3-.05-.6-.12-.89-.21-.06-.02-.07-.2-.11-.3,.1,0,.2-.02,.3-.02,.04,0,.07,.07,.11,.08,.12,.04,.31,.13,.37,.07,.17-.15-.02-.26-.11-.38-.02-.09-.03-.18-.06-.26-.12-.3-.1-.36,.2-.49,.03-.01,.07,0,.09-.02,.07-.09,.14-.18,.18-.28,.01-.03-.06-.14-.09-.14-.11,.02-.24,.03-.33,.1-.08,.06-.13,.17-.18,.27-.09,.18-.16,.37-.25,.55-.08,.05-.15,.12-.23,.15-.22,.09-.39-.02-.43-.26-.02-.12-.03-.24-.04-.37,.13-.03,.25-.06,.38-.09-.05-.12-.11-.23-.14-.36-.03-.11-.04-.23-.06-.34,.04-.19,.07-.37,.11-.56-.06-.09-.1-.19-.18-.25-.13-.09-.28-.15-.44-.23,.43-.39,.76-.4,1.05-.02,.12,.16,.19,.08,.3,.05-.03,.11-.06,.23-.09,.35,.13,.02,.23,.03,.31,.04,.07,.26-.43,.27-.21,.61,.2-.2,.4-.44,.64-.19,.28,.29,.63,.56,.49,1.05q.75,.01,.91-.11-.61-.6-.5-.99c.13,.18,.24,.36,.37,.53,.14,.17,.28,.34,.44,.48,.08,.07,.21,.08,.31,.12,.02-.11,.08-.23,.06-.34-.02-.12-.11-.22-.16-.33-.06-.12-.11-.24-.17-.38,.28-.21,.73-.1,.78-.54,.11-.19,.27-.24,.46-.15,.15,.06,.29,.13,.19,.33h0s-.04,0-.04,0c0,.02-.01,.05-.01,.07,.02,.18,.04,.35,.06,.53,0,.04,.01,.08,.02,.12-.17,0-.35,0-.51,.03-.34,.07-.38,.23-.18,.52,.31,.46,1.23,.56,1.55-.02,.22-.39,.34-.4,.77-.2,.2,.09,.38,.13,.57,0,.04-.15,.07-.29,.12-.5,.5,.21,.98,.41,1.46,.61-.23,.19-.45,.37-.7,.58,.21,.39,.64,.47,1.02,.66-.02,.05-.04,.09-.06,.13-.01,.04-.02,.08-.04,.15,.91,.08,1.74,.04,2.33-.77,.2-.28,.48-.39,.81-.38,.11,0,.22,0,.33-.01l.11-.13s.04-.03,.05-.06c.08-.07,.16-.14,.24-.21Zm-10.04,.88c-.28-.21-.52,.01-.78,.03-.05,.58,.1,.73,.58,.62,.09,.1,.19,.2,.28,.3,.33-.33,.31-.63-.09-.94Zm8.3,3.3c.11-.22,.22-.43,.32-.65,.03-.07,.07-.19,.03-.24-.04-.06-.18-.11-.24-.09-.26,.14-.48,0-.71-.07-.41-.13-.57-.06-.79,.35-.16,.29-.15,.36,.19,.66,.09,.08,.19,.15,.29,.23,.11-.14,.2-.25,.28-.36,.26,.08,.41,.38,.63,.16Zm-4.58-2.4c-.12-.16-.21-.27-.29-.38-.25-.36-.55-.37-.72,.04-.13,.32-.34,.5-.65,.57-.11,.55-.05,.73,.37,1.01,.06,.04,.16,.02,.25,.03,0-.08,.01-.16,0-.24,0-.06-.07-.12-.06-.16,.05-.16,.12-.31,.19-.49,.39,.15,.55-.25,.9-.37Zm6.65,.45c.14-.21,.22-.39,.36-.51,.13-.12,.25-.25,.12-.38-.08-.09-.32-.15-.4-.1-.19,.12-.41,.29-.46,.48-.05,.22,.16,.41,.38,.51Zm-.65,1.44c.5-.22,.5-.23,.52-.86q.01-.4-.2-.51c-.1,.44-.21,.89-.32,1.36Zm1.87-.44c0-.3,0-.54,.01-.81-.32-.07-.31,.19-.38,.37-.11,.31,.11,.36,.36,.44Zm.86-1.76c-.21-.17-.34-.36-.67-.28,.07,.19,.12,.36,.2,.57,.18-.11,.3-.18,.48-.29Zm.7,.02c-.13-.28-.22-.48-.32-.71-.27,.34-.2,.53,.32,.71Z"/>
    <path class="cls-5" d="M1.01,9.93c.43-.42,.42-.54-.16-1.24,.28-.25,.24-.72,.64-.9,.39,.58,1.01,.86,1.6,1.16,.66,.34,1.36,.61,2.1,.74,.12,.02,.23,.08,.35,.12,.13,.07,.26,.19,.4,.21,.47,.08,.96,.13,1.43,.2,.65,.1,1.29,.26,1.94,.3,1.17,.06,2.31-.18,3.4-.56,.9-.31,1.77-.69,2.65-1.05,.37-.15,.72-.39,1.11-.49,.61-.16,1.14-.42,1.6-.84,.36,.39,.73,.78,1.09,1.18,.14,.16,.12,.31-.07,.42-.34-.08-.51,.04-.41,.33,.07,.21,.24,.39,.35,.6,.15,.27,.29,.55,.4,.83,.04,.09-.01,.22-.03,.42-.2-.16-.31-.26-.44-.34-.27-.18-.41-.12-.65,.08-.38,.33-.57,.74-.69,1.22-.14,.54-.48,.6-.9,.22-.11-.1-.22-.22-.36-.29-.35-.17-.67-.07-.89,.27-.1,.16-.2,.33-.24,.51-.11,.5-.41,.86-.79,1.18-.62,.54-1.53,.28-1.73-.5-.1-.37-.35-.58-.65-.53-.34,.06-.57,.33-.54,.71,.03,.56,.09,1.12,.14,1.68,.03,.41-.15,.6-.55,.51-.19-.04-.39-.13-.54-.26-.19-.16-.27-.39-.09-.63,.06-.09,.12-.18,.18-.27,.44-.67,.21-1.27-.56-1.52-.51-.16-.95-.1-1.34,.27-.2,.19-.35,.18-.55-.04-.32-.36-.55-.31-.88,.05-.21,.22-.45,.43-.71,.59-.28,.17-.55,.07-.73-.2-.11-.17-.18-.36-.25-.55-.02-.06-.02-.12-.04-.18-.09-.31-.16-.73-.5-.78-.35-.05-.68,.21-.88,.52-.25,.38-.57,.66-.98,.85-.35,.16-.84,.03-1.04-.28-.32-.5-.08-1.07,.54-1.23,.15-.04,.33-.02,.45-.1,.16-.1,.34-.25,.39-.42,.07-.22-.09-.42-.3-.53-.14-.07-.28-.14-.43-.19-.38-.14-.77-.25-1.14-.4-.39-.15-.67-.4-.71-.85Zm16.54-.07c.06-.03,.11-.06,.17-.08,.09,.11,.19,.21,.27,.32,.05,.08,.03,.2,.09,.26,.1,.12,.25,.32,.35,.31,.24-.03,.18-.28,.11-.42-.16-.33-.34-.66-.55-.96-.36-.5-.63-.53-1.08-.13-.21,.18-.42,.32-.7,.32-.3,0-.51,.17-.75,.34-.4,.29-.84,.52-1.28,.75-.3,.16-.65,.23-.94,.42-.46,.3-.91,.37-1.42,.19-.13-.04-.29,.02-.44,.03,.02,.15,.02,.3,.07,.44,.21,.49,.13,.59-.42,.56-.15,0-.32,.02-.44,.1-.18,.13-.22,.34-.07,.54,.15,.2,.49,.26,.72,.09,.17-.12,.3-.27,.45-.41,.21-.19,.45-.26,.74-.22,.26,.03,.52,.02,.79,.02,.25,0,.53-.02,.66,.24,.14,.27-.09,.43-.27,.58-.14,.11-.21,.26-.1,.4,.09,.1,.26,.21,.37,.2,.17-.02,.39-.12,.46-.25,.18-.32,.29-.68,.41-1.03,.06-.18,.05-.37,.11-.55,.08-.23,.25-.34,.52-.26,.46,.14,.59,.09,.82-.33,.1-.18,.16-.37,.26-.55,.11-.19,.29-.34,.5-.2,.1,.07,.13,.29,.13,.44,0,.18-.09,.37-.09,.55,0,.23,.15,.33,.33,.2,.15-.1,.31-.26,.34-.41,.05-.28,.02-.58,0-.87-.02-.21-.08-.41-.13-.61Zm-10.47,.84c-.19-.23-.4-.33-.61-.21-.43,.25-.79,.09-1.13-.17-.39-.3-.81-.44-1.3-.45-.37,0-.7-.14-.96-.43-.07-.08-.16-.15-.24-.22-.16-.14-.32-.1-.47,.02-.17,.14-.2,.29-.1,.5,.13,.28,.36,.3,.63,.29,.68-.03,.95,.13,1.14,.77,.07,.24,.03,.52,.01,.78,0,.14-.08,.27-.09,.41-.01,.25,.19,.39,.35,.21,.29-.33,.59-.23,.93-.16,.37,.07,.59,.26,.7,.61,.07,.22,.14,.45,.24,.66,.04,.08,.19,.18,.27,.17,.33-.04,.49-.35,.37-.67-.06-.15-.12-.3-.21-.51,.19,0,.29-.01,.39,0,.11,.01,.21,.06,.32,.07,.21,.01,.39-.06,.42-.28,.03-.21-.09-.36-.31-.4-.09-.02-.19-.02-.28-.04-.19-.05-.42-.07-.48-.31-.06-.24,.09-.38,.27-.49,.05-.03,.09-.09,.15-.15Z"/>
    <g>
      <path class="cls-2" d="M0,10.32v1.23s11.41-3.02,20.46-.24v-1.25s-9.08-2.84-20.46,.26Z"/>
      <g>
        <path class="cls-1" d="M20.46,10.06s-1.86-.62-4.98-.98c-.3-.03-.62-.07-.94-.09-1.39-.12-2.99-.18-4.74-.11h0c-.34,.01-.68,.03-1.04,.05-2.65,.17-5.6,.44-8.76,1.39,0,0,.48-4.91,2.5-8.61C3.15,.07,13.03-.85,17.32,1.1c1.39,.63,3.14,8.96,3.14,8.96Z"/>
        <path class="cls-6" d="M16.2,3.29c-.87,.8-10.95,5.65-11.79,5.67,1.77-1.2,10.91-5.59,11.79-5.67Z"/>
        <path class="cls-3" d="M17.33,4.98c-.99,.73-4.71,2.6-7.54,3.9h0c-.34,.01-.68,.03-1.04,.05,2.79-1.49,5.63-2.81,8.57-3.95Z"/>
        <path class="cls-3" d="M3.33,6.77c3.03-1.8,6.18-3.33,9.52-4.62-.61,.71-8.43,4.49-9.52,4.62Z"/>
        <path class="cls-7" d="M2.84,4.9c2.19-1.42,4.52-2.55,7.03-3.41-.77,.77-5.43,3.03-7.03,3.41Z"/>
        <path class="cls-7" d="M17.41,7.83c.07-.02,.15-.03,.23-.03-.3,.2-.6,.41-.91,.59-.41,.24-.83,.47-1.24,.7-.3-.03-.62-.07-.94-.09,.93-.43,1.89-.82,2.87-1.16Z"/>
        <path class="cls-7" d="M17.66,7.79s-.01,0-.02,0c0,0,0,0,.01,0h0Z"/>
      </g>
    </g>
  </g>
</svg>