<svg xmlns="http://www.w3.org/2000/svg" viewBox="0 0 79.76 44.72">
  <defs>
    <style>
      .cls-1 {
        fill: #62021d;
      }

      .cls-2 {
        fill: #fff;
      }

      .cls-3 {
        fill: #f7ad19;
      }

      .cls-4 {
        fill: #fef8ed;
      }

      .cls-5 {
        fill: #f7ae1a;
      }

      .cls-6 {
        fill: #fdf4e3;
      }
    </style>
  </defs>
  <g id="Capa_2" data-name="Capa 2">
    <g id="Capa_2-2" data-name="Capa 2">
      <g id="Capa_1-2" data-name="Capa 1-2">
        <rect class="cls-1" x="23.33" y="35.09" width="41.05" height="9.6" rx="4.8"/>
        <g>
          <path class="cls-1" d="M5.57,12.91q0,.29-.45.63a2.86,2.86,0,0,1-1.66.35,2.78,2.78,0,0,1-2-.74,2.57,2.57,0,0,1-.78-2,2.57,2.57,0,0,1,.78-1.95,2.77,2.77,0,0,1,2-.75,2.83,2.83,0,0,1,1.66.35c.29.23.43.44.43.63a.73.73,0,0,1-.19.5A.52.52,0,0,1,5,10.2,2.63,2.63,0,0,1,4.25,10a2.6,2.6,0,0,0-.72-.17A1.17,1.17,0,0,0,2.22,11.2a1.17,1.17,0,0,0,1.31,1.34,2.52,2.52,0,0,0,.72-.17A2.55,2.55,0,0,1,5,12.2a.52.52,0,0,1,.41.22.78.78,0,0,1,.19.5Z"/>
          <path class="cls-1" d="M11.46,11.2a2.55,2.55,0,0,1-.79,2,2.78,2.78,0,0,1-2,.74,2.78,2.78,0,0,1-2-.74,2.57,2.57,0,0,1-.78-2,2.57,2.57,0,0,1,.78-1.95,2.77,2.77,0,0,1,2-.75,2.76,2.76,0,0,1,2,.75A2.58,2.58,0,0,1,11.46,11.2Zm-1.84-1a1.21,1.21,0,0,0-.93-.38,1.24,1.24,0,0,0-.94.38,1.35,1.35,0,0,0-.35,1,1.38,1.38,0,0,0,.35,1,1.24,1.24,0,0,0,.93.38,1.22,1.22,0,0,0,.93-.38,1.49,1.49,0,0,0,0-1.92Z"/>
          <path class="cls-1" d="M15,11V9.32c0-.44.26-.67.77-.67s.77.22.77.67v3.85c0,.45-.26.67-.77.67a.88.88,0,0,1-.68-.29l-1.72-2v1.65c0,.45-.26.67-.77.67s-.77-.22-.77-.67V9.32c0-.44.26-.67.77-.67a.78.78,0,0,1,.71.32Z"/>
          <path class="cls-1" d="M19.59,13.84c-.51,0-.77-.22-.77-.67V9.32c0-.44.26-.67.77-.67h1.87a.53.53,0,0,1,.6.61.53.53,0,0,1-.6.61h-1.1v.75h.94a.53.53,0,0,1,.6.61.53.53,0,0,1-.6.61h-.94v.77h1.1a.53.53,0,0,1,.6.61.53.53,0,0,1-.6.61H19.59Z"/>
          <path class="cls-1" d="M25.18,13.84h-2c-.51,0-.77-.22-.77-.67V9.32c0-.44.26-.67.77-.67s.77.22.77.67v3.3h1.2c.32,0,.48.2.48.61S25.5,13.84,25.18,13.84Z"/>
          <path class="cls-1" d="M30.37,13.85a.79.79,0,0,1-.72-.55L28,9.83a1.09,1.09,0,0,1-.12-.46,1,1,0,0,1,.15-.48.64.64,0,0,1,.63-.27.78.78,0,0,1,.72.53l.94,2,.93-2A.78.78,0,0,1,32,8.62a.66.66,0,0,1,.63.27,1,1,0,0,1,.15.48,1.09,1.09,0,0,1-.12.46L31.06,13.3a.8.8,0,0,1-.72.55Z"/>
          <path class="cls-1" d="M33.92,13.84c-.51,0-.77-.22-.77-.67V9.32c0-.44.26-.67.77-.67h1.87a.53.53,0,0,1,.6.61.53.53,0,0,1-.6.61h-1.1v.75h.94a.53.53,0,0,1,.6.61.53.53,0,0,1-.6.61h-.94v.77h1.1a.53.53,0,0,1,.6.61.53.53,0,0,1-.6.61H33.92Z"/>
          <path class="cls-1" d="M40,11.63l.77,1a.8.8,0,0,1,.17.48.64.64,0,0,1-.31.49,1,1,0,0,1-.57.24.62.62,0,0,1-.49-.31l-1.25-1.65v1.3c0,.45-.26.67-.77.67s-.77-.22-.77-.67V9.33c0-.44.26-.67.77-.67h1.74a1.34,1.34,0,0,1,1.07.49,1.61,1.61,0,0,1,.43,1A1.52,1.52,0,0,1,40,11.64ZM38.31,9.69v1.18h.44c.44,0,.65-.2.65-.59s-.22-.59-.65-.59Z"/>
          <path class="cls-1" d="M43.6,13.84H42c-.51,0-.77-.22-.77-.67V9.32c0-.44.26-.67.77-.67H43.6a2,2,0,0,1,1.77,1.41,3.07,3.07,0,0,1,0,2.38,2,2,0,0,1-1.77,1.41Zm.59-2.64c0-1-.37-1.48-1.1-1.5h-.28v3.07h.28C43.83,12.7,44.19,12.17,44.19,11.2Z"/>
          <path class="cls-1" d="M47.53,12.92l-.15.39a.68.68,0,0,1-.65.52.75.75,0,0,1-.65-.27.89.89,0,0,1-.2-.49,1,1,0,0,1,.1-.43l1.6-3.46a.77.77,0,0,1,1.46,0l1.61,3.46a1,1,0,0,1,.1.43.87.87,0,0,1-.19.49.74.74,0,0,1-.65.27.68.68,0,0,1-.66-.52l-.15-.39H47.53Zm1.13-1.23-.33-.9-.33.9h.66Z"/>
          <path class="cls-1" d="M53.43,13.84H51.87c-.51,0-.77-.22-.77-.67V9.32c0-.44.26-.67.77-.67h1.56a2,2,0,0,1,1.77,1.41,3.07,3.07,0,0,1,0,2.38,2,2,0,0,1-1.77,1.41ZM54,11.2c0-1-.37-1.48-1.1-1.5h-.28v3.07h.28C53.66,12.7,54,12.17,54,11.2Z"/>
          <path class="cls-1" d="M56.54,13.84c-.51,0-.77-.22-.77-.67V9.32c0-.44.26-.67.77-.67h1.87a.53.53,0,0,1,.6.61.53.53,0,0,1-.6.61h-1.1v.75h.94a.53.53,0,0,1,.6.61.53.53,0,0,1-.6.61h-.94v.77h1.1a.53.53,0,0,1,.6.61.53.53,0,0,1-.6.61H56.54Z"/>
          <path class="cls-1" d="M62.62,11.63l.77,1a.8.8,0,0,1,.17.48.64.64,0,0,1-.31.49,1,1,0,0,1-.57.24.62.62,0,0,1-.49-.31l-1.25-1.65v1.3c0,.45-.26.67-.77.67s-.77-.22-.77-.67V9.33c0-.44.26-.67.77-.67h1.74A1.34,1.34,0,0,1,63,9.15a1.61,1.61,0,0,1,.43,1,1.52,1.52,0,0,1-.78,1.44ZM60.93,9.69v1.18h.44c.44,0,.65-.2.65-.59s-.22-.59-.65-.59Z"/>
          <path class="cls-1" d="M69.39,11.2a2.55,2.55,0,0,1-.79,2,3.06,3.06,0,0,1-4,0,2.57,2.57,0,0,1-.78-2,2.57,2.57,0,0,1,.78-1.95,3,3,0,0,1,4,0A2.58,2.58,0,0,1,69.39,11.2Zm-1.84-1a1.21,1.21,0,0,0-.93-.38,1.24,1.24,0,0,0-.94.38,1.35,1.35,0,0,0-.35,1,1.38,1.38,0,0,0,.35,1,1.24,1.24,0,0,0,.93.38,1.22,1.22,0,0,0,.93-.38,1.49,1.49,0,0,0,0-1.92Z"/>
          <path class="cls-1" d="M3.16,21a5.1,5.1,0,0,1-1.65-.27,1,1,0,0,1-.8-.95c0-.45.21-.69.63-.69a4.52,4.52,0,0,1,.74.24,3.28,3.28,0,0,0,1.12.24c.32,0,.47-.13.47-.39a.5.5,0,0,0-.32-.43,5.74,5.74,0,0,0-.9-.36,3.73,3.73,0,0,1-.72-.28,1.43,1.43,0,0,1-.67-1.29,1.79,1.79,0,0,1,.56-1.37,1.85,1.85,0,0,1,1.3-.52,4.58,4.58,0,0,1,1.3.16c.69.22,1,.53.83,1s-.38.62-.74.59a4.23,4.23,0,0,1-.53-.18,2.5,2.5,0,0,0-.86-.18.32.32,0,0,0-.37.36c0,.15.11.29.32.4a6.52,6.52,0,0,0,.89.37,3.8,3.8,0,0,1,.73.3,1.52,1.52,0,0,1,.68,1.35,1.8,1.8,0,0,1-.58,1.42A2,2,0,0,1,3.18,21Z"/>
          <path class="cls-1" d="M7.35,19.94l-.17.45a.77.77,0,0,1-.74.59.85.85,0,0,1-.74-.31,1,1,0,0,1-.22-.56,1.24,1.24,0,0,1,.11-.49l1.82-3.94a.88.88,0,0,1,.84-.59.9.9,0,0,1,.84.59l1.83,3.94a1.1,1.1,0,0,1,.11.5,1,1,0,0,1-.22.56.84.84,0,0,1-.74.31.78.78,0,0,1-.75-.59L9.15,20H7.35Zm1.28-1.4-.38-1-.38,1Z"/>
          <path class="cls-1" d="M16.07,19.23c0,1.17-.63,1.75-1.88,1.75H12.28c-.58,0-.88-.25-.88-.76V15.84c0-.51.29-.76.88-.76h1.78c1.19,0,1.79.47,1.79,1.41a1.31,1.31,0,0,1-.72,1.29,1.5,1.5,0,0,1,.94,1.46Zm-1.88-2.4a.51.51,0,0,0-.58-.57h-.46V17.4h.48A.5.5,0,0,0,14.19,16.83Zm.12,2.3a.57.57,0,0,0-.65-.64h-.51v1.28h.53A.56.56,0,0,0,14.31,19.13Z"/>
          <path class="cls-1" d="M22.71,18a2.92,2.92,0,0,1-.9,2.22,3.17,3.17,0,0,1-2.27.85,3.17,3.17,0,0,1-2.27-.85A2.92,2.92,0,0,1,16.38,18a2.9,2.9,0,0,1,.89-2.22,3.14,3.14,0,0,1,2.28-.85,3.14,3.14,0,0,1,2.28.85A3,3,0,0,1,22.71,18Zm-2.1-1.1a1.37,1.37,0,0,0-1.06-.43,1.43,1.43,0,0,0-1.07.43,1.55,1.55,0,0,0-.4,1.1,1.57,1.57,0,0,0,.4,1.09,1.52,1.52,0,0,0,2.12,0,1.69,1.69,0,0,0,0-2.18Z"/>
          <path class="cls-1" d="M26.76,18.47l.88,1.14a.87.87,0,0,1,.19.54.75.75,0,0,1-.35.56,1.11,1.11,0,0,1-.65.27.72.72,0,0,1-.56-.35l-1.43-1.88v1.48c0,.51-.29.76-.88.76s-.88-.25-.88-.76V15.85c0-.51.29-.76.88-.76h2a1.55,1.55,0,0,1,1.22.56,1.77,1.77,0,0,1,.49,1.2,1.74,1.74,0,0,1-.89,1.64Zm-1.92-2.2v1.35h.5c.5,0,.74-.22.74-.67s-.25-.67-.74-.67h-.5Z"/>
          <path class="cls-1" d="M33.05,21H31.27c-.58,0-.88-.25-.88-.76V15.84c0-.51.29-.76.88-.76h1.78a2.31,2.31,0,0,1,2,1.6A3.63,3.63,0,0,1,35.35,18a3.4,3.4,0,0,1-.28,1.35A2.31,2.31,0,0,1,33.05,21Zm.67-3c0-1.11-.42-1.68-1.25-1.71h-.32v3.5h.32C33.31,19.69,33.72,19.09,33.72,18Z"/>
          <path class="cls-1" d="M36.6,21c-.58,0-.88-.25-.88-.76V15.84c0-.51.29-.76.88-.76h2.12a.61.61,0,0,1,.68.7.61.61,0,0,1-.68.7H37.47v.85h1.07a.61.61,0,0,1,.68.7.61.61,0,0,1-.68.7H37.47v.87h1.25a.7.7,0,0,1,0,1.4H36.6Z"/>
          <path class="cls-1" d="M45.17,21H42.92c-.58,0-.88-.25-.88-.76V15.84c0-.51.29-.76.88-.76s.88.25.88.76v3.75h1.37c.37,0,.55.23.55.7s-.18.7-.55.7Z"/>
          <path class="cls-1" d="M48,19.94l-.17.45a.77.77,0,0,1-.74.59.85.85,0,0,1-.74-.31,1,1,0,0,1-.22-.56,1.24,1.24,0,0,1,.11-.49L48,15.68a.88.88,0,0,1,.84-.59.9.9,0,0,1,.84.59l1.83,3.94a1.1,1.1,0,0,1,.11.5,1,1,0,0,1-.22.56.84.84,0,0,1-.74.31.78.78,0,0,1-.75-.59L49.77,20H48Zm1.28-1.4-.38-1-.38,1Z"/>
          <path class="cls-1" d="M56,19.94l-.17.45a.77.77,0,0,1-.74.59.85.85,0,0,1-.74-.31,1,1,0,0,1-.22-.56,1.24,1.24,0,0,1,.11-.49l1.82-3.94a.88.88,0,0,1,.84-.59.9.9,0,0,1,.84.59l1.83,3.94a1.1,1.1,0,0,1,.11.5,1,1,0,0,1-.22.56.84.84,0,0,1-.74.31A.78.78,0,0,1,58,20.4L57.82,20H56Zm1.28-1.4-.38-1-.38,1Z"/>
          <path class="cls-1" d="M63.76,18.47l.88,1.14a.87.87,0,0,1,.19.54.75.75,0,0,1-.35.56,1.11,1.11,0,0,1-.65.27.72.72,0,0,1-.56-.35l-1.43-1.88v1.48c0,.51-.29.76-.88.76s-.88-.25-.88-.76V15.85c0-.51.29-.76.88-.76h2a1.55,1.55,0,0,1,1.22.56,1.77,1.77,0,0,1,.49,1.2,1.74,1.74,0,0,1-.89,1.64Zm-1.92-2.2v1.35h.5c.5,0,.74-.22.74-.67s-.25-.67-.74-.67h-.5Z"/>
          <path class="cls-1" d="M66.08,21c-.58,0-.88-.25-.88-.76V15.84c0-.51.29-.76.88-.76H68.2a.61.61,0,0,1,.68.7.61.61,0,0,1-.68.7H67v.85H68a.61.61,0,0,1,.68.7.61.61,0,0,1-.68.7H67v.87H68.2a.7.7,0,0,1,0,1.4H66.08Z"/>
          <path class="cls-1" d="M71.08,19v1.21c0,.51-.29.76-.88.76s-.88-.25-.88-.76V15.85c0-.51.29-.76.88-.76h2a1.58,1.58,0,0,1,1.24.57A2,2,0,0,1,73.9,17a2.07,2.07,0,0,1-.55,1.38A1.77,1.77,0,0,1,72,19h-.89Zm0-2.75v1.35h.5c.5,0,.74-.22.74-.67s-.25-.67-.74-.67h-.5Z"/>
          <path class="cls-1" d="M76.08,19.94l-.17.45a.77.77,0,0,1-.74.59.85.85,0,0,1-.74-.31,1,1,0,0,1-.22-.56,1.24,1.24,0,0,1,.11-.49l1.82-3.94a.88.88,0,0,1,.84-.59.9.9,0,0,1,.84.59l1.83,3.94a1.1,1.1,0,0,1,.11.5,1,1,0,0,1-.22.56.84.84,0,0,1-.74.31.78.78,0,0,1-.75-.59L77.88,20h-1.8Zm1.28-1.4-.38-1-.38,1Z"/>
        </g>
        <rect class="cls-2" y="35.12" width="31.76" height="9.6" rx="4.8"/>
        <g>
          <path class="cls-1" d="M5,40.2a.08.08,0,0,1,0,0A.06.06,0,0,1,5,40.2Z"/>
          <path class="cls-1" d="M5.08,40.22a.08.08,0,0,1,0,0A.06.06,0,0,1,5.08,40.22Z"/>
          <path class="cls-1" d="M6.68,39.31c0-.28-.1-.4-.39-.39H4.86c-.29,0-.51,0-.65-.33s-.34-.27-.56-.08a1.11,1.11,0,0,0-.3,1.24A4.28,4.28,0,0,0,4.1,41a1.09,1.09,0,0,0,1.22.35c.21-.08.33-.2.29-.44s-.18-.29-.28-.42a.36.36,0,0,0-.48-.13c-.23.13-.36,0-.47-.17s-.17-.3-.24-.45a.21.21,0,0,1,0-.27c.1-.1.18,0,.25,0L5,40a.41.41,0,0,0,.59,0l.91-.72v1.18c0,.17-.13.17-.26.18a1.09,1.09,0,0,0-.61.1.57.57,0,0,0,0-.14v.08a.18.18,0,0,0,.06.13.18.18,0,0,0,.13,0,4.58,4.58,0,0,0,.83,0,4.09,4.09,0,0,0,.1-1.48Zm-2.51-.07c-.13.15-.33.26-.26.48a2,2,0,0,0,.55.89.33.33,0,0,0,.38,0,.26.26,0,0,1,.38.09c.08.12.22.24.15.39s-.26.15-.42.16a1,1,0,0,1-.77-.43,4.69,4.69,0,0,1-.6-1,.91.91,0,0,1,.09-1c.1-.12.23-.27.39-.08s.3.34.11.55h0Zm1.24.6a.2.2,0,0,1-.27,0l-.61-.47a.18.18,0,0,1-.07-.19c0-.09.1-.09.18-.09H6.3a7.55,7.55,0,0,1-.89.75Z"/>
          <path class="cls-1" d="M5,40.2a.08.08,0,0,1,0,0A.06.06,0,0,1,5,40.2Z"/>
        </g>
        <g>
          <path class="cls-3" d="M34.62,39a.67.67,0,1,0,.66.66.65.65,0,0,0-.66-.66Zm0,1.06c-.29,0-.46-.17-.46-.41a.37.37,0,0,1,.43-.39.4.4,0,0,1,0,.8Z"/>
          <path class="cls-3" d="M35.21,38.42a1.26,1.26,0,0,0-1.39.13,1.27,1.27,0,0,0-.5,1.39A3.64,3.64,0,0,0,34,41.18c.45.67.9.67,1.36,0a2.91,2.91,0,0,0,.63-1.69,1.18,1.18,0,0,0-.71-1.06h0Zm-.48,3.09c-.06.08-.11.12-.21,0a4.2,4.2,0,0,1-1-2,1,1,0,0,1,.59-.88,1.07,1.07,0,0,1,1.15.12,1,1,0,0,1,.38,1.08,4.89,4.89,0,0,1-.94,1.66h0Z"/>
          <path class="cls-4" d="M34.62,39a.67.67,0,1,0,.66.66.65.65,0,0,0-.66-.66Zm0,1.06c-.29,0-.46-.17-.46-.41a.37.37,0,0,1,.43-.39.4.4,0,0,1,0,.8Z"/>
          <path class="cls-4" d="M35.21,38.42a1.26,1.26,0,0,0-1.39.13,1.27,1.27,0,0,0-.5,1.39A3.64,3.64,0,0,0,34,41.18c.45.67.9.67,1.36,0a2.91,2.91,0,0,0,.63-1.69,1.18,1.18,0,0,0-.71-1.06h0Zm-.48,3.09c-.06.08-.11.12-.21,0a4.2,4.2,0,0,1-1-2,1,1,0,0,1,.59-.88,1.07,1.07,0,0,1,1.15.12,1,1,0,0,1,.38,1.08,4.89,4.89,0,0,1-.94,1.66h0Z"/>
          <path class="cls-5" d="M34.62,39a.67.67,0,1,0,.66.66.65.65,0,0,0-.66-.66Zm0,1.06c-.29,0-.46-.17-.46-.41a.37.37,0,0,1,.43-.39.4.4,0,0,1,0,.8Z"/>
          <path class="cls-6" d="M34.62,39a.67.67,0,1,0,.66.66.65.65,0,0,0-.66-.66Zm0,1.06c-.29,0-.46-.17-.46-.41a.37.37,0,0,1,.43-.39.4.4,0,0,1,0,.8Z"/>
        </g>
        <g>
          <path class="cls-1" d="M10.08,40a.47.47,0,0,1,.13.34.51.51,0,0,1-.32.48.9.9,0,0,1-.39.08,1.5,1.5,0,0,1-.37-.05,1.05,1.05,0,0,1-.3-.15L9,40.39a.73.73,0,0,0,.23.13.93.93,0,0,0,.29,0,.47.47,0,0,0,.28-.07.22.22,0,0,0,.1-.2.2.2,0,0,0-.1-.19A.46.46,0,0,0,9.48,40H9.32v-.23l.4-.48H8.91v-.28h1.21v.22l-.43.51a.64.64,0,0,1,.38.17Z"/>
          <path class="cls-1" d="M11,39v1.78h-.33v-1.5h-.38V39Z"/>
          <path class="cls-1" d="M12,39v1.78h-.33v-1.5H11.3V39Z"/>
          <path class="cls-1" d="M13.73,40.06a.43.43,0,0,1,.07.25.45.45,0,0,1-.09.28.69.69,0,0,1-.25.19,1.23,1.23,0,0,1-.76,0,.54.54,0,0,1-.25-.19.47.47,0,0,1-.09-.28.41.41,0,0,1,.07-.25.51.51,0,0,1,.21-.17.39.39,0,0,1-.16-.15.51.51,0,0,1-.06-.22.45.45,0,0,1,.08-.26.51.51,0,0,1,.23-.17,1.05,1.05,0,0,1,.7,0,.51.51,0,0,1,.23.17.45.45,0,0,1,.08.26.4.4,0,0,1-.06.22.42.42,0,0,1-.17.15.51.51,0,0,1,.21.17Zm-.36.45a.26.26,0,0,0,0-.42.57.57,0,0,0-.58,0,.27.27,0,0,0,0,.42.57.57,0,0,0,.58,0Zm-.53-1.17a.22.22,0,0,0-.09.19.2.2,0,0,0,.09.18.44.44,0,0,0,.25.07.37.37,0,0,0,.25-.07.23.23,0,0,0,.09-.18.25.25,0,0,0-.09-.19.44.44,0,0,0-.25-.07A.39.39,0,0,0,12.84,39.34Z"/>
          <path class="cls-1" d="M15.15,40a.47.47,0,0,1,.13.34.51.51,0,0,1-.32.48.9.9,0,0,1-.39.08,1.5,1.5,0,0,1-.37-.05,1.05,1.05,0,0,1-.3-.15l.14-.26a.73.73,0,0,0,.23.13.93.93,0,0,0,.29,0,.47.47,0,0,0,.28-.07.22.22,0,0,0,.1-.2.2.2,0,0,0-.1-.19.46.46,0,0,0-.29-.07h-.16v-.23l.4-.48H14v-.28h1.21v.22l-.43.51a.64.64,0,0,1,.38.17Z"/>
          <path class="cls-1" d="M15.85,40.74a.72.72,0,0,1-.26-.31,1.19,1.19,0,0,1-.1-.49,1.07,1.07,0,0,1,.1-.49.67.67,0,0,1,.26-.31.71.71,0,0,1,.76,0,.82.82,0,0,1,.27.31,1.22,1.22,0,0,1,.1.49,1.07,1.07,0,0,1-.1.49.69.69,0,0,1-.27.31.71.71,0,0,1-.76,0Zm.68-.34a.83.83,0,0,0,.11-.47.86.86,0,0,0-.11-.47.33.33,0,0,0-.3-.16.34.34,0,0,0-.3.16.83.83,0,0,0-.11.47.86.86,0,0,0,.11.47.35.35,0,0,0,.3.16A.33.33,0,0,0,16.53,40.4Z"/>
          <path class="cls-1" d="M18.57,40.06a.43.43,0,0,1,.07.25.45.45,0,0,1-.09.28.69.69,0,0,1-.25.19,1.23,1.23,0,0,1-.76,0,.54.54,0,0,1-.25-.19.47.47,0,0,1-.09-.28.41.41,0,0,1,.07-.25.51.51,0,0,1,.21-.17.39.39,0,0,1-.16-.15.51.51,0,0,1-.06-.22.45.45,0,0,1,.08-.26.51.51,0,0,1,.23-.17,1.05,1.05,0,0,1,.7,0,.51.51,0,0,1,.23.17.45.45,0,0,1,.08.26.4.4,0,0,1-.06.22.42.42,0,0,1-.17.15.51.51,0,0,1,.21.17Zm-.36.45a.26.26,0,0,0,0-.42.57.57,0,0,0-.58,0,.27.27,0,0,0,0,.42.57.57,0,0,0,.58,0Zm-.53-1.17a.22.22,0,0,0-.09.19.2.2,0,0,0,.09.18.44.44,0,0,0,.25.07.37.37,0,0,0,.25-.07.23.23,0,0,0,.09-.18.25.25,0,0,0-.09-.19.44.44,0,0,0-.25-.07A.39.39,0,0,0,17.68,39.34Z"/>
          <path class="cls-1" d="M20,39.88a.49.49,0,0,1,.18.4.57.57,0,0,1-.08.29.56.56,0,0,1-.24.21.87.87,0,0,1-.39.08,1.5,1.5,0,0,1-.37,0,1.05,1.05,0,0,1-.3-.15l.14-.26a.87.87,0,0,0,.53.18.47.47,0,0,0,.28-.07.22.22,0,0,0,.1-.2.25.25,0,0,0-.11-.21.69.69,0,0,0-.37-.07h-.43l.09-1h1v.28h-.76l0,.41h.17a.87.87,0,0,1,.56.15Z"/>
          <path class="cls-1" d="M21.64,39v.22L21,40.82H20.6l.67-1.5h-.7v.3h-.31V39Z"/>
          <path class="cls-1" d="M23.19,39v.22l-.69,1.56h-.35l.67-1.5h-.7v.3h-.31V39Z"/>
        </g>
        <g>
          <path class="cls-2" d="M37.65,40.83a.85.85,0,0,1-.33-.32.94.94,0,0,1,0-.92.92.92,0,0,1,.33-.32.93.93,0,0,1,.47-.11,1,1,0,0,1,.39.07.81.81,0,0,1,.3.21l-.21.19a.61.61,0,0,0-.46-.2.69.69,0,0,0-.32.08.52.52,0,0,0-.22.22.64.64,0,0,0,0,.62.66.66,0,0,0,.22.22.57.57,0,0,0,.32.08.61.61,0,0,0,.46-.2l.21.2a.71.71,0,0,1-.3.21,1,1,0,0,1-.39.07,1,1,0,0,1-.47-.11Z"/>
          <path class="cls-2" d="M39.85,39.59v.29h-.07a.37.37,0,0,0-.28.1.4.4,0,0,0-.1.3v.64h-.31V39.6h.29v.19a.51.51,0,0,1,.47-.21Z"/>
          <path class="cls-2" d="M41.05,39.73a.54.54,0,0,1,.15.42v.77h-.29v-.16a.34.34,0,0,1-.16.13.62.62,0,0,1-.25,0,.71.71,0,0,1-.26,0,.39.39,0,0,1-.17-.14.36.36,0,0,1-.06-.2.33.33,0,0,1,.13-.28.68.68,0,0,1,.42-.11h.34v0a.29.29,0,0,0-.08-.21.37.37,0,0,0-.25-.07.83.83,0,0,0-.22,0,.52.52,0,0,0-.18.1l-.12-.22a.83.83,0,0,1,.25-.12,1.06,1.06,0,0,1,.31,0,.69.69,0,0,1,.45.14Zm-.28.93a.37.37,0,0,0,.13-.15v-.15h-.32q-.27,0-.27.18a.14.14,0,0,0,.07.13.35.35,0,0,0,.18,0,.5.5,0,0,0,.21,0Z"/>
          <path class="cls-2" d="M41.56,40.88a.37.37,0,0,1-.06-.15.2.2,0,0,1,.06-.15.2.2,0,0,1,.14-.06.18.18,0,0,1,.14.06.22.22,0,0,1,0,.3.19.19,0,0,1-.28,0Z"/>
          <path class="cls-2" d="M44.09,39.19v.21l-.67,1.51h-.34l.65-1.45h-.68v.29h-.3v-.56Z"/>
          <path class="cls-2" d="M44.59,40.84a.73.73,0,0,1-.26-.31,1,1,0,0,1-.09-.48,1.17,1.17,0,0,1,.09-.48.72.72,0,0,1,.26-.31.73.73,0,0,1,.74,0,.73.73,0,0,1,.26.31,1.14,1.14,0,0,1,.09.48,1.17,1.17,0,0,1-.09.48.7.7,0,0,1-1,.31Zm.66-.33a.8.8,0,0,0,.11-.46.82.82,0,0,0-.11-.46.32.32,0,0,0-.29-.15.34.34,0,0,0-.29.15.8.8,0,0,0-.11.46.82.82,0,0,0,.11.46.36.36,0,0,0,.58,0Z"/>
          <path class="cls-2" d="M47.75,40.28h.33v.22h-.36l0,.42h-.22l0-.42h-.42l0,.42h-.22l0-.42h-.33v-.22h.36l.06-.44h-.33v-.22H47L47,39.2h.22l0,.42h.41l0-.42h.22l-.05.42h.33v.22H47.8Zm-.22,0,0-.44h-.41l-.06.44Z"/>
          <path class="cls-2" d="M49.42,39.92a.48.48,0,0,1,.21.19.51.51,0,0,1,.08.28.55.55,0,0,1-.08.29.64.64,0,0,1-.23.2.79.79,0,0,1-.87-.15.94.94,0,0,1-.2-.64,1.12,1.12,0,0,1,.11-.5.69.69,0,0,1,.3-.31.9.9,0,0,1,.44-.11.69.69,0,0,1,.25,0l.2.08-.12.24a.56.56,0,0,0-.33-.08.5.5,0,0,0-.39.15.64.64,0,0,0-.14.44h0a.5.5,0,0,1,.19-.13.76.76,0,0,1,.27,0A.64.64,0,0,1,49.42,39.92Zm-.12.69a.29.29,0,0,0,0-.42.43.43,0,0,0-.5,0,.26.26,0,0,0-.1.21.29.29,0,0,0,.09.21.4.4,0,0,0,.26.08.36.36,0,0,0,.24-.08Z"/>
          <path class="cls-2" d="M51.13,40.65v.27H49.86v-.21l.69-.65a.8.8,0,0,0,.16-.19.32.32,0,0,0,0-.16.26.26,0,0,0-.08-.19.38.38,0,0,0-.24-.06.46.46,0,0,0-.4.18l-.22-.17a.71.71,0,0,1,.27-.21.92.92,0,0,1,.38-.08.69.69,0,0,1,.45.13.45.45,0,0,1,.17.36.58.58,0,0,1-.06.26,1,1,0,0,1-.23.28l-.46.44h.8Z"/>
          <path class="cls-2" d="M52.48,39.67a.62.62,0,0,1,.24.24.73.73,0,0,1,0,.7.69.69,0,0,1-.24.24.66.66,0,0,1-.34.08.7.7,0,0,1-.25,0,.45.45,0,0,1-.19-.14v.17h-.29V39.08h.31v.67a.43.43,0,0,1,.19-.13.61.61,0,0,1,.24,0,.74.74,0,0,1,.34.08Zm-.1.89a.46.46,0,0,0,0-.6.36.36,0,0,0-.28-.11.46.46,0,0,0-.2,0,.32.32,0,0,0-.14.14.48.48,0,0,0,0,.22.51.51,0,0,0,0,.22.32.32,0,0,0,.14.14.46.46,0,0,0,.2.05A.39.39,0,0,0,52.38,40.56Z"/>
          <path class="cls-2" d="M53.87,40.89a.67.67,0,0,1-.24-.11l.12-.23a.67.67,0,0,0,.21.09,1,1,0,0,0,.25,0c.18,0,.28,0,.28-.15a.1.1,0,0,0-.07-.1.8.8,0,0,0-.23,0l-.27-.06a.42.42,0,0,1-.18-.11.31.31,0,0,1-.08-.22.35.35,0,0,1,.16-.3.75.75,0,0,1,.42-.11l.27,0a.93.93,0,0,1,.22.08l-.12.23a.7.7,0,0,0-.38-.1.41.41,0,0,0-.21,0A.12.12,0,0,0,54,40a.11.11,0,0,0,.08.1l.23.06.26.06a.32.32,0,0,1,.24.33.35.35,0,0,1-.16.3.79.79,0,0,1-.44.11,1.06,1.06,0,0,1-.31,0Z"/>
          <path class="cls-2" d="M56.32,39.6v1.32H56v-.17a.62.62,0,0,1-.18.14.6.6,0,0,1-.24,0,.58.58,0,0,1-.42-.15.58.58,0,0,1-.15-.43v-.75h.31v.71a.41.41,0,0,0,.08.27.29.29,0,0,0,.23.09.33.33,0,0,0,.26-.1.39.39,0,0,0,.1-.29v-.67h.31Z"/>
          <path class="cls-2" d="M57.49,39.59v.29h-.07a.37.37,0,0,0-.28.1.4.4,0,0,0-.1.3v.64h-.31V39.6H57v.19a.51.51,0,0,1,.47-.21Z"/>
          <path class="cls-2" d="M59.45,40.07a.49.49,0,0,1,.13.33.5.5,0,0,1-.08.27.57.57,0,0,1-.23.2.86.86,0,0,1-.38.07,1.49,1.49,0,0,1-.36,0,.89.89,0,0,1-.29-.15l.14-.25a.71.71,0,0,0,.23.12.87.87,0,0,0,.28,0,.45.45,0,0,0,.27-.07.24.24,0,0,0,.1-.19.23.23,0,0,0-.09-.19.45.45,0,0,0-.28-.07h-.16v-.22l.39-.47h-.78v-.27h1.18v.21l-.42.5a.55.55,0,0,1,.36.16Z"/>
          <path class="cls-2" d="M60.13,40.84a.73.73,0,0,1-.26-.31,1,1,0,0,1-.09-.48,1.17,1.17,0,0,1,.09-.48.72.72,0,0,1,.26-.31.73.73,0,0,1,.74,0,.73.73,0,0,1,.26.31,1.14,1.14,0,0,1,.09.48,1.17,1.17,0,0,1-.09.48.7.7,0,0,1-1,.31Zm.66-.33a.8.8,0,0,0,.11-.46.82.82,0,0,0-.11-.46.32.32,0,0,0-.29-.15.34.34,0,0,0-.29.15.8.8,0,0,0-.11.46.82.82,0,0,0,.11.46.36.36,0,0,0,.58,0Z"/>
        </g>
        <g>
          <path class="cls-1" d="M4.41,6.8C4,7.92,2.29,8.67,1.55,7.54a2.62,2.62,0,0,1-.21-2,3.54,3.54,0,0,1,2-2.27l-.35-.11a1.21,1.21,0,0,1-.61-.68A1.8,1.8,0,0,1,.69,1.31C.63,1.14.87,1,.93,1.2a1.57,1.57,0,0,0,1.34,1,1.71,1.71,0,0,1,0-.45,1.8,1.8,0,0,1,.37-.71A1.7,1.7,0,0,1,3.84.34a1,1,0,0,1,.68.11.66.66,0,0,1,.2.76A1.65,1.65,0,0,1,4.1,2a2.56,2.56,0,0,1-1.18.46.94.94,0,0,0,.46.44,1.85,1.85,0,0,0,.68.17c.23,0,.27.22.1.28a3.41,3.41,0,0,0-2.08,1.8A2.57,2.57,0,0,0,2,7.32c.58,1,1.82.2,2.14-.63C4.24,6.53,4.48,6.64,4.41,6.8Zm-1.53-5a1.18,1.18,0,0,0,0,.37A2.64,2.64,0,0,0,4,1.78a1.41,1.41,0,0,0,.52-.66.36.36,0,0,0-.1-.43C4,.43,3.41.94,3.2,1.22A1.89,1.89,0,0,0,2.88,1.83Z"/>
          <path class="cls-1" d="M4.64,6.94c.05-.48.16-1.06.31-1.79L5,4.9c0-.19.42-.22.47.22a1.09,1.09,0,0,1,0,.37c0,.18-.06.32-.09.46a1.36,1.36,0,0,1,0,.17l.17-.36A3.16,3.16,0,0,1,6,4.87c.16-.16.42-.34.63-.18a.49.49,0,0,1,.15.23,1.36,1.36,0,0,1,0,.54c-.09.61-.34,1.28-.46,1.9-.07.31,0,.5.25.19a15.49,15.49,0,0,0,1-1.95c.08-.16.3,0,.22.13A13.11,13.11,0,0,1,6.72,7.8c-.44.45-.93.14-.87-.66A6.44,6.44,0,0,1,6.1,5.89c0-.13.34-1.09.07-.82a3.28,3.28,0,0,0-.46.81c-.25.57-.52,1.28-.62,1.58s-.37.17-.44-.16A1.11,1.11,0,0,1,4.64,6.94Z"/>
          <path class="cls-1" d="M9.07,4.87s.28-.21.37.22A5,5,0,0,1,9.21,6.3a3.37,3.37,0,0,0-.07.62c0,.3.12.33.31.06a6.88,6.88,0,0,0,.52-.9l.24-.48c.08-.16.3,0,.22.14l-.24.47a5.35,5.35,0,0,1-.59,1c-.32.38-.81.49-.93-.18a2.84,2.84,0,0,1,0-.71c0-.14.05-.29.09-.43l-.42.55a1.66,1.66,0,0,1-.66.53.31.31,0,0,1-.41-.25A1.22,1.22,0,0,1,7.36,6c.21-.58,1-1.49,1.64-1A1.71,1.71,0,0,1,9.07,4.87ZM7.93,6.11c-.16.47-.11.52.23.1l.41-.53.32-.45C8.5,5.06,8.06,5.73,7.93,6.11Z"/>
          <path class="cls-1" d="M14.14,5.73A13.15,13.15,0,0,1,13,7.8c-.44.45-.91.14-.87-.66a16.9,16.9,0,0,1,.39-1.85c0-.16.07-.35-.07-.22a2.61,2.61,0,0,0-.4.56,7.79,7.79,0,0,0-.43.88c-.09.2-.43.06-.44-.33,0-.15,0-.27,0-.39a3.55,3.55,0,0,0,0-.46c0-.07-.07.06-.07.06a15.6,15.6,0,0,0-.64,1.69l-.14.42c-.08.21-.38.06-.43-.2a1.53,1.53,0,0,1,0-.36c0-.48.16-1.06.31-1.79a2.21,2.21,0,0,1,.05-.25c.05-.29.59-.14.44.62l-.06.39A2.51,2.51,0,0,1,11.19,5c.22-.24.43,0,.49.24a2,2,0,0,1,0,.54l.15-.28a3.58,3.58,0,0,1,.45-.61.82.82,0,0,1,.33-.22.32.32,0,0,1,.4.24.89.89,0,0,1,.05.41,16.43,16.43,0,0,1-.44,2.06c-.07.31,0,.5.26.19a16.91,16.91,0,0,0,1-1.95C14,5.44,14.22,5.57,14.14,5.73Z"/>
          <path class="cls-1" d="M14.17,5.26c.12-.66.88-.94,1.19-.33a1.89,1.89,0,0,1,.05,1.28,1.6,1.6,0,0,0,.93-.62c.1-.15.3,0,.2.16a1.86,1.86,0,0,1-1.23.76,1.68,1.68,0,0,1-.64.87.63.63,0,0,1-1-.32,2,2,0,0,1,.09-1.2A1.43,1.43,0,0,1,14.17,5.26ZM15,6.51A.88.88,0,0,1,14.26,6a1.75,1.75,0,0,0-.12.83c0,.24.14.54.41.37A1.46,1.46,0,0,0,15,6.51Zm-.16-1.2-.12,0a.71.71,0,0,0-.34.28.27.27,0,0,0,0,.12.67.67,0,0,0,.62.49h.06a.43.43,0,0,1,0,0,1.61,1.61,0,0,0,0-1.13.34.34,0,0,0-.61,0l.16,0a.68.68,0,0,1,.23,0A.13.13,0,0,1,14.88,5.31Z"/>
          <path class="cls-1" d="M17.09,5.87a.13.13,0,0,1,.09.21,7.41,7.41,0,0,0-.45.86,3,3,0,0,0-.23.68c0,.24,0,.32.16.23.67-.33,1.29-1.56,1.68-2.25a.13.13,0,1,1,.22.14c-.42.74-1,2-1.79,2.35a.56.56,0,0,1-.71-.1,1,1,0,0,1,0-.84,6.44,6.44,0,0,1,.49-1.05h0A1.07,1.07,0,0,1,16,5.8a.76.76,0,0,1-.2-.6.89.89,0,0,1,.53-.79.42.42,0,0,1,.55.14.62.62,0,0,1,0,.46,1.75,1.75,0,0,1-.32.69A1.28,1.28,0,0,0,17.09,5.87ZM16.66,5c.08-.37-.08-.34-.21-.07a.72.72,0,0,0-.05.62A1.55,1.55,0,0,0,16.66,5Z"/>
          <path class="cls-1" d="M19.81,4.87s.29-.21.37.22A4.52,4.52,0,0,1,20,6.3a3.37,3.37,0,0,0-.07.62c0,.3.13.33.31.06a8.23,8.23,0,0,0,.53-.9L21,5.6c.08-.16.3,0,.22.14l-.24.47a4.84,4.84,0,0,1-.59,1c-.31.38-.81.49-.92-.18a2.84,2.84,0,0,1,0-.71,3.25,3.25,0,0,1,.08-.43c-.16.22-.3.4-.42.55a1.66,1.66,0,0,1-.66.53.3.3,0,0,1-.4-.25A1.3,1.3,0,0,1,18.1,6c.21-.58,1-1.49,1.64-1A1.71,1.71,0,0,1,19.81,4.87ZM18.68,6.11c-.17.47-.12.52.22.1l.42-.53.31-.45C19.24,5.06,18.8,5.73,18.68,6.11Z"/>
          <path class="cls-1" d="M21.69,5.87a.13.13,0,0,1,.09.21,7.51,7.51,0,0,0-.44.86,3.12,3.12,0,0,0-.24.68c0,.24,0,.32.17.23.67-.33,1.29-1.56,1.68-2.25.08-.16.3,0,.21.14-.41.74-1,2-1.78,2.35a.56.56,0,0,1-.71-.1,1,1,0,0,1,0-.84,5.7,5.7,0,0,1,.49-1.05h-.05a1,1,0,0,1-.52-.29.76.76,0,0,1-.21-.6.9.9,0,0,1,.53-.79.44.44,0,0,1,.56.14.62.62,0,0,1,0,.46,1.75,1.75,0,0,1-.32.69A1.29,1.29,0,0,0,21.69,5.87ZM21.27,5c.08-.37-.08-.34-.22-.07A.75.75,0,0,0,21,5.5,1.57,1.57,0,0,0,21.27,5Z"/>
          <path class="cls-1" d="M26.39,4.87s.28-.21.37.22a4.52,4.52,0,0,1-.23,1.21,3.37,3.37,0,0,0-.07.62c0,.3.13.33.31.06a8.23,8.23,0,0,0,.53-.9l.23-.48c.08-.16.3,0,.22.14l-.24.47a4.84,4.84,0,0,1-.59,1c-.31.38-.81.49-.93-.18a3.41,3.41,0,0,1,0-.71c0-.14.05-.29.09-.43-.16.22-.3.4-.42.55a1.66,1.66,0,0,1-.66.53.31.31,0,0,1-.41-.25A1.32,1.32,0,0,1,24.68,6c.21-.58,1.05-1.49,1.64-1A1.71,1.71,0,0,1,26.39,4.87ZM25.26,6.11c-.17.47-.12.52.22.1l.42-.53.31-.45C25.82,5.06,25.38,5.73,25.26,6.11Z"/>
          <path class="cls-1" d="M31.26,5.61c.07-.16.3,0,.23.13-.35.71-.74,1.46-1.15,2.14-.52.88-1.05.54-1.06-.35a15.61,15.61,0,0,1,.28-2.47c.13-.76.3-1.56.47-2.26-1,.13-1.94.16-2.11-.66a.13.13,0,1,1,.25-.06c.12.62,1,.56,1.93.43.13-.48.24-.91.35-1.23s.44,0,.41.45a4.89,4.89,0,0,1-.14.71c.78-.11,2.22-.35,2.3.83a.13.13,0,1,1-.26,0c-.06-.92-1.51-.66-2.12-.57-.25.93-.44,1.92-.61,2.87a14.36,14.36,0,0,0-.23,2.09c0,.42.14.38.37,0C30.55,7,30.94,6.29,31.26,5.61Z"/>
          <path class="cls-1" d="M31.52,5.26c.12-.66.88-.94,1.19-.33a1.89,1.89,0,0,1,0,1.28,1.6,1.6,0,0,0,.93-.62c.1-.15.3,0,.2.16a1.84,1.84,0,0,1-1.23.76,1.68,1.68,0,0,1-.64.87.62.62,0,0,1-1-.32,1.93,1.93,0,0,1,.08-1.2A1.43,1.43,0,0,1,31.52,5.26Zm.87,1.25A.89.89,0,0,1,31.61,6a1.75,1.75,0,0,0-.12.83c0,.24.14.54.41.37A1.46,1.46,0,0,0,32.39,6.51Zm-.16-1.2-.12,0a.64.64,0,0,0-.33.28.5.5,0,0,0,0,.12.67.67,0,0,0,.63.49h.06v0a1.61,1.61,0,0,0,0-1.13.34.34,0,0,0-.61,0L32,5a.68.68,0,0,1,.23,0A.13.13,0,0,1,32.23,5.31Z"/>
          <path class="cls-1" d="M37.12,5.59a.13.13,0,1,1,.23.14A22.4,22.4,0,0,1,36.1,7.59c-.49.62-1.08.69-1.22-.26a6.34,6.34,0,0,1,0-1.53q-.21.3-.45.6a1.61,1.61,0,0,1-.67.55.3.3,0,0,1-.41-.25,1.26,1.26,0,0,1,.1-.69,1.71,1.71,0,0,1,1.14-1.15.7.7,0,0,1,.39.08,9.62,9.62,0,0,1,1.3-3.8C36.86.34,37.44,0,37.86,0a.7.7,0,0,1,.72.62A2.11,2.11,0,0,1,38,2.27a18,18,0,0,1-2.32,2.05,17.76,17.76,0,0,0-.33,2.92c0,.81.31.56.63.14A21.11,21.11,0,0,0,37.12,5.59ZM34,6.11c-.15.45-.1.51.23.1A10.66,10.66,0,0,0,35,5.28a.15.15,0,0,1,0-.06C34.61,5,34.14,5.82,34,6.11Zm2.74-4.8a8.14,8.14,0,0,0-1,2.59,14.7,14.7,0,0,0,2-1.82A1.85,1.85,0,0,0,38.33.67c-.11-.58-.6-.32-.91-.08A3.62,3.62,0,0,0,36.77,1.31Z"/>
          <path class="cls-1" d="M37.38,5.26c.12-.66.88-.94,1.19-.33a1.89,1.89,0,0,1,0,1.28,1.6,1.6,0,0,0,.93-.62c.1-.15.3,0,.2.16a1.86,1.86,0,0,1-1.23.76,1.68,1.68,0,0,1-.64.87.62.62,0,0,1-1-.32A1.93,1.93,0,0,1,37,5.86,1.43,1.43,0,0,1,37.38,5.26Zm.87,1.25A.88.88,0,0,1,37.47,6a1.75,1.75,0,0,0-.12.83c0,.24.14.54.41.37A1.46,1.46,0,0,0,38.25,6.51Zm-.16-1.2-.12,0a.71.71,0,0,0-.34.28.27.27,0,0,0,0,.12.67.67,0,0,0,.62.49h.06a.43.43,0,0,1,0,0,1.61,1.61,0,0,0,0-1.13.34.34,0,0,0-.61,0l.16,0a.68.68,0,0,1,.23,0A.13.13,0,0,1,38.09,5.31Z"/>
          <path class="cls-1" d="M40.81,4.71c0-.71-.66-.4-.79.13a2.07,2.07,0,0,0,.27,1.24l.17.45a3.42,3.42,0,0,0,1.12-.93c.1-.14.3,0,.21.17a3.75,3.75,0,0,1-1.25,1c.17.61.07,1.57-.66,1.7a.58.58,0,0,1-.7-.47,1.12,1.12,0,0,1,.47-.92A1.56,1.56,0,0,1,40,6.83c-.07-.21-.15-.42-.23-.63a1.89,1.89,0,0,1-.16-1.73c.4-.67,1.47-.68,1.47.23A.13.13,0,1,1,40.81,4.71Zm-.76,2.4a2.43,2.43,0,0,0-.25.2.86.86,0,0,0-.36.67c0,.26.28.28.44,0A1.28,1.28,0,0,0,40.05,7.11Z"/>
        </g>
      </g>
    </g>
  </g>
</svg>
