<?xml version="1.0" encoding="UTF-8"?>
<svg id="Capa_2" data-name="Capa 2" xmlns="http://www.w3.org/2000/svg" viewBox="0 0 34.91 15.37">
  <defs>
    <style>
      .cls-1 {
        fill: #f3e3e3;
      }

      .cls-2 {
        fill: #dac64a;
      }

      .cls-3 {
        fill: #b97b7c;
      }

      .cls-4 {
        fill: #f5ffff;
        font-family: Poppins-SemiBold, Poppins;
        font-size: 1.37px;
        letter-spacing: .26em;
      }

      .cls-5 {
        fill: #dcc150;
      }

      .cls-6 {
        fill: #e5c5c6;
      }

      .cls-7 {
        fill: #40391c;
      }

      .cls-8 {
        fill: #fcc329;
      }

      .cls-9 {
        fill: #40391b;
      }

      .cls-10 {
        fill: none;
      }

      .cls-11 {
        fill: #413a1c;
      }

      .cls-12 {
        fill: #936525;
      }
    </style>
  </defs>
  <g id="Capa_1-2" data-name="Capa 1">
    <text class="cls-4" transform="translate(31.36 1.94) scale(1.04 1)"><tspan x="0" y="0">®</tspan></text>
    <path class="cls-3" d="M34.72,1.06s.08,.06,.11,.1c.03,.04,.04,.09,.04,.15s-.01,.1-.04,.15c-.03,.04-.06,.08-.11,.1s-.1,.04-.16,.04-.11-.01-.16-.04-.08-.06-.11-.1c-.03-.04-.04-.09-.04-.15s.01-.11,.04-.15c.03-.04,.06-.08,.11-.1s.1-.04,.16-.04,.11,.01,.16,.04Zm0,.41s.06-.09,.06-.16-.02-.12-.06-.16c-.04-.04-.1-.06-.16-.06s-.12,.02-.16,.06c-.04,.04-.06,.09-.06,.16s.02,.12,.06,.16c.04,.04,.09,.06,.16,.06s.12-.02,.16-.06Zm-.05-.16s-.02,.03-.04,.03l.07,.11h-.11l-.06-.1h0v.1h-.1v-.29h.15s.06,0,.08,.03c.02,.02,.03,.04,.03,.07,0,.02,0,.04-.02,.05Zm-.15-.03h.05s.01,0,.02,0c0,0,0,0,0-.02,0-.01,0-.02-.02-.02h-.05v.04Z"/>
    <path class="cls-2" d="M20.48,8.2s6.13,1.22,14.43,0l-.47,2.35h-13.36l-.6-2.35Z"/>
    <path class="cls-12" d="M30.07,6.98c.16-.12,.34-.1,.5-.02,.29,.15,.54,.01,.78-.09,.17-.08,.31-.2,.52-.12,.02,0,.06,.02,.06,0,.16-.26,.45-.14,.66-.19,.07-.14,.12-.26,.2-.43,.09,.13,.14,.21,.2,.3,.07-.07,.13-.13,.2-.21,.21,.17,.33,.03,.51-.12,.21-.18,.24-.35,.21-.59,0-.07,.03-.15,.04-.22,.06,.05,.13,.1,.19,.15-.03,.26-.06,.53-.09,.83,.07-.02,.13-.05,.19-.06,.06,0,.15-.02,.17,.01,.03,.04,.02,.13,0,.17-.1,.18-.22,.35-.33,.52h0s-.07,.03-.11,.05c-.03,0-.06,.01-.09,.02l-.09,.16c-.2-.04-.39-.27-.62,0,.12,.12,.23,.24,.36,.33,.07,.04,.18,.02,.27,.02,.13,.07,.21,.15,.12,.32-.05,.1-.07,.23-.1,.35l-.36-.23c-.05-.16-.01-.41-.25-.41-.27,0-.48-.13-.7-.26-.03-.02-.09,0-.16,0,.23,.25,.39,.52,.73,.57,.03,0,.05,.04,.07,.06-.02,.11-.03,.21-.15,.29-.08,.05-.12,.19-.17,.29-.05,.09-.1,.18-.15,.27-.02-.03-.05-.07-.07-.1h0s-.06-.04-.1-.07c-.03-.06-.05-.12-.08-.18-.03-.05-.09-.08-.13-.12-.03,.05-.09,.09-.1,.15-.05,.28,0,.34,.34,.33,.02,.05,.04,.09,.06,.14-.16,0-.29,.03-.38,.19-.03,.06-.13,.09-.2,.13,.05-.1,.1-.21,.17-.36-.32,.03-.4-.16-.44-.42-.23,.28-.02,.57-.19,.85,.21-.03,.33-.06,.45-.08-.1,.11-.3,.17-.24,.38h0c-.33-.16-.63,.01-.63,.37,0,.19-.04,.27-.27,.21,.03-.12,.06-.24,.09-.37-.05-.02-.1-.06-.15-.05-.2,.04-.37,.06-.47-.18-.01-.03-.15-.03-.22,0-.05,.02-.09,.09-.13,.14-.33-.07-.34-.07-.5,.21-.14,.25-.24,.51-.37,.77-.04,.07-.1,.14-.17,.17-.03,.01-.12-.07-.16-.13-.11-.15-.21-.3-.31-.45-.03-.04-.08-.1-.12-.1-.24,.03-.34-.16-.49-.29-.07-.06-.16-.13-.25-.13-.23-.01-.46,0-.68,.02-.08,.01-.15,.11-.23,.17-.1,.07-.22,.13-.32,.19-.05-.1-.1-.21-.14-.31-.05-.12-.1-.24-.15-.35,.01-.01,.02-.03,.03-.04,.21,0,.29-.13,.28-.32-.04-.3-.08-.33-.41-.3-.13,.2-.23,.38-.34,.54-.11,.15-.03,.22,.09,.29-.05,.11-.1,.22-.14,.33-.08,.2-.22,.22-.39,.14-.07-.24,.4-.38,.1-.65-.05,.02-.11,.05-.17,.08-.18,.09-.34,.06-.48-.09-.04-.04-.07-.08-.12-.12-.09-.06-.19-.12-.29-.18-.06,.1-.12,.19-.17,.29-.04,.07-.05,.16-.1,.19-.06,.04-.16,.02-.24,.02,0-.08-.03-.19,.01-.22,.19-.15,.11-.28,.01-.43-.07-.1-.14-.2-.21-.3-.09-.14-.19-.22-.34-.07-.03,.03-.09,.06-.11,.05-.27-.15-.43,.01-.63,.16-.15,.11-.31,0-.48-.23,.19-.06,.39-.12,.58-.19,.04-.01,.08-.08,.08-.12,0-.04-.06-.1-.1-.11-.14-.02-.29,0-.43-.02-.21-.03-.42-.08-.63-.15-.04-.01-.05-.14-.08-.21,.07,0,.14-.02,.21-.01,.03,0,.05,.05,.08,.06,.09,.03,.22,.09,.26,.05,.12-.11-.01-.19-.08-.27-.01-.06-.02-.12-.04-.18-.09-.21-.07-.25,.14-.34,.02,0,.05,0,.06-.02,.05-.06,.1-.13,.13-.2,0-.02-.04-.1-.06-.1-.08,.01-.17,.02-.23,.07-.06,.04-.09,.12-.13,.19-.06,.13-.12,.26-.17,.39-.05,.04-.1,.09-.16,.11-.16,.06-.28-.02-.3-.19-.01-.09-.02-.17-.03-.26,.09-.02,.18-.04,.27-.07-.03-.08-.08-.16-.1-.25-.02-.08-.03-.16-.04-.24,.03-.13,.05-.26,.08-.39-.04-.06-.07-.14-.13-.18-.09-.07-.2-.11-.31-.17,.3-.28,.54-.28,.74-.01,.08,.11,.13,.06,.21,.04-.02,.08-.04,.16-.07,.24,.09,.01,.16,.02,.22,.03,.05,.19-.3,.19-.15,.43,.14-.14,.28-.31,.45-.14,.2,.2,.45,.4,.35,.74q.53,.01,.64-.08-.43-.42-.35-.7c.09,.13,.17,.26,.26,.38,.1,.12,.2,.24,.31,.34,.05,.05,.14,.06,.22,.08,.02-.08,.06-.16,.04-.24-.01-.08-.08-.16-.12-.23-.04-.08-.08-.17-.12-.27,.2-.15,.52-.07,.55-.38,.08-.13,.19-.17,.33-.11,.1,.04,.2,.09,.14,.23h0s-.03,0-.03,0c0,.02,0,.03,0,.05,.01,.12,.03,.25,.04,.37,0,.03,0,.06,.01,.08-.12,0-.24,0-.36,.02-.24,.05-.27,.16-.13,.37,.22,.32,.87,.4,1.1-.01,.15-.28,.24-.28,.54-.14,.14,.07,.27,.09,.4,0,.03-.1,.05-.21,.09-.36,.35,.15,.69,.29,1.03,.43-.16,.13-.32,.26-.49,.41,.15,.28,.45,.33,.72,.47-.02,.04-.03,.06-.04,.09,0,.03-.02,.05-.03,.1,.64,.06,1.23,.03,1.64-.55,.14-.2,.34-.27,.57-.27,.08,0,.15,0,.23,0l.08-.09s.03-.02,.03-.04c.06-.05,.11-.1,.17-.15Zm-7.08,.62c-.19-.15-.37,0-.55,.02-.03,.41,.07,.51,.41,.43,.07,.07,.13,.14,.2,.21,.23-.23,.22-.44-.06-.66Zm5.86,2.33c.08-.15,.16-.3,.23-.46,.02-.05,.05-.14,.02-.17-.03-.04-.13-.08-.17-.06-.18,.1-.34,0-.5-.05-.29-.09-.4-.04-.56,.24-.12,.21-.1,.25,.13,.47,.06,.06,.13,.11,.2,.16,.08-.1,.14-.17,.2-.25,.18,.06,.29,.27,.44,.12Zm-3.23-1.69c-.09-.11-.15-.19-.2-.27-.18-.25-.39-.26-.51,.02-.09,.23-.24,.35-.46,.4-.08,.39-.03,.52,.26,.71,.04,.03,.11,.02,.17,.02,0-.06,.01-.12,0-.17,0-.04-.05-.08-.04-.12,.03-.11,.08-.22,.14-.34,.27,.11,.39-.17,.63-.26Zm4.69,.32c.1-.15,.16-.27,.25-.36,.1-.08,.17-.17,.08-.27-.06-.06-.22-.11-.28-.07-.13,.08-.29,.21-.32,.34-.04,.16,.11,.29,.27,.36Zm-.46,1.01c.35-.15,.35-.16,.37-.6q0-.28-.14-.36c-.07,.31-.15,.63-.23,.96Zm1.32-.31c0-.21,0-.38,0-.57-.22-.05-.22,.13-.27,.26-.07,.22,.08,.25,.26,.31Zm.61-1.24c-.14-.12-.24-.25-.48-.2,.05,.14,.09,.26,.14,.4,.13-.08,.21-.13,.34-.2Zm.49,.01c-.09-.2-.15-.34-.22-.5-.19,.24-.14,.37,.22,.5Z"/>
    <path class="cls-8" d="M21.19,7.12c.3-.29,.29-.38-.12-.88,.2-.17,.17-.51,.45-.64,.28,.41,.72,.61,1.13,.82,.47,.24,.96,.43,1.48,.52,.08,.01,.17,.06,.25,.09,.09,.05,.18,.13,.28,.15,.33,.06,.67,.09,1.01,.14,.46,.07,.91,.19,1.37,.21,.82,.04,1.63-.12,2.4-.39,.63-.22,1.25-.49,1.87-.74,.26-.11,.51-.27,.78-.35,.43-.11,.8-.3,1.13-.59,.26,.28,.51,.55,.77,.83,.1,.11,.09,.22-.05,.29-.24-.06-.36,.03-.29,.23,.05,.15,.17,.28,.25,.42,.1,.19,.2,.39,.28,.59,.03,.06,0,.15-.02,.3-.14-.11-.22-.18-.31-.24-.19-.13-.29-.09-.46,.06-.27,.24-.4,.52-.49,.86-.1,.38-.34,.42-.63,.15-.08-.07-.16-.16-.25-.2-.25-.12-.48-.05-.63,.19-.07,.11-.14,.23-.17,.36-.08,.36-.29,.6-.56,.83-.44,.38-1.08,.2-1.22-.36-.07-.26-.25-.41-.46-.38-.24,.04-.4,.23-.38,.5,.02,.4,.07,.79,.1,1.18,.02,.29-.11,.42-.39,.36-.14-.03-.28-.1-.38-.18-.14-.11-.19-.27-.07-.44,.04-.06,.09-.13,.13-.19,.31-.47,.15-.9-.39-1.07-.36-.12-.67-.07-.94,.19-.14,.13-.25,.12-.39-.03-.23-.25-.39-.22-.62,.04-.15,.16-.32,.3-.5,.41-.19,.12-.39,.05-.51-.14-.08-.12-.12-.26-.18-.39-.02-.04-.02-.09-.03-.13-.06-.22-.11-.51-.35-.55-.25-.04-.48,.15-.62,.37-.18,.27-.4,.46-.69,.6-.25,.12-.59,.02-.73-.2-.23-.35-.06-.76,.38-.87,.11-.03,.23-.02,.32-.07,.11-.07,.24-.18,.27-.29,.05-.16-.06-.29-.21-.37-.1-.05-.2-.1-.3-.13-.27-.1-.54-.18-.81-.28-.28-.1-.47-.28-.5-.6Zm11.66-.05s.08-.04,.12-.06c.06,.08,.14,.14,.19,.23,.03,.05,.02,.14,.06,.19,.07,.09,.17,.23,.25,.22,.17-.02,.12-.2,.08-.3-.11-.23-.24-.47-.39-.68-.25-.35-.45-.37-.76-.09-.15,.13-.3,.22-.5,.23-.21,0-.36,.12-.53,.24-.28,.2-.59,.37-.9,.53-.21,.11-.46,.16-.66,.3-.32,.21-.64,.26-1,.14-.09-.03-.2,.01-.31,.02,.02,.1,.01,.21,.05,.31,.15,.34,.09,.41-.3,.4-.1,0-.23,.01-.31,.07-.13,.09-.16,.24-.05,.38,.1,.14,.34,.18,.51,.07,.12-.08,.21-.19,.32-.29,.15-.14,.32-.18,.52-.16,.18,.02,.37,.02,.55,.01,.18,0,.37-.02,.47,.17,.1,.19-.06,.3-.19,.41-.1,.08-.15,.19-.07,.28,.06,.07,.18,.15,.26,.14,.12-.02,.28-.08,.33-.18,.13-.23,.21-.48,.29-.73,.04-.12,.03-.26,.08-.39,.06-.16,.18-.24,.36-.19,.33,.1,.41,.07,.58-.24,.07-.13,.12-.26,.19-.39,.08-.14,.21-.24,.35-.14,.07,.05,.09,.2,.09,.31,0,.13-.06,.26-.07,.39,0,.16,.1,.23,.24,.14,.1-.07,.22-.18,.24-.29,.04-.2,.02-.41,0-.61-.01-.15-.06-.29-.09-.43Zm-7.38,.6c-.14-.16-.28-.24-.43-.15-.31,.18-.56,.06-.79-.12-.28-.21-.57-.31-.92-.32-.26,0-.49-.1-.68-.3-.05-.06-.11-.1-.17-.15-.11-.1-.22-.07-.33,.01-.12,.1-.14,.21-.07,.35,.09,.2,.25,.21,.44,.2,.48-.02,.67,.09,.8,.55,.05,.17,.02,.37,.01,.55,0,.1-.06,.19-.06,.29-.01,.18,.13,.27,.24,.15,.2-.24,.41-.16,.65-.11,.26,.05,.41,.19,.49,.43,.05,.16,.1,.32,.17,.47,.03,.06,.13,.13,.19,.12,.23-.03,.35-.25,.26-.47-.04-.11-.09-.21-.15-.36,.13,0,.2,0,.28,0,.08,0,.15,.04,.23,.05,.15,.01,.28-.04,.3-.2,.02-.15-.06-.25-.22-.28-.06-.01-.13-.01-.2-.03-.14-.04-.3-.05-.34-.22-.04-.17,.07-.27,.19-.35,.03-.02,.06-.06,.1-.11Z"/>
    <g>
      <path class="cls-5" d="M20.48,7.4v.87s8.05-2.13,14.43-.17v-.88s-6.4-2-14.43,.19Z"/>
      <g>
        <path class="cls-2" d="M34.91,7.21s-1.32-.44-3.51-.69c-.21-.02-.44-.05-.67-.07-.98-.08-2.11-.13-3.35-.08h0c-.24,0-.48,.02-.73,.04-1.87,.12-3.95,.31-6.17,.98,0,0,.34-3.47,1.76-6.07,.46-1.16,7.43-1.81,10.45-.44,.98,.44,2.21,6.32,2.21,6.32Z"/>
        <path class="cls-9" d="M31.9,2.44c-.61,.57-7.72,3.98-8.31,4,1.25-.85,7.69-3.94,8.31-4Z"/>
        <path class="cls-7" d="M32.7,3.63c-.7,.51-3.32,1.84-5.31,2.75h0c-.24,0-.48,.02-.73,.04,1.96-1.05,3.97-1.98,6.04-2.78Z"/>
        <path class="cls-7" d="M22.82,4.89c2.13-1.27,4.36-2.35,6.71-3.26-.43,.5-5.94,3.17-6.71,3.26Z"/>
        <path class="cls-11" d="M22.48,3.57c1.55-1,3.19-1.8,4.95-2.4-.54,.54-3.83,2.14-4.95,2.4Z"/>
        <path class="cls-11" d="M32.75,5.64c.05-.02,.11-.02,.16-.02-.21,.14-.42,.29-.64,.42-.29,.17-.58,.33-.88,.49-.21-.02-.44-.05-.67-.07,.66-.31,1.33-.58,2.02-.82Z"/>
        <path class="cls-11" d="M32.93,5.61s0,0-.02,0c0,0,0,0,0,0h0Z"/>
      </g>
    </g>
    <line class="cls-10" x1="23.45" y1="1.72" x2="23.37" y2="1.8"/>
    <g>
      <path class="cls-3" d="M6.59,5.61c-.4,0-.76-.16-1-.44-.23-.27-.32-.63-.25-1.01,.02-.13,.09-.52,.9-2.11-.18-.04-.37-.09-.57-.14-.66-.17-1.41-.35-2.04-.35-.51,0-.88,.12-1.13,.38-.08,.1-.2,.15-.32,.15-.17,0-.31-.11-.37-.29h0s0-.02,0-.02c-.14-.59,.09-1.16,.6-1.5C2.7,.1,3.04,0,3.43,0,4.22,0,5.11,.37,5.9,.7c.31,.13,.61,.25,.88,.34,0,0,0,0,0,0,.05-.09,.09-.16,.13-.23h0c.29-.53,.67-.8,1.12-.8,.53,0,.91,.35,.93,.86,.02,.56-.44,1.18-1.33,1.32-.74,1.53-.92,2.06-.96,2.23-.02,.1,0,.15,0,.16,0,0,.03,0,.04,0,.16,0,.52-.3,.78-.86,.21-.46,.21-.79,.14-.88h-.01s0-.03,0-.03c-.07-.1-.07-.23-.02-.34,.05-.13,.17-.21,.3-.24h.01c.06,0,.12-.02,.18-.02,.59,0,.91,.54,.91,1.04,0,.47-.3,1.05-.79,1.55-.51,.51-1.1,.81-1.6,.81Z"/>
      <path class="cls-3" d="M12,3.41s0-.02-.01-.02c-.07-.13-.21-.21-.37-.21-.14,0-.24,.06-.31,.12-.01,.01-.03,.02-.04,.03,.03-.07,.06-.13,.09-.19,.06-.13,.12-.23,.15-.29,.06-.09,.08-.2,.08-.3,0-.06-.02-.12-.06-.18-.13-.23-.45-.34-.63-.34-.13,0-.25,.05-.34,.14-.13-.08-.3-.14-.54-.14-.44,0-.86,.22-1.2,.62-.06,.07-.13,.15-.18,.24-.05,.08-.1,.16-.15,.24-.16,.29-.27,.61-.32,.9-.02,.1-.03,.19-.03,.28,0,.16,.04,.3,.12,.42,.17,.28,.51,.44,.83,.44,.22,0,.45-.11,.71-.34,.22,.22,.55,.34,.73,.34,.08,0,.19,0,.45-.22,.18-.16,.44-.43,.82-.89,.04-.05,.09-.11,.14-.17,.11-.14,.14-.32,.06-.48Zm-2.06-.25c-.07,.17-.19,.4-.36,.62-.01,.02-.03,.03-.04,.05,.08-.21,.2-.44,.36-.62,.01-.02,.03-.03,.04-.04Z"/>
      <path class="cls-1" d="M2.4,.45c.25-.16,.53-.23,.85-.23,1.11,0,2.52,.82,3.49,1.09,.1-.18,.18-.34,.25-.46,.18-.32,.44-.64,.85-.64,.96,0,.85,1.48-.6,1.58-.43,.88-.96,2.02-1.06,2.45-.08,.34,.09,.55,.34,.55,.69,0,1.59-1.72,1.15-2.24-.01-.02,0-.1,.08-.11,.05,0,.1-.01,.14-.01,.42,0,.6,.41,.6,.73,0,.81-1.18,2.04-2.09,2.04-.62,0-1.05-.47-.94-1.09,.08-.44,.61-1.52,1.06-2.38-.88-.16-2.08-.58-3.08-.58-.54,0-1.02,.12-1.36,.48-.03,.03-.06,.05-.09,.05s-.05-.02-.07-.07c-.11-.47,.08-.91,.47-1.17Zm5.04,.95c.83-.06,.77-.79,.57-.79-.15,0-.3,.24-.41,.46-.05,.1-.1,.21-.16,.33Z"/>
      <path class="cls-1" d="M9.84,2.24c.34,0,.5,.14,.56,.34,.06-.1,.11-.17,.14-.23,.05-.08,.11-.11,.18-.11,.14,0,.48,.14,.35,.34-.17,.27-.83,1.72-.66,1.72,.12,0,.49-.41,.88-.83,.05-.05,.1-.08,.15-.08,.1,0,.16,.11,.08,.21-.46,.59-.98,1.17-1.16,1.17-.15,0-.65-.19-.66-.55-.27,.31-.56,.55-.79,.55-.3,0-.64-.21-.64-.55,0-.7,.65-1.98,1.57-1.98Zm-.81,2.06c.56,0,1.46-1.68,.93-1.68-.64,0-1.26,1.68-.93,1.68Z"/>
      <path class="cls-3" d="M18.56,5.17c-.9,0-1.22-.58-1.22-1.13,0-.76,.79-2.02,1.69-2.02,.67,0,.97,.44,.97,.88,0,.1-.01,.19-.03,.28,.02,0,.05,0,.08,0,.17,0,.31,.09,.38,.24,.07,.15,.05,.33-.06,.48-.52,.67-1.1,1.29-1.79,1.29Zm.12-1.09s.03,.01,.08,.01c.08,0,.17-.04,.27-.12-.1,.02-.21,.03-.32,.03-.01,0-.03,0-.04,0,0,.01,0,.02,0,.03,0,.02,0,.04,0,.04Z"/>
      <path class="cls-3" d="M16.8,5.17c-.29,0-.99-.29-.99-.86,0,0,0-.01,0-.02-.04,.06-.09,.12-.13,.18-.06,.16-.06,.23-.06,.25,0,.27-.17,.45-.45,.45-.25,0-.86-.3-.86-.86,0,0,0-.02,0-.03-.18,.24-.31,.45-.35,.55-.03,.21-.19,.34-.41,.34h-.08c-.38-.11-.78-.42-.78-.85,0-.52,.5-1.4,.91-2.05,.1-.16,.26-.25,.44-.25s.5,.11,.63,.34c.02,.04,.04,.08,.05,.12,.48-.41,.71-.46,.86-.46,.28,0,.55,.18,.68,.42,.5-.42,.71-.42,.81-.42,.41,0,.77,.37,.77,.79,0,.1-.03,.22-.11,.39,.05-.02,.11-.03,.16-.03,.16,0,.31,.09,.38,.24,.07,.15,.05,.33-.06,.48-1.02,1.28-1.27,1.28-1.42,1.28Z"/>
      <path class="cls-3" d="M26.57,3.88c-.16,.2-.3,.37-.42,.52-.27,.31-.46,.49-.6,.6h0c-.21,.17-.31,.17-.38,.17-.29,0-.96-.29-.96-.86,0-.21,.07-.47,.22-.8-.09,.12-.19,.25-.3,.38,0,0,0,0,0,0h0c-.12,.15-.26,.18-.36,.18-.13,0-.25-.06-.33-.15-.03-.03-.05-.07-.07-.1-.03-.06-.04-.12-.04-.18,0-.1,.04-.2,.1-.28h0c.09-.1,.18-.21,.26-.3,.03-.03,.05-.06,.07-.09-.04-.05-.08-.1-.11-.16-.04-.07-.07-.16-.1-.24,0-.02-.01-.04-.01-.06-.03-.13,0-.25,.07-.35,.07-.1,.19-.16,.31-.16,.02,0,.05,0,.07,0h.02s.01,0,.02,0c.06,0,.25,.01,.57,.01h.04c.27,0,.55,0,.73,0,.02,0,.04,0,.05,0,.07,0,.12,0,.14,0,.18,0,.5,.11,.63,.34,.08,.15,.08,.32-.02,.48-.05,.09-.15,.27-.24,.48,.06-.05,.18-.15,.34-.15s.31,.09,.38,.24c.07,.15,.05,.33-.06,.48Z"/>
      <path class="cls-3" d="M21.73,5.17c-.9,0-1.22-.58-1.22-1.13,0-.79,.84-2.02,1.96-2.02,.68,0,.97,.34,1.08,.54,.1,.18,.15,.39,.14,.62,.04-.01,.08-.02,.12-.02,.16,0,.31,.09,.38,.24,.07,.15,.05,.33-.06,.47-.27,.37-.57,.7-1.14,.76-.36,.34-.8,.53-1.25,.53Zm.85-2.15s-.22,.1-.22,.34c0,.09,.04,.16,.11,.21,.14-.25,.18-.48,.15-.55,0,0-.02,0-.04,0Z"/>
      <path class="cls-1" d="M12.82,4.23c0-.52,.68-1.59,.86-1.88,.05-.08,.11-.11,.18-.11,.14,0,.48,.14,.35,.34-.1,.15-.36,.68-.54,1.2,.4-.57,1.36-1.54,1.72-1.54,.24,0,.46,.23,.46,.48,0,.08-.06,.23-.14,.41,.44-.46,.92-.89,1.17-.89s.46,.23,.46,.48c0,.27-.7,1.37-.7,1.54,0,.03,.01,.05,.04,.05,.12,0,.49-.41,.88-.83,.05-.05,.1-.08,.15-.08,.1,0,.16,.11,.08,.21-.46,.59-.98,1.17-1.18,1.17-.15,0-.68-.2-.68-.55s.83-1.45,.61-1.45c-.21,0-.93,.89-1.32,1.47-.06,.16-.1,.29-.1,.4,0,.08-.02,.14-.14,.14-.1,0-.55-.2-.55-.55s.83-1.45,.61-1.45c-.28,0-1.54,1.67-1.57,1.91,0,.07-.03,.09-.1,.09-.21-.05-.55-.25-.55-.54Z"/>
      <path class="cls-3" d="M18.38,7.06c-.85,0-1.29-.75-1.32-1.13h0c0-.14,.03-.27,.12-.37,.07-.08,.18-.13,.28-.13,.16,0,.3,.1,.37,.26h0c.03,.08,.15,.16,.3,.16,.16,0,.51-.18,1.07-1.39,.1-.22,.2-.47,.31-.74,.22-.53,.44-1.07,.68-1.45,.07-.11,.18-.19,.31-.23-.05-.1-.05-.21-.02-.31,.02-.05,.19-.56,.31-.79h0c.1-.19,.28-.29,.5-.29,.28,0,.6,.18,.73,.41,.08,.15,.08,.31-.01,.45-.07,.11-.2,.28-.32,.44-.08,.11-.18,.24-.21,.29h0c-.04,.06-.09,.11-.15,.14,.07,.15,.06,.31-.03,.46-.18,.29-.47,.93-.84,1.86-.64,1.61-1.3,2.35-2.08,2.35Z"/>
      <path class="cls-1" d="M18.83,2.24c.47,0,.66,.28,.66,.57,0,.55-.49,.79-.98,.79-.1,0-.19,0-.28-.03-.04,.12-.07,.25-.07,.37,0,.13,.05,.36,.4,.36,.37,0,.75-.41,1.13-.83,.05-.05,.1-.08,.15-.08,.1,0,.16,.11,.08,.21-.46,.59-.98,1.17-1.55,1.17-.8,0-.92-.52-.92-.82,0-.59,.68-1.71,1.38-1.71Zm-.33,1.04c.34,0,.68-.14,.68-.49,0-.09-.04-.16-.14-.16-.19,0-.48,.29-.67,.65,.05,0,.09,0,.14,0Z"/>
      <path class="cls-1" d="M17.94,6.07c.5,0,.95-.7,1.35-1.57,.3-.65,.63-1.61,.98-2.15,.05-.08,.13-.11,.23-.11,.14,0,.48,.14,.35,.34-.25,.4-.62,1.3-.87,1.91-.45,1.13-1.05,2.16-1.79,2.16-.68,0-.99-.62-1.01-.85,0-.1,.05-.16,.1-.16,.03,0,.06,.02,.08,.07,.08,.2,.32,.35,.58,.35Zm3.02-4.05c-.14,0-.41-.14-.36-.27,.02-.06,.19-.55,.29-.75,.05-.09,.13-.12,.23-.12,.24,0,.55,.24,.46,.38-.12,.19-.45,.59-.53,.72-.01,.02-.04,.03-.08,.03Z"/>
      <path class="cls-1" d="M22.28,2.24c1.04,0,1.09,.94,.64,1.67,.13-.03,.25-.1,.34-.2,.12-.14,.16-.19,.21-.24,.05-.05,.1-.08,.15-.08,.1,0,.16,.11,.08,.21-.28,.38-.52,.63-1.03,.65-.29,.31-.68,.52-1.11,.52-.8,0-.92-.52-.92-.82,0-.59,.68-1.71,1.65-1.71Zm-.53,2.06c.12,0,.25-.05,.38-.14-.32-.14-.57-.41-.6-.83-.1,.21-.17,.42-.17,.61,0,.13,.05,.36,.4,.36Zm.65-1.68c-.18,0-.53,.22-.53,.65,0,.3,.23,.53,.52,.62,.39-.5,.57-1.26,0-1.26Z"/>
      <path class="cls-1" d="M23.57,3.67c-.1,0-.18-.11-.1-.2,.22-.25,.43-.51,.59-.7h-.08c-.2,0-.31-.29-.34-.42-.02-.08,.03-.13,.08-.13,0,0,.01,0,.02,0,.04,.01,.36,.02,.69,.02,.41,0,.85,0,.92,0,.14,0,.48,.14,.35,.34-.17,.27-.83,1.72-.66,1.72,.12,0,.49-.41,.88-.83,.05-.05,.1-.08,.15-.08,.1,0,.16,.11,.08,.21-.46,.59-.98,1.17-1.16,1.17-.15,0-.66-.2-.66-.55,0-.38,.35-1.03,.61-1.47-.2,0-.41,.01-.59,.01-.16,.21-.4,.53-.65,.84-.04,.05-.08,.07-.12,.07Z"/>
    </g>
    <g>
      <path class="cls-1" d="M12.98,11.41c-1.54,0-2.5-.88-2.5-2.31,0-.72,.38-1.71,.97-2.52,.41-.57,1.28-1.52,2.44-1.52,1.37,0,2,.94,2,1.81,0,.15-.01,.29-.04,.43,0,0,.01,0,.02,0,.36,0,.68,.2,.84,.52,.16,.33,.11,.73-.14,1.04-1.03,1.33-2.18,2.55-3.59,2.55Z"/>
      <path class="cls-1" d="M4.77,11.41c-.35,0-.98-.19-1.44-.62-.49,.41-.95,.62-1.38,.62-.94,0-1.95-.68-1.95-1.79,0-.85,.39-1.97,.98-2.84,.76-1.11,1.75-1.73,2.8-1.73,.41,0,.76,.08,1.04,.25,.19-.16,.43-.25,.68-.25,.38,0,1.05,.22,1.32,.72,.18,.32,.16,.71-.04,1.03-.07,.11-.18,.33-.31,.6,.14-.07,.28-.1,.43-.1,.36,0,.68,.2,.83,.52,.16,.33,.11,.73-.14,1.04-.86,1.09-1.51,1.8-1.99,2.19-.42,.34-.65,.36-.83,.36Z"/>
      <path class="cls-1" d="M9.56,11.41c-.59,0-1.99-.61-1.99-1.79,0-.28,.06-.6,.19-.97-.05,.07-.11,.14-.17,.21h-.01c-.27,.33-.57,.4-.78,.4-.38,0-.72-.22-.88-.55-.15-.33-.1-.71,.14-.99h0c.21-.25,.43-.5,.6-.7-.27-.34-.37-.74-.4-.88-.07-.28-.01-.56,.15-.78,.17-.22,.42-.34,.69-.34,.05,0,.09,0,.14,.01h.05s.01,.02,.02,.02c.12,0,.49,.02,1.18,.02,.57,0,1.19,0,1.52-.01,.14,0,.23,0,.27,0,.38,0,1.05,.22,1.32,.72,.18,.32,.16,.71-.04,1.03-.07,.11-.18,.33-.31,.6,.14-.07,.28-.1,.43-.1,.36,0,.68,.2,.84,.52,.16,.33,.11,.73-.14,1.04-1.99,2.55-2.55,2.55-2.83,2.55Z"/>
      <path class="cls-1" d="M14.32,15.1l-.09-.02c-.54-.14-1.57-.69-1.57-1.74,0-.43,.2-1.31,1.74-4.39,.82-1.64,1.64-3.13,1.68-3.19v-.02s.02-.02,.02-.02c.35-.56,.72-.68,1.2-.68,.35,0,.78,.13,1.06,.43,.43-.29,.83-.43,1.2-.43,.7,0,1.1,.32,1.31,.59,.25,.32,.38,.74,.38,1.25,0,.82-.35,1.9-.92,2.82-.39,.63-1.2,1.69-2.21,1.69-.57,0-1.1-.2-1.53-.57-1.13,2.63-1.26,3.3-1.28,3.45-.05,.49-.4,.81-.9,.81h-.09Z"/>
      <path class="cls-1" d="M12.13,15.37c-.84,0-1.64-.25-2.24-.69-.73-.54-1.11-1.31-1.11-2.22,0-.09,0-.29,.04-.5,.14-.8,.7-.86,.87-.86,.24,0,.48,.1,.67,.3h.01c.46,.5,1.16,.73,2.15,.73,3,0,5.67-.41,8.03-.77,.14-.02,.27-.04,.4-.06-.7-.23-1.29-.83-1.29-1.68s.39-1.97,.98-2.84c.76-1.11,1.75-1.73,2.8-1.73,.41,0,.76,.08,1.05,.24,.19-.16,.43-.24,.68-.24,.38,0,1.05,.22,1.32,.72,.18,.32,.16,.71-.04,1.03-.24,.39-1.09,2.25-1.23,2.86-.07,.35-.11,.68-.11,.96,0,.06,0,.11,0,.17,.1,0,.21,0,.31,0,.82,0,1.51,.22,2.01,.65,.47,.41,.74,.96,.74,1.57,0,.98-.75,2.03-2.15,2.03-1.16,0-2.18-.61-2.84-1.68-.84,.18-1.72,.4-2.64,.64-2.51,.64-5.34,1.37-8.41,1.37Z"/>
      <path class="cls-3" d="M4.77,11.15c-.35,0-1.03-.25-1.43-.72-.51,.48-.98,.72-1.4,.72-.81,0-1.68-.58-1.68-1.52,0-.8,.37-1.86,.94-2.69,.71-1.04,1.63-1.61,2.58-1.61,.5,0,.84,.14,1.08,.32,.17-.21,.39-.32,.65-.32,.31,0,.87,.18,1.09,.58,.13,.24,.12,.52-.03,.76-.18,.29-.57,1.13-.88,1.86,.22-.24,.44-.48,.59-.65h0s0-.02,0-.02c.07-.07,.29-.29,.61-.29,.26,0,.49,.14,.6,.37,.12,.24,.08,.53-.11,.76-1.94,2.45-2.4,2.45-2.62,2.45Zm-.87-4.18c-.17,.06-.37,.23-.57,.48-.45,.57-.74,1.34-.84,1.78,.16-.11,.37-.31,.62-.64,.51-.67,.75-1.33,.79-1.62Z"/>
      <path class="cls-3" d="M9.56,11.15c-.5,0-1.72-.53-1.72-1.52,0-.55,.28-1.32,.87-2.41-.06,0-.11,0-.17,0-.04,.05-.08,.11-.12,.16-.29,.38-.65,.85-1.02,1.32h0c-.2,.25-.42,.3-.57,.3-.27,0-.53-.16-.64-.4-.11-.23-.07-.51,.1-.71h0c.26-.3,.52-.61,.75-.88-.28-.25-.44-.65-.5-.92-.05-.2-.01-.4,.11-.56,.12-.15,.29-.24,.48-.24,.04,0,.08,0,.11,.01h0s.03,0,.04,.01c.11,.01,.51,.03,1.24,.03,.58,0,1.2,0,1.53-.01,.14,0,.23,0,.26,0,.31,0,.87,.18,1.09,.58,.13,.24,.12,.52-.03,.76-.18,.29-.57,1.13-.88,1.86,.22-.24,.44-.48,.59-.65h0s0-.02,0-.02c.07-.07,.29-.29,.6-.29,.26,0,.49,.14,.6,.37,.11,.24,.07,.53-.11,.76-1.91,2.46-2.43,2.46-2.62,2.46Z"/>
      <path class="cls-3" d="M12.98,11.15c-1.4,0-2.23-.76-2.23-2.04,0-.67,.36-1.6,.92-2.37,.39-.53,1.19-1.42,2.22-1.42,1.2,0,1.74,.78,1.74,1.55,0,.3-.06,.58-.18,.83,.11-.07,.25-.14,.42-.14,.26,0,.49,.14,.6,.37,.11,.24,.07,.53-.11,.76-.99,1.28-2.09,2.46-3.38,2.46Zm.07-2.29c-.01,.08-.02,.16-.02,.24,0,.17,.05,.27,.34,.27,.37,0,.81-.37,1.26-.82-.38,.21-.85,.32-1.35,.32-.08,0-.15,0-.22,0Z"/>
      <path class="cls-3" d="M14.36,14.84h-.06c-.47-.14-1.37-.61-1.37-1.5,0-.37,.18-1.21,1.71-4.27,.83-1.65,1.67-3.17,1.67-3.18h0s0-.02,0-.02c.29-.47,.56-.55,.97-.55,.33,0,.77,.15,.97,.48,.01,.02,.02,.04,.03,.06,.4-.3,.84-.53,1.26-.53,.6,0,.93,.27,1.11,.49,.21,.27,.32,.64,.32,1.09,0,.77-.34,1.8-.88,2.69-.36,.59-1.1,1.57-1.99,1.57-.64,0-1.22-.29-1.61-.77-.88,2.02-1.41,3.45-1.45,3.9-.04,.36-.27,.57-.64,.57h-.06Zm2.96-5.87c.03,.18,.11,.36,.23,.39,.12-.08,.45-.44,.85-1.2,.19-.37,.32-.69,.41-.94-.14,.12-.32,.29-.54,.54-.38,.42-.73,.89-.95,1.21Z"/>
      <path class="cls-6" d="M13.67,5.59c.92,0,1.3,.55,1.3,1.11,0,1.07-.95,1.55-1.91,1.55-.19,0-.37-.01-.55-.05-.08,.24-.13,.49-.13,.72,0,.25,.11,.71,.78,.71,.72,0,1.46-.8,2.21-1.63,.11-.11,.2-.16,.29-.16,.2,0,.31,.21,.15,.41-.9,1.15-1.93,2.29-3.04,2.29-1.57,0-1.79-1.02-1.79-1.61,0-1.16,1.32-3.34,2.7-3.34Zm-.64,2.03c.66,0,1.32-.27,1.32-.96,0-.17-.08-.32-.28-.32-.37,0-.94,.58-1.31,1.27,.09,.01,.17,.01,.27,.01Z"/>
      <path class="cls-6" d="M13.15,13.17c0-1.2,3.33-7.24,3.33-7.24,.2-.32,.31-.35,.6-.35s.78,.2,.59,.56c-.12,.23-.31,.63-.54,1.11,.67-.86,1.58-1.67,2.21-1.67,2.29,0,.09,4.95-1.44,4.95-.86,0-1.44-.63-1.65-1.35-.87,1.95-1.79,4.17-1.86,4.87-.01,.13-.07,.17-.2,.17-.4-.11-1.04-.48-1.04-1.06Zm3.49-4.48c.03,.47,.27,.94,.72,.94,.68,0,2.26-3.29,1.61-3.29-.56,0-1.86,1.61-2.33,2.35Z"/>
      <path class="cls-3" d="M12.13,15.11c-.79,0-1.53-.23-2.08-.64-.66-.49-1.01-1.18-1.01-2.01,0-.08,0-.27,.03-.45,.1-.58,.46-.64,.61-.64,.17,0,.34,.07,.48,.22h0c.51,.55,1.27,.81,2.34,.81,3.02,0,5.7-.41,8.07-.77,.74-.11,1.44-.22,2.13-.31-.03-.2-.05-.39-.07-.59-.38,.29-.73,.43-1.04,.43-.81,0-1.68-.58-1.68-1.52,0-.8,.37-1.86,.94-2.69,.71-1.04,1.63-1.61,2.58-1.61,.51,0,.85,.13,1.08,.31,.17-.2,.39-.31,.64-.31,.31,0,.87,.18,1.09,.58,.13,.24,.12,.52-.03,.76-.26,.41-1.12,2.31-1.27,2.95-.07,.37-.11,.71-.11,1.02,0,.15,0,.3,.03,.44,.18,0,.37-.01,.55-.01,.75,0,1.39,.2,1.83,.59,.41,.36,.64,.84,.64,1.37,0,.85-.66,1.76-1.89,1.76-1.13,0-2.1-.62-2.7-1.71-.9,.18-1.85,.43-2.85,.68-2.49,.64-5.31,1.36-8.34,1.36Zm13.57-2.42c.13,.09,.27,.13,.41,.13,.09,0,.13-.04,.14-.06-.03-.02-.13-.08-.36-.08-.06,0-.12,0-.18,0Zm-2.14-5.72c-.17,.06-.37,.23-.57,.48-.45,.57-.74,1.34-.84,1.78,.16-.11,.37-.31,.62-.64,.51-.67,.75-1.33,.79-1.62Z"/>
      <path class="cls-6" d="M9.46,11.63c.05,0,.11,.03,.17,.09,.66,.7,1.61,.94,2.66,.94,4.17,0,7.63-.76,10.73-1.15-.11-.44-.16-.9-.16-1.34,0-.23,.01-.45,.04-.67-.52,.58-1.08,1.03-1.51,1.03-.59,0-1.24-.41-1.24-1.08,0-1.36,1.27-3.87,3.08-3.87,.67,0,.99,.28,1.1,.66,.12-.19,.21-.33,.28-.44,.09-.15,.21-.21,.35-.21,.28,0,.94,.27,.68,.67-.27,.43-1.16,2.37-1.32,3.09-.08,.4-.12,.78-.12,1.11s.04,.63,.11,.91c.31-.03,.62-.04,.91-.04,2.7,0,2.53,2.84,.59,2.84-1.18,0-2.01-.76-2.46-1.77-3.26,.62-7.12,2.1-11.42,2.1-1.32,0-2.65-.74-2.65-2.21,0-.13,0-.66,.2-.66Zm12.19-2.01c1.1,0,2.86-3.29,1.82-3.29-1.26,0-2.46,3.29-1.82,3.29Zm2.96,2.54c.32,.58,.79,.92,1.28,.92,.71,0,.91-1.02-.23-1.02-.35,0-.71,.04-1.06,.09Z"/>
      <path class="cls-6" d="M3.56,5.59c.67,0,.98,.28,1.1,.66,.12-.19,.21-.33,.28-.44,.09-.15,.21-.21,.35-.21,.28,0,.94,.27,.68,.67-.33,.54-1.62,3.37-1.3,3.37,.23,0,.96-.8,1.71-1.63,.11-.11,.2-.16,.29-.16,.19,0,.31,.21,.15,.41-.91,1.15-1.93,2.29-2.27,2.29-.29,0-1.27-.37-1.28-1.07-.52,.6-1.1,1.07-1.54,1.07-.59,0-1.24-.41-1.24-1.08,0-1.36,1.27-3.87,3.08-3.87Zm-1.58,4.04c1.1,0,2.86-3.29,1.82-3.29-1.26,0-2.46,3.29-1.82,3.29Z"/>
      <path class="cls-6" d="M6.58,8.38c-.2,0-.35-.21-.2-.39,.43-.48,.84-.99,1.16-1.38h-.16c-.39,0-.6-.56-.66-.82-.04-.15,.05-.25,.16-.25,.01,0,.03,.01,.04,.01,.08,.03,.7,.04,1.35,.04,.8,0,1.67-.01,1.79-.01,.28,0,.94,.27,.68,.67-.33,.54-1.62,3.37-1.3,3.37,.23,0,.96-.8,1.71-1.63,.11-.11,.2-.16,.29-.16,.2,0,.31,.21,.15,.41-.9,1.15-1.93,2.29-2.27,2.29-.29,0-1.28-.39-1.28-1.08,0-.74,.68-2.01,1.19-2.88-.39,.01-.8,.03-1.15,.03-.31,.4-.78,1.03-1.27,1.65-.08,.09-.16,.13-.24,.13Z"/>
    </g>
  </g>
</svg>