<?xml version="1.0" encoding="UTF-8"?>
<svg id="Capa_2" data-name="Capa 2" xmlns="http://www.w3.org/2000/svg" viewBox="0 0 39.56 17.42">
  <defs>
    <style>
      .cls-1 {
        fill: #f3e3e3;
      }

      .cls-2 {
        fill: #dac64a;
      }

      .cls-3 {
        fill: #b97b7c;
      }

      .cls-4 {
        fill: #dcc150;
      }

      .cls-5 {
        fill: #40391c;
      }

      .cls-6 {
        fill: #fcc329;
      }

      .cls-7 {
        fill: #40391b;
      }

      .cls-8 {
        fill: none;
      }

      .cls-9 {
        fill: #413a1c;
      }

      .cls-10 {
        fill: #f5ffff;
        font-family: Poppins-SemiBold, Poppins;
        font-size: 1.55px;
        letter-spacing: .26em;
      }

      .cls-11 {
        fill: #936525;
      }
    </style>
  </defs>
  <g id="Capa_1-2" data-name="Capa 1">
    <text class="cls-10" transform="translate(35.54 2.2) scale(1.04 1)"><tspan x="0" y="0">®</tspan></text>
    <path class="cls-1" d="M39.35,1.2c.05,.03,.09,.07,.12,.12s.04,.11,.04,.17-.01,.12-.04,.17-.07,.09-.12,.12c-.05,.03-.11,.04-.18,.04s-.12-.01-.18-.04c-.05-.03-.09-.07-.12-.12-.03-.05-.04-.1-.04-.17s.01-.12,.04-.17c.03-.05,.07-.09,.12-.12,.05-.03,.11-.04,.18-.04s.12,.01,.18,.04Zm0,.47s.07-.11,.07-.18-.02-.14-.07-.18c-.05-.05-.11-.07-.19-.07s-.14,.02-.19,.07c-.05,.05-.07,.11-.07,.18s.02,.13,.07,.18c.05,.04,.11,.07,.19,.07s.14-.02,.19-.07Zm-.05-.18s-.03,.03-.05,.04l.08,.13h-.13l-.07-.12h0v.12h-.11v-.33h.17s.07,0,.09,.03,.03,.05,.03,.08c0,.02,0,.04-.02,.06Zm-.17-.03h.05s.01,0,.02,0c0,0,0-.01,0-.02,0-.02,0-.02-.03-.02h-.05v.05Z"/>
    <path class="cls-2" d="M23.21,9.29s6.95,1.38,16.35,0l-.53,2.66h-15.14l-.68-2.66Z"/>
    <path class="cls-11" d="M34.07,7.91c.19-.13,.39-.11,.57-.02,.32,.17,.61,.02,.88-.1,.2-.09,.35-.23,.58-.13,.02,0,.07,.02,.07,.01,.18-.3,.51-.16,.75-.22,.08-.16,.14-.3,.23-.49,.1,.15,.16,.23,.23,.34,.08-.08,.14-.14,.23-.23,.24,.19,.38,.04,.58-.14,.24-.2,.27-.4,.24-.67,0-.08,.03-.17,.05-.25,.07,.06,.14,.11,.21,.17-.03,.3-.07,.6-.11,.94,.08-.03,.14-.06,.22-.07,.07-.01,.17-.02,.19,.02,.03,.04,.03,.15,0,.2-.12,.2-.25,.39-.38,.59h0s-.08,.04-.13,.05c-.04,0-.07,.02-.11,.02l-.1,.18c-.22-.05-.44-.31-.7,0,.14,.13,.26,.28,.41,.38,.07,.05,.2,.02,.31,.03,.15,.08,.23,.17,.14,.36-.06,.12-.08,.26-.12,.4l-.41-.26c-.06-.18-.02-.46-.28-.47-.31,0-.54-.15-.79-.29-.04-.02-.1,0-.18,0,.26,.28,.44,.59,.82,.65,.03,0,.06,.05,.08,.07-.03,.12-.03,.24-.18,.33-.1,.06-.13,.21-.2,.33-.06,.1-.12,.2-.18,.3-.03-.04-.06-.08-.08-.12h0s-.07-.05-.11-.08c-.03-.07-.05-.14-.09-.2-.04-.05-.1-.09-.15-.14-.04,.06-.1,.11-.11,.17-.06,.32,0,.38,.39,.37,.02,.05,.05,.11,.07,.16-.18,0-.33,.03-.43,.21-.04,.07-.15,.1-.23,.15,.05-.12,.11-.23,.19-.4-.37,.03-.46-.18-.5-.47-.26,.32-.03,.64-.22,.97,.23-.04,.37-.06,.51-.09-.11,.13-.34,.19-.27,.43h0c-.37-.18-.71,.01-.71,.42,0,.21-.04,.31-.3,.24,.04-.14,.07-.27,.11-.41-.06-.02-.12-.06-.17-.05-.22,.04-.42,.06-.53-.2-.01-.03-.17-.03-.25,0-.06,.02-.1,.1-.14,.16-.37-.08-.39-.08-.56,.24-.15,.28-.27,.58-.41,.87-.04,.08-.12,.16-.2,.2-.03,.01-.13-.08-.18-.14-.12-.16-.23-.34-.35-.51-.03-.05-.1-.11-.14-.11-.28,.03-.39-.19-.55-.33-.08-.07-.19-.15-.28-.15-.26-.02-.52-.01-.77,.02-.09,.01-.17,.13-.26,.19-.12,.08-.24,.14-.37,.21-.05-.12-.11-.24-.16-.35-.06-.13-.11-.27-.17-.4,.01-.02,.03-.03,.04-.05,.24,0,.33-.14,.32-.36-.05-.34-.09-.37-.47-.34-.14,.23-.26,.43-.39,.61-.12,.17-.03,.25,.1,.32-.05,.12-.11,.25-.16,.37-.09,.22-.24,.25-.44,.16-.07-.28,.46-.43,.11-.74-.06,.03-.13,.05-.19,.09-.21,.1-.39,.07-.54-.1-.04-.05-.08-.1-.13-.13-.11-.07-.22-.14-.33-.21-.06,.11-.13,.22-.19,.33-.04,.07-.06,.18-.12,.22-.07,.04-.18,.02-.27,.03,0-.09-.03-.22,.01-.25,.21-.17,.13-.32,.01-.49-.08-.11-.16-.22-.23-.34-.1-.16-.21-.25-.39-.08-.03,.03-.1,.07-.13,.06-.3-.17-.49,.01-.72,.18-.17,.12-.35,0-.55-.26,.22-.07,.44-.13,.66-.21,.04-.02,.09-.09,.09-.14,0-.05-.07-.11-.11-.12-.16-.02-.33,0-.48-.02-.24-.04-.48-.09-.71-.17-.05-.02-.06-.16-.09-.24,.08,0,.16-.02,.24-.01,.03,0,.06,.05,.09,.06,.1,.03,.25,.1,.29,.06,.14-.12-.01-.21-.09-.3-.02-.07-.02-.14-.05-.21-.1-.24-.08-.29,.16-.39,.02,0,.06,0,.07-.02,.05-.07,.11-.14,.15-.22,.01-.02-.05-.11-.07-.11-.09,.01-.19,.03-.26,.08-.07,.05-.11,.14-.14,.21-.07,.14-.13,.29-.2,.44-.06,.04-.12,.1-.19,.12-.18,.07-.31-.02-.34-.21-.02-.1-.02-.2-.04-.29,.1-.02,.2-.05,.3-.07-.04-.09-.09-.19-.11-.28-.03-.09-.03-.18-.05-.27,.03-.15,.06-.3,.09-.44-.05-.07-.08-.16-.14-.2-.1-.07-.22-.12-.35-.19,.34-.32,.61-.32,.84-.01,.1,.13,.15,.07,.24,.04-.02,.09-.05,.18-.08,.28,.11,.01,.18,.02,.25,.03,.05,.21-.34,.21-.17,.49,.16-.16,.32-.35,.51-.15,.23,.23,.51,.45,.39,.84q.6,.01,.72-.09-.49-.48-.4-.79c.1,.14,.19,.29,.3,.43,.11,.14,.22,.27,.35,.39,.06,.05,.16,.06,.25,.09,.02-.09,.06-.19,.05-.27-.02-.09-.09-.18-.13-.27-.05-.1-.09-.19-.14-.3,.22-.16,.59-.08,.62-.43,.09-.15,.21-.19,.37-.12,.12,.05,.23,.1,.15,.26h0s-.03,0-.03,0c0,.02,0,.04-.01,.06,.02,.14,.03,.28,.05,.42,0,.03,0,.06,.01,.09-.14,0-.28,0-.41,.02-.28,.05-.3,.18-.15,.42,.25,.37,.98,.45,1.24-.01,.17-.31,.27-.32,.61-.16,.16,.07,.3,.1,.45,0,.03-.12,.06-.24,.1-.4,.4,.17,.78,.33,1.17,.49-.18,.15-.36,.3-.56,.46,.17,.31,.52,.38,.81,.53-.02,.04-.03,.07-.04,.1-.01,.03-.02,.06-.03,.12,.73,.07,1.39,.03,1.86-.62,.16-.22,.38-.31,.65-.3,.09,0,.17,0,.26,0l.09-.11s.03-.03,.04-.05c.06-.06,.13-.11,.19-.17Zm-8.02,.7c-.22-.17-.42,.01-.62,.02-.04,.46,.08,.58,.46,.49,.07,.08,.15,.16,.22,.24,.27-.26,.24-.5-.07-.75Zm6.64,2.64c.09-.17,.18-.34,.26-.52,.03-.06,.05-.15,.03-.2-.03-.05-.15-.09-.19-.07-.21,.11-.38,0-.57-.05-.33-.1-.45-.04-.63,.28-.13,.23-.12,.29,.15,.53,.07,.06,.15,.12,.23,.19,.09-.11,.16-.2,.23-.29,.2,.06,.33,.31,.5,.13Zm-3.66-1.92c-.1-.13-.17-.21-.23-.3-.2-.29-.44-.29-.57,.03-.11,.26-.27,.4-.52,.46-.09,.44-.04,.59,.3,.8,.05,.03,.13,.02,.2,.03,0-.07,.01-.13,0-.19,0-.05-.06-.1-.05-.13,.04-.13,.1-.25,.15-.39,.31,.12,.44-.2,.72-.3Zm5.31,.36c.11-.16,.18-.31,.29-.4,.11-.1,.2-.2,.09-.31-.07-.07-.25-.12-.32-.08-.15,.09-.33,.23-.36,.39-.04,.18,.13,.32,.31,.4Zm-.52,1.15c.4-.17,.4-.18,.42-.68q0-.32-.16-.4c-.08,.35-.17,.71-.26,1.09Zm1.5-.35c0-.24,0-.43,0-.65-.25-.06-.25,.15-.3,.3-.08,.25,.09,.29,.29,.35Zm.69-1.41c-.16-.14-.27-.29-.54-.23,.05,.15,.1,.29,.16,.46,.14-.09,.24-.15,.38-.23Zm.56,.01c-.1-.23-.17-.39-.25-.57-.22,.27-.16,.42,.25,.57Z"/>
    <path class="cls-6" d="M24.01,8.07c.35-.33,.33-.43-.13-.99,.23-.2,.19-.58,.51-.72,.31,.46,.81,.69,1.28,.93,.53,.27,1.08,.49,1.68,.59,.1,.02,.19,.06,.28,.1,.11,.06,.21,.15,.32,.17,.38,.07,.76,.1,1.14,.16,.52,.08,1.03,.21,1.55,.24,.93,.04,1.84-.14,2.72-.45,.72-.25,1.42-.55,2.12-.84,.3-.12,.58-.31,.89-.39,.48-.13,.91-.34,1.28-.67,.29,.31,.58,.62,.87,.94,.11,.13,.1,.24-.06,.33-.28-.06-.41,.03-.33,.26,.06,.17,.19,.31,.28,.48,.12,.22,.23,.44,.32,.67,.03,.07-.01,.17-.03,.34-.16-.13-.25-.2-.35-.27-.21-.15-.33-.1-.52,.07-.3,.27-.45,.59-.55,.98-.11,.43-.39,.48-.72,.17-.09-.08-.18-.18-.29-.23-.28-.14-.54-.05-.71,.22-.08,.13-.16,.26-.19,.4-.09,.4-.33,.69-.63,.94-.5,.43-1.22,.22-1.38-.4-.08-.3-.28-.47-.52-.43-.28,.05-.45,.26-.43,.57,.03,.45,.07,.89,.11,1.34,.03,.33-.12,.48-.44,.41-.15-.03-.31-.11-.43-.21-.15-.13-.21-.31-.08-.5,.05-.07,.1-.15,.15-.22,.35-.53,.17-1.02-.45-1.21-.41-.13-.76-.08-1.07,.22-.16,.15-.28,.14-.44-.03-.26-.28-.44-.25-.71,.04-.17,.18-.36,.34-.57,.47-.22,.13-.44,.06-.58-.16-.09-.14-.14-.29-.2-.44-.02-.05-.02-.1-.03-.15-.07-.25-.12-.58-.4-.62-.28-.04-.54,.17-.71,.42-.2,.3-.46,.53-.78,.68-.28,.13-.67,.03-.83-.22-.26-.4-.06-.86,.43-.98,.12-.03,.26-.02,.36-.08,.13-.08,.27-.2,.31-.33,.06-.18-.07-.33-.24-.42-.11-.06-.22-.11-.34-.15-.3-.11-.61-.2-.91-.32-.31-.12-.53-.32-.56-.68Zm13.22-.06s.09-.04,.13-.07c.07,.08,.15,.16,.21,.26,.04,.06,.03,.16,.07,.21,.08,.1,.2,.26,.28,.24,.19-.03,.14-.23,.09-.33-.13-.27-.27-.53-.44-.77-.29-.4-.51-.42-.86-.1-.17,.15-.34,.25-.56,.26-.24,0-.41,.13-.6,.27-.32,.23-.67,.42-1.02,.6-.24,.13-.52,.19-.75,.33-.37,.24-.73,.29-1.14,.15-.1-.03-.23,.01-.35,.02,.02,.12,.01,.24,.06,.35,.16,.39,.1,.47-.34,.45-.12,0-.26,.01-.35,.08-.15,.11-.18,.27-.06,.43,.12,.16,.39,.2,.58,.07,.13-.09,.24-.22,.36-.33,.17-.15,.36-.2,.59-.18,.21,.02,.42,.02,.63,.02,.2,0,.42-.02,.53,.19,.11,.22-.07,.34-.22,.46-.11,.09-.17,.21-.08,.32,.07,.08,.21,.17,.3,.16,.13-.02,.31-.1,.37-.2,.14-.26,.23-.54,.33-.82,.05-.14,.04-.3,.09-.44,.07-.18,.2-.27,.41-.21,.37,.11,.47,.07,.65-.27,.08-.14,.13-.3,.21-.44,.09-.16,.23-.27,.4-.16,.08,.05,.11,.23,.11,.35,0,.15-.07,.29-.07,.44,0,.19,.12,.26,.27,.16,.12-.08,.25-.21,.27-.33,.04-.22,.02-.46,0-.7-.01-.16-.07-.33-.1-.49Zm-8.36,.67c-.15-.18-.32-.27-.49-.17-.35,.2-.63,.07-.9-.13-.31-.24-.65-.35-1.04-.36-.29,0-.56-.11-.77-.34-.06-.06-.13-.12-.2-.17-.13-.11-.25-.08-.37,.01-.14,.11-.16,.24-.08,.4,.11,.22,.28,.24,.5,.23,.55-.03,.76,.11,.91,.62,.06,.19,.02,.42,.01,.63,0,.11-.06,.22-.07,.33-.01,.2,.15,.31,.28,.17,.23-.27,.47-.18,.74-.13,.29,.06,.47,.21,.56,.49,.06,.18,.11,.36,.19,.53,.03,.07,.15,.14,.22,.14,.26-.03,.39-.28,.3-.53-.05-.12-.1-.24-.17-.41,.15,0,.23,0,.31,0,.09,.01,.17,.05,.26,.06,.17,.01,.31-.05,.34-.22,.02-.17-.07-.29-.25-.32-.07-.01-.15-.02-.22-.03-.15-.04-.34-.05-.38-.25-.05-.19,.07-.3,.22-.39,.04-.03,.07-.07,.12-.12Z"/>
    <g>
      <path class="cls-4" d="M23.21,8.38v.98s9.12-2.41,16.35-.19v-1s-7.26-2.27-16.35,.21Z"/>
      <g>
        <path class="cls-2" d="M39.56,8.17s-1.49-.5-3.98-.78c-.24-.03-.49-.05-.75-.08-1.11-.1-2.39-.14-3.79-.09h0c-.27,0-.55,.02-.83,.04-2.11,.14-4.47,.35-7,1.11,0,0,.38-3.93,2-6.88,.52-1.31,8.42-2.05,11.84-.5,1.11,.5,2.51,7.16,2.51,7.16Z"/>
        <path class="cls-7" d="M36.15,2.76c-.69,.64-8.75,4.51-9.42,4.53,1.42-.96,8.72-4.47,9.42-4.53Z"/>
        <path class="cls-5" d="M37.05,4.11c-.79,.58-3.76,2.08-6.02,3.11h0c-.27,0-.55,.02-.83,.04,2.23-1.19,4.5-2.25,6.85-3.16Z"/>
        <path class="cls-5" d="M25.86,5.55c2.42-1.44,4.94-2.66,7.61-3.69-.49,.57-6.74,3.59-7.61,3.69Z"/>
        <path class="cls-9" d="M25.47,4.04c1.75-1.13,3.61-2.04,5.61-2.72-.61,.61-4.34,2.42-5.61,2.72Z"/>
        <path class="cls-9" d="M37.11,6.39c.06-.02,.12-.02,.18-.03-.24,.16-.48,.33-.73,.47-.33,.19-.66,.38-.99,.56-.24-.03-.49-.05-.75-.08,.75-.35,1.51-.66,2.29-.93Z"/>
        <path class="cls-9" d="M37.31,6.36s-.01,0-.02,0c0,0,0,0,.01,0h0Z"/>
      </g>
    </g>
    <line class="cls-8" x1="26.58" y1="1.95" x2="26.48" y2="2.04"/>
    <g>
      <path class="cls-3" d="M7.47,6.36c-.45,0-.86-.18-1.13-.5-.26-.31-.36-.72-.28-1.14,.03-.15,.1-.59,1.02-2.39-.21-.05-.42-.1-.65-.16-.75-.19-1.6-.4-2.32-.4-.58,0-1,.14-1.28,.43-.09,.11-.22,.17-.36,.17-.19,0-.36-.13-.41-.33h0s0-.02,0-.02c-.16-.67,.11-1.32,.68-1.7C3.06,.11,3.45,0,3.89,0,4.78,0,5.79,.42,6.69,.79c.35,.14,.69,.28,.99,.39,0,0,0,0,0,0,.05-.1,.1-.19,.14-.27h0c.33-.6,.76-.91,1.27-.91,.6,0,1.04,.4,1.06,.97,.02,.63-.5,1.34-1.51,1.49-.84,1.74-1.05,2.33-1.09,2.53-.02,.11,0,.17,0,.18,0,0,.04,0,.04,0,.18,0,.58-.34,.88-.97,.24-.52,.24-.89,.15-.99v-.02s-.02-.02-.02-.02c-.07-.11-.08-.26-.03-.39,.06-.14,.19-.24,.34-.27h.01c.06-.01,.13-.02,.2-.02,.67,0,1.03,.61,1.03,1.18,0,.53-.34,1.19-.9,1.75-.58,.58-1.24,.92-1.81,.92Z"/>
      <path class="cls-3" d="M13.59,3.86s0-.02-.01-.03c-.08-.15-.24-.24-.42-.24-.15,0-.27,.07-.35,.13-.02,.01-.03,.03-.04,.04,.04-.08,.07-.15,.1-.22,.07-.14,.13-.26,.17-.33,.07-.11,.1-.22,.09-.34,0-.07-.03-.14-.06-.2-.15-.27-.51-.38-.71-.38-.14,0-.28,.05-.39,.15-.14-.09-.34-.15-.61-.15-.49,0-.97,.25-1.36,.7-.07,.08-.14,.17-.21,.27-.06,.09-.12,.18-.17,.27-.18,.33-.31,.69-.36,1.02-.02,.11-.03,.22-.03,.32,0,.18,.05,.34,.13,.48,.2,.32,.58,.5,.94,.5,.24,0,.51-.13,.8-.38,.25,.25,.63,.38,.83,.38,.09,0,.22,0,.51-.25,.21-.18,.5-.49,.93-1.01,.05-.06,.1-.13,.15-.19,.13-.16,.16-.37,.07-.54Zm-2.33-.29c-.08,.2-.22,.46-.41,.7-.02,.02-.03,.04-.04,.06,.09-.23,.23-.5,.41-.71,.02-.02,.03-.03,.04-.05Z"/>
      <path class="cls-1" d="M2.72,.5c.28-.18,.6-.26,.96-.26,1.26,0,2.85,.93,3.96,1.24,.11-.2,.21-.38,.29-.53,.2-.36,.5-.72,.97-.72,1.08,0,.97,1.67-.68,1.79-.49,1-1.09,2.29-1.2,2.78-.09,.38,.1,.62,.39,.62,.78,0,1.81-1.94,1.3-2.54-.02-.02,0-.11,.09-.12,.05,0,.11-.02,.15-.02,.47,0,.68,.46,.68,.83,0,.92-1.34,2.32-2.36,2.32-.71,0-1.19-.53-1.07-1.23,.09-.5,.69-1.72,1.2-2.7-.99-.18-2.36-.66-3.49-.66-.61,0-1.15,.14-1.54,.54-.03,.04-.07,.05-.1,.05s-.06-.02-.08-.08c-.12-.53,.09-1.03,.53-1.32Zm5.71,1.08c.94-.07,.88-.89,.65-.89-.17,0-.34,.27-.46,.52-.05,.11-.12,.24-.19,.37Z"/>
      <path class="cls-1" d="M11.15,2.53c.39,0,.57,.16,.64,.38,.07-.11,.12-.19,.16-.26,.05-.09,.12-.12,.2-.12,.16,0,.54,.15,.4,.39-.19,.31-.94,1.95-.75,1.95,.13,0,.56-.46,.99-.95,.06-.06,.12-.09,.17-.09,.11,0,.18,.12,.09,.24-.53,.67-1.12,1.32-1.32,1.32-.17,0-.74-.22-.74-.62-.3,.35-.64,.62-.89,.62-.34,0-.72-.24-.72-.63,0-.79,.74-2.24,1.78-2.24Zm-.91,2.34c.64,0,1.66-1.91,1.05-1.91-.73,0-1.43,1.91-1.05,1.91Z"/>
      <path class="cls-3" d="M21.03,5.86c-1.02,0-1.39-.66-1.39-1.28,0-.86,.89-2.29,1.91-2.29,.76,0,1.1,.5,1.1,.99,0,.11-.01,.22-.04,.32,.03,0,.06,0,.09,0,.19,0,.35,.1,.43,.27,.08,.17,.05,.38-.07,.54-.59,.76-1.25,1.46-2.03,1.46Zm.13-1.24s.03,.01,.09,.01c.09,0,.19-.05,.3-.13-.11,.02-.23,.03-.36,.03-.01,0-.03,0-.04,0,0,.01,0,.03,0,.04,0,.02,0,.04,0,.05Z"/>
      <path class="cls-3" d="M19.04,5.86c-.33,0-1.12-.33-1.12-.98,0,0,0-.01,0-.02-.05,.07-.1,.14-.14,.21-.07,.18-.07,.26-.07,.29,0,.31-.2,.5-.5,.5-.28,0-.97-.34-.97-.98,0-.01,0-.02,0-.03-.2,.27-.36,.51-.4,.63-.04,.24-.21,.38-.46,.38h-.09c-.43-.13-.89-.47-.89-.96,0-.59,.56-1.59,1.03-2.32,.11-.18,.3-.28,.5-.28s.57,.12,.71,.38c.02,.04,.04,.09,.05,.13,.54-.46,.81-.52,.97-.52,.32,0,.62,.2,.77,.48,.57-.48,.81-.48,.92-.48,.47,0,.88,.42,.88,.89,0,.12-.04,.25-.12,.44,.06-.02,.12-.03,.18-.03,.19,0,.35,.1,.43,.27,.08,.17,.06,.38-.07,.54-1.15,1.46-1.44,1.46-1.61,1.46Z"/>
      <path class="cls-3" d="M30.11,4.4c-.18,.23-.34,.42-.48,.59-.3,.35-.52,.56-.68,.68h0c-.24,.19-.36,.19-.43,.19-.33,0-1.09-.33-1.09-.98,0-.23,.08-.53,.25-.91-.11,.14-.22,.28-.34,.43,0,0,0,0,0,0h0c-.14,.17-.3,.21-.41,.21-.15,0-.29-.06-.38-.17-.03-.03-.06-.07-.08-.12-.03-.06-.04-.13-.04-.2,0-.11,.04-.22,.12-.31h0c.1-.12,.2-.23,.29-.35,.03-.03,.06-.07,.08-.1-.05-.05-.09-.12-.13-.18-.05-.08-.08-.18-.11-.27,0-.02-.01-.04-.02-.07-.04-.14,0-.29,.08-.4,.08-.11,.22-.18,.35-.18,.03,0,.05,0,.07,0h.02s.01,0,.02,0c.07,0,.28,.01,.65,.01h.04c.3,0,.62,0,.83,0,.02,0,.04,0,.06,0,.08,0,.13,0,.15,0,.21,0,.57,.12,.71,.38,.09,.17,.09,.37-.02,.54-.06,.1-.16,.31-.28,.55,.07-.06,.2-.17,.39-.17s.35,.1,.43,.27c.08,.17,.05,.38-.07,.54Z"/>
      <path class="cls-3" d="M24.63,5.86c-1.02,0-1.39-.66-1.39-1.28,0-.9,.95-2.29,2.22-2.29,.77,0,1.1,.39,1.22,.62,.11,.2,.17,.44,.16,.7,.04-.01,.09-.02,.14-.02,.19,0,.35,.1,.43,.27,.08,.17,.06,.37-.07,.53-.31,.41-.64,.79-1.29,.86-.41,.39-.91,.6-1.42,.6Zm.97-2.43s-.25,.11-.25,.39c0,.1,.05,.18,.12,.24,.16-.28,.21-.54,.18-.62,0,0-.02,0-.04,0Z"/>
      <path class="cls-1" d="M14.53,4.79c0-.59,.77-1.81,.98-2.13,.05-.09,.12-.12,.2-.12,.16,0,.54,.15,.4,.39-.11,.17-.4,.77-.61,1.36,.45-.64,1.54-1.74,1.95-1.74,.27,0,.53,.26,.53,.54,0,.09-.07,.26-.16,.46,.5-.53,1.05-1.01,1.32-1.01s.53,.26,.53,.54c0,.31-.8,1.56-.8,1.74,0,.04,.02,.05,.05,.05,.13,0,.55-.46,.99-.95,.05-.06,.12-.09,.17-.09,.11,0,.18,.12,.09,.24-.53,.67-1.12,1.32-1.33,1.32-.17,0-.77-.22-.77-.63s.95-1.64,.69-1.64c-.23,0-1.05,1.01-1.5,1.67-.07,.18-.11,.33-.11,.45,0,.09-.02,.15-.15,.15-.12,0-.62-.22-.62-.63s.95-1.64,.69-1.64c-.32,0-1.74,1.89-1.78,2.17,0,.08-.04,.1-.12,.1-.23-.06-.63-.28-.63-.61Z"/>
      <path class="cls-3" d="M20.83,8c-.96,0-1.46-.85-1.49-1.28h0c-.01-.16,.04-.31,.14-.42,.08-.09,.2-.14,.32-.14,.18,0,.34,.11,.41,.29h0c.04,.09,.17,.18,.34,.18,.18,0,.58-.2,1.22-1.57,.11-.24,.23-.53,.36-.83,.24-.6,.5-1.21,.77-1.65,.08-.13,.2-.22,.35-.26-.05-.11-.06-.24-.02-.35,.02-.06,.22-.63,.35-.89h0c.11-.21,.32-.33,.56-.33,.32,0,.68,.21,.82,.47,.09,.17,.09,.36-.01,.5-.08,.13-.22,.31-.36,.49-.1,.13-.21,.27-.24,.32h0c-.04,.07-.1,.12-.17,.16,.08,.17,.07,.35-.03,.52-.2,.32-.53,1.06-.95,2.11-.73,1.82-1.48,2.67-2.35,2.67Z"/>
      <path class="cls-1" d="M21.34,2.53c.53,0,.75,.32,.75,.64,0,.62-.55,.9-1.11,.9-.11,0-.22,0-.32-.03-.05,.14-.08,.29-.08,.42,0,.15,.06,.41,.45,.41,.42,0,.84-.46,1.28-.95,.06-.06,.12-.09,.17-.09,.12,0,.18,.12,.09,.24-.52,.67-1.12,1.32-1.76,1.32-.91,0-1.04-.59-1.04-.93,0-.67,.77-1.94,1.57-1.94Zm-.37,1.18c.38,0,.77-.15,.77-.56,0-.1-.05-.19-.16-.19-.22,0-.54,.33-.76,.74,.05,0,.1,0,.15,0Z"/>
      <path class="cls-1" d="M20.33,6.87c.57,0,1.08-.8,1.53-1.77,.34-.74,.71-1.82,1.11-2.44,.05-.09,.15-.12,.26-.12,.16,0,.54,.15,.4,.39-.28,.45-.71,1.47-.98,2.17-.51,1.28-1.19,2.45-2.03,2.45-.77,0-1.12-.7-1.15-.96,0-.11,.05-.18,.11-.18,.04,0,.07,.02,.09,.08,.09,.22,.36,.4,.66,.4Zm3.42-4.59c-.16,0-.46-.15-.41-.31,.02-.07,.22-.62,.33-.84,.05-.1,.15-.14,.26-.14,.27,0,.63,.27,.52,.43-.14,.22-.51,.67-.6,.82-.02,.02-.05,.04-.09,.04Z"/>
      <path class="cls-1" d="M25.25,2.53c1.18,0,1.24,1.06,.73,1.89,.15-.04,.28-.12,.38-.22,.14-.15,.19-.22,.24-.27,.05-.06,.12-.09,.17-.09,.11,0,.18,.12,.09,.24-.32,.43-.59,.71-1.17,.74-.33,.35-.77,.59-1.26,.59-.91,0-1.04-.59-1.04-.93,0-.67,.77-1.94,1.87-1.94Zm-.6,2.34c.14,0,.29-.06,.43-.16-.36-.15-.64-.46-.68-.94-.12,.23-.19,.47-.19,.69,0,.15,.06,.41,.45,.41Zm.74-1.91c-.2,0-.6,.25-.6,.74,0,.34,.26,.6,.59,.7,.44-.57,.65-1.43,0-1.43Z"/>
      <path class="cls-1" d="M26.71,4.15c-.12,0-.2-.12-.12-.22,.25-.28,.49-.57,.67-.8h-.09c-.22,0-.35-.33-.38-.47-.02-.09,.03-.15,.09-.15,0,0,.02,0,.02,0,.05,.02,.4,.02,.78,.02,.46,0,.97,0,1.04,0,.16,0,.54,.15,.4,.39-.19,.31-.94,1.95-.75,1.95,.13,0,.56-.46,.99-.95,.06-.06,.12-.09,.17-.09,.12,0,.18,.12,.09,.24-.52,.67-1.12,1.32-1.32,1.32-.17,0-.74-.22-.74-.63,0-.43,.4-1.16,.69-1.67-.22,0-.46,.02-.67,.02-.18,.23-.45,.6-.74,.95-.05,.05-.09,.08-.14,.08Z"/>
    </g>
    <g>
      <path class="cls-3" d="M14.71,12.93c-1.74,0-2.83-1-2.83-2.62,0-.82,.43-1.94,1.1-2.86,.47-.65,1.45-1.73,2.76-1.73,1.56,0,2.27,1.07,2.27,2.05,0,.17-.01,.33-.04,.49,0,0,.01,0,.02,0,.41,0,.77,.23,.95,.59,.18,.37,.12,.82-.16,1.17-1.17,1.5-2.48,2.9-4.07,2.9Z"/>
      <path class="cls-3" d="M5.41,12.93c-.39,0-1.11-.22-1.63-.7-.56,.47-1.08,.7-1.56,.7-1.06,0-2.21-.77-2.21-2.02,0-.96,.44-2.23,1.11-3.22,.86-1.26,1.99-1.96,3.17-1.96,.46,0,.86,.09,1.18,.28,.22-.18,.49-.28,.77-.28,.44,0,1.19,.25,1.49,.81,.2,.37,.18,.8-.05,1.17-.08,.13-.21,.38-.35,.68,.16-.08,.32-.11,.48-.11,.41,0,.77,.23,.94,.59,.18,.38,.12,.83-.16,1.17-.97,1.23-1.71,2.04-2.26,2.48-.48,.38-.73,.41-.94,.41Z"/>
      <path class="cls-3" d="M10.83,12.93c-.67,0-2.25-.69-2.25-2.02,0-.31,.07-.67,.21-1.1-.06,.08-.12,.16-.19,.24v.02c-.32,.36-.66,.43-.89,.43-.43,0-.82-.25-1-.63-.17-.37-.11-.8,.16-1.12h.01c.24-.28,.48-.57,.68-.8-.3-.38-.42-.84-.46-.99-.08-.31-.01-.63,.18-.88,.19-.25,.47-.39,.78-.39,.05,0,.11,0,.16,.02h.06s.01,.02,.02,.02c.14,.01,.55,.03,1.34,.03,.65,0,1.35,0,1.73-.01,.16,0,.26,0,.3,0,.44,0,1.19,.25,1.49,.81,.2,.37,.18,.8-.05,1.17-.08,.13-.21,.38-.35,.68,.16-.08,.32-.11,.48-.11,.41,0,.77,.23,.95,.59,.18,.37,.12,.82-.16,1.17-2.26,2.9-2.9,2.9-3.2,2.9Z"/>
      <path class="cls-3" d="M16.23,17.11l-.1-.03c-.61-.16-1.77-.79-1.77-1.97,0-.48,.22-1.49,1.97-4.97,.93-1.86,1.86-3.55,1.9-3.62v-.02s.02-.02,.02-.02c.4-.64,.82-.77,1.36-.77,.4,0,.89,.15,1.2,.49,.49-.32,.95-.49,1.36-.49,.8,0,1.25,.36,1.49,.67,.28,.36,.43,.84,.43,1.41,0,.93-.4,2.15-1.05,3.2-.44,.72-1.36,1.92-2.51,1.92-.65,0-1.25-.23-1.73-.65-1.28,2.98-1.43,3.74-1.45,3.91-.06,.56-.46,.92-1.02,.92h-.1Z"/>
      <path class="cls-3" d="M13.74,17.42c-.96,0-1.86-.28-2.54-.78-.82-.61-1.26-1.48-1.26-2.52,0-.1,0-.33,.04-.56,.15-.91,.79-.98,.98-.98,.28,0,.54,.12,.76,.34h.01c.52,.56,1.31,.83,2.44,.83,3.4,0,6.43-.46,9.1-.87,.15-.02,.31-.05,.46-.07-.79-.27-1.46-.94-1.46-1.9s.44-2.23,1.11-3.22c.86-1.26,1.99-1.96,3.17-1.96,.47,0,.86,.09,1.19,.27,.22-.18,.48-.27,.77-.27,.44,0,1.19,.25,1.49,.81,.2,.37,.18,.8-.05,1.17-.28,.44-1.24,2.55-1.39,3.24-.08,.4-.12,.77-.12,1.09,0,.06,0,.13,0,.19,.12,0,.23,0,.35,0,.93,0,1.71,.25,2.27,.74,.54,.46,.83,1.09,.83,1.78,0,1.11-.86,2.3-2.44,2.3-1.31,0-2.47-.69-3.21-1.9-.95,.2-1.95,.46-3,.73-2.84,.73-6.05,1.55-9.53,1.55Z"/>
      <path class="cls-1" d="M5.41,12.63c-.4,0-1.17-.28-1.62-.82-.58,.55-1.11,.82-1.58,.82-.92,0-1.91-.66-1.91-1.73,0-.91,.42-2.11,1.06-3.05,.8-1.18,1.84-1.83,2.92-1.83,.57,0,.96,.16,1.22,.36,.19-.24,.45-.36,.74-.36,.35,0,.99,.21,1.23,.66,.15,.27,.14,.59-.04,.87-.21,.33-.65,1.28-.99,2.11,.25-.27,.5-.54,.67-.73h0s0-.02,0-.02c.08-.08,.33-.33,.69-.33,.29,0,.55,.16,.68,.42,.13,.27,.09,.6-.12,.86-2.2,2.78-2.72,2.78-2.97,2.78Zm-.99-4.73c-.19,.07-.42,.26-.65,.54-.51,.65-.84,1.52-.95,2.01,.18-.13,.42-.35,.7-.72,.58-.76,.85-1.5,.89-1.84Z"/>
      <path class="cls-1" d="M10.83,12.63c-.57,0-1.95-.6-1.95-1.73,0-.62,.31-1.5,.98-2.74-.06,0-.13,0-.19,0-.04,.06-.09,.12-.14,.19-.33,.43-.73,.96-1.16,1.5h0c-.23,.28-.48,.34-.65,.34-.31,0-.6-.18-.72-.46-.12-.27-.08-.57,.12-.8h0c.29-.34,.59-.69,.85-1-.32-.28-.5-.73-.57-1.05-.06-.23-.01-.45,.12-.63,.13-.17,.33-.27,.54-.27,.05,0,.09,0,.12,.02h0s.03,.01,.05,.02c.13,.01,.58,.03,1.4,.03,.65,0,1.36,0,1.73-.01,.15,0,.26,0,.3,0,.35,0,.99,.21,1.23,.66,.15,.27,.14,.59-.04,.87-.21,.33-.65,1.28-.99,2.11,.25-.27,.5-.54,.67-.73h0s0-.02,0-.02c.08-.08,.33-.33,.69-.33,.3,0,.56,.16,.68,.42,.13,.27,.08,.6-.12,.86-2.17,2.78-2.75,2.78-2.97,2.78Z"/>
      <path class="cls-1" d="M14.71,12.63c-1.58,0-2.53-.87-2.53-2.32,0-.76,.41-1.82,1.04-2.68,.44-.6,1.35-1.61,2.52-1.61,1.36,0,1.97,.88,1.97,1.76,0,.35-.07,.66-.2,.94,.12-.08,.28-.15,.48-.15,.3,0,.56,.16,.68,.42,.13,.27,.08,.6-.12,.86-1.13,1.45-2.37,2.78-3.83,2.78Zm.08-2.6c-.02,.1-.02,.19-.02,.27,0,.2,.06,.31,.38,.31,.41,0,.92-.41,1.43-.93-.43,.24-.97,.36-1.53,.36-.09,0-.17,0-.25,0Z"/>
      <path class="cls-1" d="M16.27,16.82l-.06-.02c-.54-.14-1.55-.68-1.55-1.68,0-.42,.2-1.37,1.94-4.84,.94-1.87,1.89-3.59,1.9-3.61h0s0-.02,0-.02c.33-.53,.63-.63,1.1-.63,.37,0,.87,.17,1.09,.54,.01,.02,.03,.04,.04,.07,.45-.34,.96-.61,1.43-.61,.68,0,1.05,.3,1.25,.55,.24,.31,.36,.72,.36,1.23,0,.88-.38,2.04-1,3.04-.41,.66-1.25,1.78-2.25,1.78-.73,0-1.38-.32-1.83-.88-.99,2.28-1.6,3.91-1.65,4.41-.04,.41-.31,.65-.72,.65h-.07Zm3.35-6.65c.04,.2,.13,.41,.26,.44,.14-.09,.51-.5,.96-1.36,.22-.42,.37-.78,.46-1.06-.16,.14-.36,.33-.61,.61-.43,.48-.83,1.01-1.07,1.37Z"/>
      <path class="cls-3" d="M15.5,6.33c1.05,0,1.47,.62,1.47,1.26,0,1.21-1.08,1.76-2.17,1.76-.21,0-.42-.02-.62-.06-.09,.27-.15,.56-.15,.82,0,.29,.12,.8,.88,.8,.82,0,1.65-.91,2.5-1.85,.12-.12,.23-.18,.33-.18,.23,0,.35,.24,.17,.47-1.02,1.3-2.18,2.59-3.44,2.59-1.77,0-2.03-1.15-2.03-1.82,0-1.32,1.5-3.79,3.06-3.79Zm-.73,2.3c.74,0,1.5-.3,1.5-1.09,0-.2-.09-.36-.32-.36-.42,0-1.06,.65-1.49,1.44,.11,.02,.2,.02,.3,.02Z"/>
      <path class="cls-3" d="M14.91,14.93c0-1.36,3.77-8.2,3.77-8.2,.23-.36,.35-.39,.68-.39s.88,.23,.67,.64c-.14,.26-.35,.71-.61,1.26,.76-.97,1.79-1.9,2.5-1.9,2.59,0,.11,5.61-1.64,5.61-.97,0-1.64-.71-1.86-1.53-.99,2.21-2.03,4.73-2.11,5.52-.02,.15-.08,.2-.23,.2-.45-.12-1.18-.55-1.18-1.2Zm3.96-5.08c.03,.53,.3,1.06,.82,1.06,.77,0,2.56-3.73,1.82-3.73-.64,0-2.11,1.82-2.64,2.67Z"/>
      <path class="cls-1" d="M13.74,17.12c-.89,0-1.73-.26-2.36-.72-.75-.55-1.14-1.34-1.14-2.28,0-.09,0-.3,.04-.51,.11-.66,.52-.73,.69-.73,.2,0,.38,.08,.55,.25h.01c.57,.62,1.44,.92,2.65,.92,3.42,0,6.46-.47,9.15-.88,.84-.13,1.63-.25,2.42-.35-.04-.22-.06-.45-.07-.67-.43,.33-.83,.49-1.18,.49-.92,0-1.91-.66-1.91-1.73,0-.91,.42-2.11,1.06-3.05,.8-1.18,1.84-1.83,2.92-1.83,.57,0,.96,.15,1.23,.36,.19-.23,.44-.36,.73-.36,.35,0,.99,.21,1.23,.66,.15,.27,.14,.59-.04,.87-.29,.47-1.27,2.61-1.43,3.34-.08,.42-.13,.81-.13,1.16,0,.17,.01,.34,.03,.5,.21-.01,.42-.02,.62-.02,.85,0,1.57,.23,2.08,.66,.47,.4,.73,.95,.73,1.55,0,.97-.75,2-2.14,2-1.28,0-2.38-.7-3.06-1.94-1.02,.21-2.09,.48-3.22,.77-2.82,.72-6.01,1.54-9.45,1.54Zm15.38-2.74c.15,.1,.31,.15,.46,.15,.1,0,.14-.04,.15-.07-.03-.03-.15-.09-.41-.09-.07,0-.13,0-.2,0Zm-2.42-6.48c-.19,.07-.42,.26-.65,.54-.51,.65-.84,1.52-.95,2.01,.18-.13,.42-.35,.7-.72,.58-.76,.85-1.5,.89-1.84Z"/>
      <path class="cls-3" d="M10.72,13.18c.06,0,.12,.03,.2,.11,.74,.79,1.82,1.06,3.02,1.06,4.73,0,8.64-.86,12.16-1.3-.12-.5-.18-1.02-.18-1.52,0-.26,.02-.52,.05-.76-.59,.65-1.23,1.17-1.71,1.17-.67,0-1.41-.47-1.41-1.23,0-1.55,1.44-4.38,3.49-4.38,.76,0,1.12,.32,1.24,.74,.14-.21,.24-.38,.32-.5,.11-.17,.24-.24,.39-.24,.32,0,1.06,.3,.77,.76-.3,.49-1.32,2.68-1.5,3.5-.09,.45-.14,.88-.14,1.26s.05,.71,.12,1.03c.35-.03,.7-.05,1.03-.05,3.06,0,2.87,3.21,.67,3.21-1.33,0-2.27-.86-2.79-2-3.7,.7-8.07,2.38-12.95,2.38-1.5,0-3-.83-3-2.5,0-.15,0-.74,.23-.74Zm13.81-2.27c1.24,0,3.24-3.73,2.06-3.73-1.43,0-2.79,3.73-2.06,3.73Zm3.35,2.88c.36,.65,.89,1.05,1.46,1.05,.8,0,1.03-1.15-.26-1.15-.39,0-.8,.05-1.2,.11Z"/>
      <path class="cls-3" d="M4.04,6.33c.76,0,1.11,.32,1.24,.74,.14-.21,.24-.38,.32-.5,.11-.17,.24-.24,.39-.24,.32,0,1.06,.3,.77,.76-.38,.61-1.83,3.82-1.47,3.82,.26,0,1.09-.91,1.94-1.85,.12-.12,.23-.18,.33-.18,.21,0,.35,.24,.17,.47-1.03,1.3-2.18,2.59-2.58,2.59-.33,0-1.44-.42-1.46-1.21-.59,.68-1.24,1.21-1.74,1.21-.67,0-1.41-.47-1.41-1.23,0-1.55,1.44-4.38,3.49-4.38Zm-1.79,4.58c1.24,0,3.24-3.73,2.06-3.73-1.43,0-2.79,3.73-2.06,3.73Z"/>
      <path class="cls-3" d="M7.46,9.5c-.23,0-.39-.24-.23-.44,.49-.55,.96-1.12,1.32-1.56h-.18c-.44,0-.68-.64-.74-.92-.05-.17,.06-.29,.18-.29,.02,0,.03,.02,.05,.02,.09,.03,.79,.05,1.53,.05,.91,0,1.89-.02,2.03-.02,.32,0,1.06,.3,.77,.76-.38,.61-1.83,3.82-1.47,3.82,.26,0,1.09-.91,1.94-1.85,.12-.12,.23-.18,.33-.18,.23,0,.35,.24,.17,.47-1.02,1.3-2.18,2.59-2.58,2.59-.33,0-1.46-.44-1.46-1.23,0-.83,.77-2.27,1.35-3.26-.44,.02-.91,.03-1.3,.03-.35,.45-.88,1.17-1.44,1.86-.09,.11-.18,.15-.27,.15Z"/>
    </g>
  </g>
</svg>