<?xml version="1.0" encoding="UTF-8"?>
<svg id="Capa_2" data-name="Capa 2" xmlns="http://www.w3.org/2000/svg" viewBox="0 0 34.77 15.31">
  <defs>
    <style>
      .cls-1 {
        fill: #dac64a;
      }

      .cls-2 {
        fill: #b97b7c;
      }

      .cls-3 {
        fill: #fff;
      }

      .cls-4 {
        fill: #4b010e;
      }

      .cls-5 {
        fill: #dcc150;
      }

      .cls-6 {
        fill: #40391c;
      }

      .cls-7 {
        fill: #fcc329;
      }

      .cls-8 {
        fill: #40391b;
      }

      .cls-9 {
        fill: none;
      }

      .cls-10 {
        fill: #f5ffff;
        font-family: Poppins-SemiBold, Poppins;
        font-size: 1.37px;
        letter-spacing: .26em;
      }

      .cls-11 {
        fill: #413a1c;
      }

      .cls-12 {
        fill: #62021d;
      }

      .cls-13 {
        fill: #936525;
      }
    </style>
  </defs>
  <g id="Capa_1-2" data-name="Capa 1">
    <text class="cls-10" transform="translate(31.24 1.94) scale(1.04 1)"><tspan x="0" y="0">®</tspan></text>
    <path class="cls-4" d="M34.59,1.04s.08,.06,.11,.1c.03,.04,.04,.09,.04,.15s-.01,.1-.04,.15c-.03,.04-.06,.08-.11,.1-.05,.02-.1,.04-.16,.04s-.11-.01-.16-.04c-.05-.03-.08-.06-.11-.1-.03-.04-.04-.09-.04-.15s.01-.11,.04-.15c.03-.04,.06-.08,.11-.1,.05-.02,.1-.04,.16-.04s.11,.01,.16,.04Zm0,.41s.06-.09,.06-.16-.02-.12-.06-.16-.1-.06-.17-.06-.12,.02-.16,.06c-.04,.04-.06,.09-.06,.16s.02,.12,.06,.16c.04,.04,.1,.06,.16,.06s.12-.02,.17-.06Zm-.05-.16s-.02,.03-.04,.03l.07,.11h-.11l-.06-.1h0v.1h-.1v-.29h.15s.06,0,.08,.03c.02,.02,.03,.04,.03,.07,0,.02,0,.04-.02,.05Zm-.15-.03h.05s.01,0,.02,0c0,0,0,0,0-.02,0-.01,0-.02-.02-.02h-.05v.04Z"/>
    <path class="cls-1" d="M20.4,8.16s6.11,1.21,14.37,0l-.47,2.34h-13.31l-.6-2.34Z"/>
    <path class="cls-13" d="M29.95,6.95c.16-.12,.34-.1,.5-.02,.28,.15,.54,.01,.77-.09,.17-.08,.31-.2,.51-.12,.02,0,.06,.02,.06,0,.16-.26,.45-.14,.66-.19,.07-.14,.12-.26,.2-.43,.09,.13,.14,.21,.2,.3,.07-.07,.12-.13,.2-.2,.21,.17,.33,.03,.51-.12,.21-.18,.24-.35,.21-.59,0-.07,.03-.15,.04-.22,.06,.05,.12,.1,.19,.15-.03,.26-.06,.53-.09,.82,.07-.02,.13-.05,.19-.06,.06,0,.15-.02,.17,.01,.03,.04,.02,.13,0,.17-.1,.18-.22,.35-.33,.52h0s-.07,.03-.11,.05c-.03,0-.06,.01-.09,.02l-.09,.16c-.19-.04-.39-.27-.61,0,.12,.12,.23,.24,.36,.33,.07,.04,.18,.02,.27,.02,.13,.07,.2,.15,.12,.31-.05,.1-.07,.23-.1,.35l-.36-.23c-.05-.16-.01-.41-.24-.41-.27,0-.48-.13-.69-.26-.03-.02-.09,0-.16,0,.23,.25,.39,.52,.72,.57,.03,0,.05,.04,.07,.06-.02,.11-.03,.21-.15,.29-.08,.05-.12,.19-.17,.29-.05,.09-.1,.18-.15,.27-.02-.03-.05-.07-.07-.1h0s-.06-.04-.1-.07c-.03-.06-.05-.12-.08-.17-.03-.05-.09-.08-.13-.12-.03,.05-.09,.09-.1,.15-.05,.28,0,.34,.34,.33,.02,.05,.04,.09,.06,.14-.16,0-.29,.03-.38,.19-.03,.06-.13,.09-.2,.13,.05-.1,.1-.21,.16-.35-.32,.03-.4-.16-.44-.42-.23,.28-.02,.57-.19,.85,.21-.03,.33-.06,.45-.08-.1,.11-.3,.17-.24,.38h0c-.33-.16-.63,.01-.62,.37,0,.19-.04,.27-.27,.21,.03-.12,.06-.24,.09-.36-.05-.02-.1-.05-.15-.05-.19,.04-.37,.06-.47-.18-.01-.03-.15-.03-.22,0-.05,.02-.09,.09-.12,.14-.33-.07-.34-.07-.5,.21-.14,.25-.24,.51-.36,.76-.04,.07-.1,.14-.17,.17-.03,.01-.11-.07-.16-.13-.11-.14-.2-.3-.31-.45-.03-.04-.08-.1-.12-.1-.24,.03-.34-.16-.48-.29-.07-.06-.16-.13-.25-.13-.23-.01-.46,0-.68,.02-.08,.01-.15,.11-.23,.16-.1,.07-.21,.12-.32,.19-.05-.1-.1-.21-.14-.31-.05-.12-.1-.24-.15-.35,.01-.01,.02-.03,.03-.04,.21,0,.29-.13,.28-.32-.04-.3-.08-.33-.41-.3-.13,.2-.22,.37-.34,.54-.11,.15-.03,.22,.09,.28-.05,.11-.1,.22-.14,.33-.08,.19-.21,.22-.39,.14-.07-.24,.4-.37,.1-.65-.05,.02-.11,.05-.17,.08-.18,.09-.34,.06-.47-.09-.04-.04-.07-.08-.12-.12-.09-.06-.19-.12-.29-.18-.06,.1-.12,.19-.17,.29-.04,.07-.05,.16-.1,.19-.06,.04-.16,.02-.24,.02,0-.08-.03-.19,.01-.22,.19-.15,.11-.28,.01-.43-.07-.1-.14-.2-.21-.3-.09-.14-.19-.22-.34-.07-.03,.03-.09,.06-.11,.05-.26-.15-.43,.01-.63,.16-.15,.11-.31,0-.48-.23,.19-.06,.39-.12,.58-.19,.04-.01,.08-.08,.08-.12,0-.04-.06-.1-.1-.1-.14-.01-.29,0-.42-.02-.21-.03-.42-.08-.63-.15-.04-.01-.05-.14-.08-.21,.07,0,.14-.02,.21-.01,.03,0,.05,.05,.08,.06,.09,.03,.22,.09,.26,.05,.12-.11-.01-.19-.08-.26-.01-.06-.02-.12-.04-.18-.09-.21-.07-.25,.14-.34,.02,0,.05,0,.06-.02,.05-.06,.1-.13,.13-.2,0-.02-.04-.1-.06-.1-.08,.01-.17,.02-.23,.07-.06,.04-.09,.12-.13,.19-.06,.13-.12,.26-.17,.39-.05,.04-.1,.09-.16,.11-.16,.06-.28-.02-.3-.18-.01-.09-.02-.17-.03-.26,.09-.02,.18-.04,.26-.07-.03-.08-.08-.16-.1-.25-.02-.08-.03-.16-.04-.24,.03-.13,.05-.26,.08-.39-.04-.06-.07-.14-.13-.18-.09-.07-.19-.11-.31-.17,.3-.28,.53-.28,.74-.01,.08,.11,.13,.06,.21,.04-.02,.08-.04,.16-.07,.24,.09,.01,.16,.02,.22,.03,.05,.19-.3,.19-.15,.43,.14-.14,.28-.31,.45-.14,.2,.2,.44,.4,.34,.74q.53,.01,.64-.08-.43-.42-.35-.69c.09,.13,.17,.26,.26,.37,.1,.12,.2,.24,.31,.34,.05,.05,.14,.06,.22,.08,.02-.08,.06-.16,.04-.24-.01-.08-.08-.16-.12-.23-.04-.08-.08-.17-.12-.27,.2-.14,.52-.07,.55-.38,.08-.13,.19-.17,.33-.11,.1,.04,.2,.09,.14,.23h0s-.03,0-.03,0c0,.02,0,.03,0,.05,.01,.12,.03,.25,.04,.37,0,.03,0,.06,.01,.08-.12,0-.24,0-.36,.02-.24,.05-.27,.16-.13,.37,.22,.32,.86,.4,1.09-.01,.15-.27,.24-.28,.54-.14,.14,.07,.27,.09,.4,0,.03-.1,.05-.21,.09-.35,.35,.15,.69,.29,1.02,.43-.16,.13-.32,.26-.49,.41,.15,.27,.45,.33,.72,.46-.02,.04-.03,.06-.04,.09,0,.03-.02,.05-.03,.1,.64,.06,1.23,.03,1.63-.54,.14-.2,.33-.27,.57-.27,.08,0,.15,0,.23,0l.08-.09s.03-.02,.03-.04c.06-.05,.11-.1,.17-.15Zm-7.05,.62c-.19-.15-.37,0-.54,.02-.03,.41,.07,.51,.41,.43,.07,.07,.13,.14,.2,.21,.23-.23,.21-.44-.06-.66Zm5.83,2.32c.08-.15,.16-.3,.23-.46,.02-.05,.05-.14,.02-.17-.03-.04-.13-.08-.17-.06-.18,.1-.34,0-.5-.05-.29-.09-.4-.04-.56,.24-.12,.21-.1,.25,.13,.47,.06,.06,.13,.11,.2,.16,.08-.1,.14-.17,.2-.25,.18,.06,.29,.27,.44,.12Zm-3.22-1.68c-.08-.11-.15-.19-.2-.27-.18-.25-.39-.26-.5,.02-.09,.23-.24,.35-.45,.4-.08,.38-.03,.51,.26,.71,.04,.03,.11,.02,.17,.02,0-.06,.01-.12,0-.17,0-.04-.05-.08-.04-.11,.03-.11,.08-.22,.14-.34,.27,.11,.38-.17,.63-.26Zm4.67,.31c.1-.14,.16-.27,.25-.36,.09-.08,.17-.17,.08-.27-.06-.06-.22-.11-.28-.07-.13,.08-.29,.21-.32,.34-.04,.16,.11,.29,.27,.36Zm-.45,1.01c.35-.15,.35-.16,.37-.6q0-.28-.14-.36c-.07,.31-.15,.63-.23,.96Zm1.32-.31c0-.21,0-.38,0-.57-.22-.05-.22,.13-.26,.26-.07,.22,.08,.25,.26,.31Zm.61-1.24c-.14-.12-.24-.25-.47-.2,.05,.14,.09,.26,.14,.4,.13-.08,.21-.13,.34-.2Zm.49,.01c-.09-.2-.15-.34-.22-.5-.19,.24-.14,.37,.22,.5Z"/>
    <path class="cls-7" d="M21.11,7.09c.3-.29,.29-.38-.12-.87,.2-.17,.17-.51,.45-.64,.28,.41,.71,.61,1.13,.82,.46,.24,.95,.43,1.48,.52,.08,.01,.16,.06,.25,.09,.09,.05,.18,.13,.28,.15,.33,.06,.67,.09,1.01,.14,.46,.07,.91,.19,1.36,.21,.82,.04,1.62-.12,2.39-.39,.63-.22,1.24-.49,1.86-.74,.26-.11,.51-.27,.78-.34,.43-.11,.8-.3,1.12-.59,.25,.28,.51,.55,.76,.83,.1,.11,.08,.21-.05,.29-.24-.06-.36,.03-.29,.23,.05,.15,.17,.28,.25,.42,.1,.19,.2,.39,.28,.59,.03,.06,0,.15-.02,.3-.14-.11-.22-.18-.31-.24-.19-.13-.29-.09-.46,.06-.27,.23-.4,.52-.49,.86-.1,.38-.34,.42-.63,.15-.08-.07-.16-.16-.25-.2-.25-.12-.47-.05-.62,.19-.07,.11-.14,.23-.17,.36-.08,.35-.29,.6-.55,.83-.44,.38-1.07,.2-1.21-.35-.07-.26-.25-.41-.46-.38-.24,.04-.4,.23-.38,.5,.02,.39,.07,.79,.1,1.18,.02,.29-.11,.42-.39,.36-.13-.03-.27-.09-.38-.18-.14-.11-.19-.27-.07-.44,.04-.06,.09-.13,.13-.19,.31-.47,.15-.9-.39-1.07-.36-.11-.67-.07-.94,.19-.14,.13-.25,.12-.39-.03-.22-.25-.38-.22-.62,.04-.15,.16-.32,.3-.5,.41-.19,.12-.39,.05-.51-.14-.08-.12-.12-.26-.18-.39-.02-.04-.02-.09-.03-.13-.06-.22-.11-.51-.35-.55-.25-.04-.48,.15-.62,.37-.17,.27-.4,.46-.69,.59-.25,.11-.59,.02-.73-.19-.23-.35-.05-.75,.38-.86,.11-.03,.23-.02,.32-.07,.11-.07,.24-.18,.27-.29,.05-.16-.06-.29-.21-.37-.1-.05-.2-.1-.3-.13-.27-.1-.54-.18-.8-.28-.27-.1-.47-.28-.5-.6Zm11.62-.05s.08-.04,.12-.06c.06,.07,.14,.14,.19,.23,.03,.05,.02,.14,.06,.18,.07,.09,.17,.22,.24,.21,.17-.02,.12-.2,.08-.29-.11-.23-.24-.46-.39-.67-.25-.35-.44-.37-.76-.09-.15,.13-.29,.22-.49,.23-.21,0-.36,.12-.53,.24-.28,.2-.59,.37-.9,.53-.21,.11-.46,.16-.66,.29-.32,.21-.64,.26-1,.14-.09-.03-.2,.01-.31,.02,.02,.1,.01,.21,.05,.31,.14,.34,.09,.41-.3,.4-.1,0-.23,.01-.31,.07-.13,.09-.16,.24-.05,.38,.1,.14,.34,.18,.51,.07,.12-.08,.21-.19,.32-.29,.15-.13,.32-.18,.52-.16,.18,.02,.37,.02,.55,.01,.18,0,.37-.02,.47,.17,.1,.19-.06,.3-.19,.4-.1,.08-.15,.19-.07,.28,.06,.07,.18,.15,.26,.14,.12-.02,.27-.08,.33-.18,.12-.23,.21-.48,.29-.72,.04-.12,.03-.26,.08-.38,.06-.16,.18-.24,.36-.18,.33,.1,.41,.06,.57-.23,.07-.13,.12-.26,.18-.39,.08-.14,.21-.24,.35-.14,.07,.05,.09,.2,.09,.31,0,.13-.06,.26-.07,.39,0,.16,.1,.23,.23,.14,.1-.07,.22-.18,.24-.29,.04-.2,.02-.41,0-.61-.01-.14-.06-.29-.09-.43Zm-7.35,.59c-.13-.16-.28-.24-.43-.15-.3,.17-.56,.06-.79-.12-.27-.21-.57-.31-.91-.32-.26,0-.49-.1-.67-.3-.05-.06-.11-.1-.17-.15-.11-.1-.22-.07-.33,.01-.12,.09-.14,.21-.07,.35,.09,.2,.25,.21,.44,.2,.48-.02,.67,.09,.8,.54,.05,.17,.02,.37,.01,.55,0,.1-.06,.19-.06,.29-.01,.18,.13,.27,.24,.15,.2-.23,.41-.16,.65-.11,.26,.05,.41,.19,.49,.43,.05,.16,.09,.32,.17,.46,.03,.06,.13,.13,.19,.12,.23-.03,.34-.25,.26-.47-.04-.11-.09-.21-.15-.36,.13,0,.2,0,.27,0,.08,0,.15,.04,.22,.05,.15,.01,.28-.04,.3-.2,.02-.15-.06-.25-.22-.28-.06-.01-.13-.01-.2-.03-.14-.04-.29-.05-.34-.22-.04-.17,.07-.26,.19-.35,.03-.02,.06-.06,.1-.1Z"/>
    <g>
      <path class="cls-5" d="M20.4,7.37v.86s8.02-2.12,14.37-.17v-.88s-6.38-1.99-14.37,.19Z"/>
      <g>
        <path class="cls-1" d="M34.77,7.18s-1.31-.44-3.5-.68c-.21-.02-.43-.05-.66-.07-.98-.08-2.1-.13-3.33-.08h0c-.24,0-.48,.02-.73,.04-1.86,.12-3.93,.31-6.15,.98,0,0,.34-3.45,1.76-6.04,.46-1.15,7.4-1.8,10.41-.44,.97,.44,2.2,6.3,2.2,6.3Z"/>
        <path class="cls-8" d="M31.77,2.43c-.61,.56-7.69,3.97-8.28,3.98,1.25-.85,7.66-3.93,8.28-3.98Z"/>
        <path class="cls-6" d="M32.57,3.61c-.69,.51-3.31,1.83-5.29,2.74h0c-.24,0-.48,.02-.73,.04,1.96-1.05,3.96-1.98,6.02-2.77Z"/>
        <path class="cls-6" d="M22.73,4.87c2.12-1.27,4.34-2.34,6.69-3.24-.43,.5-5.92,3.16-6.69,3.24Z"/>
        <path class="cls-11" d="M22.39,3.56c1.54-1,3.18-1.79,4.93-2.39-.54,.54-3.81,2.13-4.93,2.39Z"/>
        <path class="cls-11" d="M32.62,5.62c.05-.02,.11-.02,.16-.02-.21,.14-.42,.29-.64,.42-.29,.17-.58,.33-.87,.49-.21-.02-.43-.05-.66-.07,.66-.3,1.33-.58,2.02-.81Z"/>
        <path class="cls-11" d="M32.8,5.59s0,0-.02,0c0,0,0,0,0,0h0Z"/>
      </g>
    </g>
    <line class="cls-9" x1="23.36" y1="1.72" x2="23.28" y2="1.79"/>
    <g>
      <path class="cls-3" d="M6.57,5.59c-.4,0-.76-.16-.99-.44-.23-.27-.32-.63-.25-1.01,.02-.13,.09-.52,.9-2.1-.18-.04-.37-.09-.57-.14-.66-.16-1.41-.35-2.04-.35-.51,0-.88,.12-1.13,.38-.08,.09-.2,.15-.32,.15-.17,0-.31-.11-.36-.29h0s0-.02,0-.02c-.14-.59,.09-1.16,.6-1.49C2.69,.1,3.03,0,3.42,0,4.2,0,5.09,.37,5.88,.7c.31,.13,.61,.25,.87,.34,0,0,0,0,0,0,.05-.09,.09-.16,.13-.23h0c.29-.53,.67-.8,1.12-.8,.53,0,.91,.35,.93,.85,.02,.56-.44,1.18-1.32,1.31-.74,1.53-.92,2.05-.96,2.22-.02,.1,0,.15,0,.16,0,0,.03,0,.04,0,.16,0,.51-.3,.77-.86,.21-.46,.21-.79,.14-.87h-.01s0-.03,0-.03c-.07-.1-.07-.23-.02-.34,.05-.12,.17-.21,.3-.24h.01c.05,0,.12-.02,.18-.02,.59,0,.91,.53,.91,1.04,0,.47-.3,1.04-.79,1.54-.51,.51-1.09,.8-1.59,.8Z"/>
      <path class="cls-3" d="M11.95,3.4s0-.02-.01-.02c-.07-.13-.21-.21-.37-.21-.14,0-.24,.06-.31,.12-.01,.01-.03,.02-.04,.03,.03-.07,.06-.13,.09-.19,.06-.13,.12-.23,.15-.29,.06-.09,.08-.2,.08-.3,0-.06-.02-.12-.06-.18-.13-.23-.44-.34-.63-.34-.13,0-.25,.05-.34,.14-.13-.08-.3-.14-.54-.14-.43,0-.85,.22-1.2,.62-.06,.07-.12,.15-.18,.24-.05,.08-.1,.16-.15,.24-.16,.29-.27,.61-.32,.9-.02,.1-.02,.19-.02,.28,0,.16,.04,.3,.12,.42,.17,.28,.51,.44,.82,.44,.22,0,.45-.11,.71-.34,.22,.22,.55,.34,.73,.34,.08,0,.19,0,.45-.22,.18-.16,.44-.43,.81-.89,.04-.05,.09-.11,.14-.17,.11-.14,.14-.32,.06-.47Zm-2.05-.25c-.07,.17-.19,.4-.36,.62-.01,.02-.03,.03-.04,.05,.08-.21,.2-.44,.36-.62,.01-.02,.03-.03,.04-.04Z"/>
      <path class="cls-12" d="M2.39,.44c.25-.16,.53-.22,.84-.22,1.1,0,2.51,.82,3.48,1.09,.1-.18,.18-.33,.25-.46,.18-.32,.44-.63,.85-.63,.95,0,.85,1.47-.6,1.57-.43,.88-.96,2.02-1.06,2.44-.07,.33,.09,.54,.34,.54,.69,0,1.59-1.71,1.14-2.23-.01-.02,0-.1,.07-.11,.05,0,.1-.01,.14-.01,.42,0,.6,.41,.6,.73,0,.81-1.18,2.04-2.08,2.04-.62,0-1.05-.47-.94-1.08,.07-.44,.61-1.51,1.06-2.37-.87-.16-2.07-.58-3.06-.58-.54,0-1.01,.12-1.36,.48-.03,.03-.06,.05-.09,.05s-.05-.02-.07-.07c-.11-.47,.07-.91,.47-1.16Zm5.02,.95c.82-.06,.77-.78,.57-.78-.15,0-.3,.24-.41,.46-.05,.1-.1,.21-.16,.33Z"/>
      <path class="cls-12" d="M9.8,2.23c.34,0,.5,.14,.56,.33,.06-.1,.11-.17,.14-.22,.05-.07,.11-.11,.18-.11,.14,0,.48,.14,.35,.34-.17,.27-.82,1.72-.66,1.72,.12,0,.49-.41,.87-.83,.05-.05,.1-.08,.15-.08,.1,0,.16,.11,.07,.21-.46,.59-.98,1.16-1.16,1.16-.15,0-.65-.19-.65-.54-.27,.31-.56,.54-.78,.54-.3,0-.63-.21-.63-.55,0-.69,.65-1.97,1.57-1.97Zm-.8,2.06c.56,0,1.46-1.68,.93-1.68-.64,0-1.25,1.68-.93,1.68Z"/>
      <path class="cls-3" d="M18.48,5.15c-.9,0-1.22-.58-1.22-1.12,0-.76,.79-2.01,1.68-2.01,.67,0,.97,.44,.97,.87,0,.1-.01,.19-.03,.28,.02,0,.05,0,.07,0,.17,0,.31,.09,.38,.24,.07,.15,.05,.33-.06,.47-.52,.67-1.09,1.28-1.79,1.28Zm.12-1.09s.03,.01,.08,.01c.08,0,.17-.04,.27-.11-.1,.02-.2,.03-.31,.03-.01,0-.03,0-.04,0,0,.01,0,.02,0,.03,0,.02,0,.04,0,.04Z"/>
      <path class="cls-3" d="M16.73,5.15c-.29,0-.98-.29-.98-.86,0,0,0-.01,0-.02-.04,.06-.09,.12-.13,.18-.06,.16-.06,.23-.06,.25,0,.27-.17,.44-.44,.44-.25,0-.85-.3-.85-.86,0,0,0-.02,0-.03-.17,.24-.31,.45-.35,.55-.03,.21-.19,.34-.4,.34h-.08c-.38-.11-.78-.41-.78-.85,0-.52,.49-1.4,.91-2.04,.1-.16,.26-.25,.44-.25s.5,.1,.63,.34c.02,.04,.04,.08,.05,.12,.47-.4,.71-.46,.85-.46,.28,0,.54,.18,.68,.42,.5-.42,.71-.42,.81-.42,.41,0,.77,.37,.77,.78,0,.1-.03,.22-.11,.39,.05-.02,.11-.03,.16-.03,.16,0,.31,.09,.38,.24,.07,.15,.05,.33-.06,.47-1.01,1.28-1.26,1.28-1.41,1.28Z"/>
      <path class="cls-3" d="M26.47,3.87c-.16,.2-.3,.37-.42,.52-.26,.31-.46,.49-.6,.6h0c-.21,.16-.31,.16-.38,.16-.29,0-.96-.29-.96-.86,0-.2,.07-.47,.22-.8-.09,.12-.19,.25-.29,.38,0,0,0,0,0,0h0c-.12,.15-.26,.18-.36,.18-.13,0-.25-.06-.33-.15-.03-.03-.05-.07-.07-.1-.03-.06-.04-.12-.04-.18,0-.1,.04-.2,.1-.27h0c.09-.1,.17-.21,.26-.3,.02-.03,.05-.06,.07-.09-.04-.05-.08-.1-.11-.16-.04-.07-.07-.16-.1-.24,0-.02-.01-.04-.01-.06-.03-.13,0-.25,.07-.35,.07-.1,.19-.15,.31-.15,.02,0,.05,0,.07,0h.02s.01,0,.02,0c.06,0,.25,.01,.57,.01h.04c.26,0,.55,0,.73,0,.02,0,.04,0,.05,0,.07,0,.12,0,.13,0,.18,0,.5,.11,.63,.34,.08,.15,.08,.32-.02,.47-.05,.09-.14,.27-.24,.48,.06-.05,.18-.15,.34-.15s.31,.09,.38,.24c.07,.15,.05,.33-.06,.47Z"/>
      <path class="cls-3" d="M21.65,5.15c-.9,0-1.22-.58-1.22-1.12,0-.79,.84-2.01,1.95-2.01,.67,0,.96,.34,1.08,.54,.1,.18,.15,.39,.14,.62,.04-.01,.08-.02,.12-.02,.16,0,.31,.09,.38,.24,.07,.15,.05,.33-.06,.47-.27,.36-.57,.69-1.14,.76-.36,.34-.8,.53-1.25,.53Zm.85-2.14s-.22,.1-.22,.34c0,.09,.04,.16,.11,.21,.14-.25,.18-.48,.15-.55,0,0-.02,0-.04,0Z"/>
      <path class="cls-12" d="M12.77,4.21c0-.52,.67-1.59,.86-1.87,.05-.07,.11-.11,.18-.11,.14,0,.48,.14,.35,.34-.1,.15-.35,.68-.54,1.19,.39-.57,1.36-1.53,1.72-1.53,.24,0,.46,.22,.46,.48,0,.07-.06,.22-.14,.41,.44-.46,.92-.89,1.16-.89s.46,.22,.46,.48c0,.27-.7,1.37-.7,1.53,0,.03,.01,.05,.04,.05,.12,0,.48-.41,.87-.83,.05-.05,.1-.08,.15-.08,.1,0,.16,.11,.07,.21-.46,.59-.98,1.16-1.17,1.16-.15,0-.67-.2-.67-.55s.83-1.44,.61-1.44c-.2,0-.93,.89-1.31,1.46-.06,.16-.1,.29-.1,.39,0,.08-.02,.14-.14,.14-.1,0-.54-.2-.54-.55s.83-1.44,.61-1.44c-.28,0-1.53,1.66-1.57,1.91,0,.07-.03,.09-.1,.09-.2-.05-.55-.25-.55-.54Z"/>
      <path class="cls-3" d="M18.31,7.03c-.85,0-1.28-.74-1.31-1.12h0c0-.14,.03-.27,.12-.36,.07-.08,.18-.13,.28-.13,.16,0,.3,.1,.36,.25h0c.03,.08,.15,.16,.29,.16,.16,0,.51-.18,1.07-1.38,.1-.22,.2-.47,.31-.73,.22-.52,.44-1.07,.68-1.45,.07-.11,.18-.19,.31-.23-.05-.1-.05-.21-.02-.31,.02-.05,.19-.55,.31-.78h0c.1-.19,.28-.29,.5-.29,.28,0,.6,.18,.72,.41,.08,.15,.08,.31-.01,.44-.07,.11-.2,.28-.32,.43-.08,.11-.18,.24-.21,.28h0c-.04,.06-.09,.11-.15,.14,.07,.15,.06,.31-.03,.46-.18,.29-.47,.93-.84,1.86-.64,1.6-1.3,2.35-2.07,2.35Z"/>
      <path class="cls-12" d="M18.76,2.23c.47,0,.66,.28,.66,.57,0,.54-.48,.79-.97,.79-.1,0-.19,0-.28-.03-.04,.12-.07,.25-.07,.37,0,.13,.05,.36,.39,.36,.37,0,.74-.41,1.12-.83,.05-.05,.1-.08,.15-.08,.1,0,.16,.11,.07,.21-.46,.59-.98,1.16-1.55,1.16-.8,0-.91-.52-.91-.82,0-.59,.67-1.7,1.38-1.7Zm-.33,1.04c.33,0,.67-.14,.67-.49,0-.09-.04-.16-.14-.16-.19,0-.48,.29-.67,.65,.05,0,.09,0,.14,0Z"/>
      <path class="cls-12" d="M17.87,6.04c.5,0,.95-.7,1.35-1.56,.3-.65,.63-1.6,.97-2.15,.05-.07,.13-.11,.23-.11,.14,0,.48,.14,.35,.34-.25,.39-.62,1.29-.86,1.91-.45,1.12-1.04,2.15-1.78,2.15-.67,0-.99-.61-1.01-.84,0-.1,.05-.16,.1-.16,.03,0,.06,.02,.08,.07,.08,.2,.32,.35,.58,.35Zm3-4.03c-.14,0-.41-.14-.36-.27,.02-.06,.19-.54,.29-.74,.05-.09,.13-.12,.22-.12,.24,0,.55,.24,.46,.38-.12,.19-.45,.59-.53,.72-.01,.02-.04,.03-.08,.03Z"/>
      <path class="cls-12" d="M22.19,2.23c1.04,0,1.09,.93,.64,1.66,.13-.03,.25-.1,.33-.2,.12-.14,.16-.19,.21-.24,.05-.05,.1-.08,.15-.08,.1,0,.16,.11,.07,.21-.28,.37-.52,.63-1.03,.65-.29,.31-.68,.52-1.11,.52-.8,0-.91-.52-.91-.82,0-.59,.67-1.7,1.64-1.7Zm-.53,2.06c.12,0,.25-.05,.37-.14-.32-.14-.57-.41-.6-.82-.1,.2-.17,.42-.17,.61,0,.13,.05,.36,.39,.36Zm.65-1.68c-.18,0-.52,.22-.52,.65,0,.3,.23,.52,.52,.61,.39-.5,.57-1.26,0-1.26Z"/>
      <path class="cls-12" d="M23.48,3.65c-.1,0-.18-.11-.1-.2,.22-.25,.43-.5,.59-.7h-.08c-.2,0-.31-.29-.33-.42-.02-.07,.03-.13,.08-.13,0,0,.01,0,.02,0,.04,.01,.35,.02,.69,.02,.41,0,.85,0,.91,0,.14,0,.48,.14,.35,.34-.17,.27-.82,1.72-.66,1.72,.12,0,.49-.41,.87-.83,.05-.05,.1-.08,.15-.08,.1,0,.16,.11,.07,.21-.46,.59-.98,1.16-1.16,1.16-.15,0-.65-.2-.65-.55,0-.37,.35-1.02,.61-1.46-.2,0-.41,.01-.59,.01-.16,.2-.39,.52-.65,.84-.04,.05-.08,.07-.12,.07Z"/>
    </g>
    <g>
      <path class="cls-12" d="M12.93,11.36c-1.53,0-2.49-.88-2.49-2.3,0-.72,.38-1.71,.97-2.51,.41-.57,1.28-1.52,2.43-1.52,1.37,0,1.99,.94,1.99,1.81,0,.15-.01,.29-.04,.43,0,0,.01,0,.02,0,.36,0,.68,.2,.83,.52,.16,.33,.11,.72-.14,1.03-1.03,1.32-2.18,2.54-3.57,2.54Z"/>
      <path class="cls-12" d="M4.75,11.36c-.35,0-.97-.19-1.44-.62-.49,.41-.95,.62-1.38,.62-.93,0-1.94-.68-1.94-1.78,0-.85,.38-1.96,.98-2.83,.76-1.11,1.75-1.72,2.79-1.72,.4,0,.75,.08,1.04,.24,.19-.16,.43-.24,.68-.24,.38,0,1.04,.22,1.31,.71,.18,.32,.16,.71-.04,1.03-.07,.11-.18,.33-.31,.6,.14-.07,.28-.1,.43-.1,.36,0,.68,.2,.83,.52,.16,.33,.11,.73-.14,1.03-.86,1.08-1.51,1.79-1.99,2.18-.42,.33-.65,.36-.83,.36Z"/>
      <path class="cls-12" d="M9.52,11.36c-.59,0-1.98-.61-1.98-1.78,0-.27,.06-.59,.19-.97-.05,.07-.11,.14-.17,.21h-.01c-.27,.33-.57,.39-.77,.39-.38,0-.72-.22-.87-.55-.15-.33-.1-.71,.14-.99h0c.21-.25,.42-.5,.59-.7-.27-.33-.37-.73-.4-.87-.07-.27-.01-.56,.15-.77,.17-.22,.42-.34,.69-.34,.05,0,.09,0,.14,.01h.05s.01,.02,.02,.02c.12,0,.48,.02,1.18,.02,.57,0,1.19,0,1.52-.01,.14,0,.23,0,.27,0,.38,0,1.04,.22,1.31,.71,.18,.32,.16,.71-.04,1.03-.07,.11-.18,.33-.31,.6,.14-.07,.28-.1,.43-.1,.36,0,.68,.2,.83,.52,.16,.33,.11,.72-.14,1.03-1.98,2.54-2.54,2.54-2.81,2.54Z"/>
      <path class="cls-12" d="M14.27,15.04l-.09-.02c-.54-.14-1.56-.69-1.56-1.73,0-.43,.2-1.31,1.73-4.37,.82-1.63,1.64-3.12,1.67-3.18v-.02s.02-.02,.02-.02c.35-.56,.72-.68,1.19-.68,.35,0,.78,.13,1.06,.43,.43-.28,.83-.43,1.2-.43,.7,0,1.1,.32,1.31,.59,.25,.32,.38,.74,.38,1.24,0,.82-.35,1.89-.92,2.81-.39,.63-1.19,1.69-2.2,1.69-.57,0-1.1-.2-1.52-.57-1.12,2.62-1.26,3.29-1.27,3.44-.05,.49-.4,.81-.9,.81h-.09Z"/>
      <path class="cls-12" d="M12.08,15.31c-.84,0-1.63-.24-2.23-.69-.72-.54-1.11-1.3-1.11-2.21,0-.09,0-.29,.03-.49,.14-.8,.7-.86,.87-.86,.24,0,.47,.1,.67,.3h.01c.45,.49,1.16,.73,2.14,.73,2.99,0,5.65-.41,8-.77,.13-.02,.27-.04,.4-.06-.69-.23-1.28-.83-1.28-1.67s.38-1.96,.98-2.83c.76-1.11,1.75-1.72,2.79-1.72,.41,0,.76,.08,1.04,.24,.19-.16,.43-.24,.67-.24,.38,0,1.04,.22,1.31,.71,.18,.32,.16,.71-.04,1.03-.24,.39-1.09,2.24-1.23,2.85-.07,.35-.1,.67-.1,.96,0,.06,0,.11,0,.17,.1,0,.21,0,.31,0,.81,0,1.51,.22,2,.65,.47,.41,.73,.96,.73,1.56,0,.98-.75,2.02-2.14,2.02-1.15,0-2.17-.61-2.83-1.67-.83,.18-1.71,.4-2.63,.64-2.5,.64-5.32,1.37-8.37,1.37Z"/>
      <path class="cls-3" d="M4.75,11.1c-.35,0-1.03-.24-1.42-.72-.51,.48-.98,.72-1.39,.72-.81,0-1.68-.58-1.68-1.52,0-.8,.37-1.85,.93-2.68,.71-1.04,1.62-1.61,2.57-1.61,.5,0,.84,.14,1.07,.32,.17-.21,.39-.32,.65-.32,.31,0,.87,.18,1.08,.58,.13,.24,.12,.52-.03,.76-.18,.29-.57,1.12-.87,1.85,.22-.24,.44-.48,.59-.65h0s0-.02,0-.02c.07-.07,.29-.29,.6-.29,.26,0,.48,.14,.59,.37,.12,.24,.07,.53-.11,.75-1.93,2.44-2.39,2.44-2.61,2.44Zm-.87-4.16c-.17,.06-.37,.23-.57,.48-.45,.57-.74,1.33-.83,1.77,.16-.11,.37-.31,.62-.63,.51-.67,.75-1.32,.78-1.62Z"/>
      <path class="cls-3" d="M9.52,11.1c-.5,0-1.72-.53-1.72-1.52,0-.54,.28-1.32,.86-2.4-.06,0-.11,0-.17,0-.04,.05-.08,.11-.12,.16-.29,.38-.64,.85-1.02,1.31h0c-.2,.25-.42,.3-.57,.3-.27,0-.52-.16-.64-.4-.11-.23-.07-.5,.1-.71h0c.26-.3,.51-.6,.75-.88-.28-.25-.44-.64-.5-.92-.05-.2-.01-.4,.11-.55,.12-.15,.29-.24,.48-.24,.04,0,.08,0,.11,.01h0s.03,0,.04,.01c.11,.01,.51,.03,1.23,.03,.57,0,1.19,0,1.52-.01,.13,0,.23,0,.26,0,.31,0,.87,.18,1.08,.58,.13,.24,.12,.52-.03,.76-.18,.29-.57,1.12-.87,1.85,.22-.24,.44-.48,.59-.65h0s0-.02,0-.02c.07-.07,.29-.29,.6-.29,.26,0,.49,.14,.6,.37,.11,.24,.07,.53-.11,.75-1.91,2.45-2.42,2.45-2.61,2.45Z"/>
      <path class="cls-3" d="M12.93,11.1c-1.39,0-2.22-.76-2.22-2.04,0-.67,.36-1.6,.92-2.36,.38-.53,1.18-1.41,2.21-1.41,1.2,0,1.73,.78,1.73,1.54,0,.3-.06,.58-.18,.83,.11-.07,.25-.14,.42-.14,.26,0,.49,.14,.6,.37,.11,.24,.07,.53-.11,.75-.99,1.27-2.08,2.45-3.37,2.45Zm.07-2.28c-.01,.08-.02,.16-.02,.23,0,.17,.05,.27,.34,.27,.36,0,.81-.36,1.26-.82-.38,.21-.85,.32-1.35,.32-.08,0-.15,0-.22,0Z"/>
      <path class="cls-3" d="M14.3,14.78h-.06c-.47-.14-1.36-.61-1.36-1.49,0-.37,.18-1.21,1.71-4.25,.82-1.64,1.66-3.15,1.67-3.17h0s0-.02,0-.02c.29-.47,.56-.55,.97-.55,.32,0,.76,.15,.96,.47,.01,.02,.02,.04,.03,.06,.4-.3,.84-.53,1.26-.53,.59,0,.93,.26,1.1,.49,.21,.27,.32,.63,.32,1.08,0,.77-.34,1.79-.88,2.68-.36,.58-1.1,1.56-1.98,1.56-.64,0-1.21-.29-1.61-.77-.87,2.01-1.41,3.43-1.45,3.88-.04,.36-.27,.57-.64,.57h-.06Zm2.95-5.85c.03,.17,.11,.36,.23,.39,.12-.08,.45-.44,.84-1.19,.19-.37,.32-.69,.4-.93-.14,.12-.31,.29-.54,.54-.38,.42-.73,.89-.94,1.21Z"/>
      <path class="cls-2" d="M13.62,5.56c.92,0,1.29,.55,1.29,1.11,0,1.07-.95,1.55-1.91,1.55-.19,0-.37-.01-.55-.05-.08,.24-.13,.49-.13,.72,0,.25,.11,.71,.77,.71,.72,0,1.45-.8,2.2-1.63,.11-.11,.2-.16,.29-.16,.2,0,.31,.21,.15,.41-.89,1.15-1.92,2.28-3.02,2.28-1.56,0-1.79-1.01-1.79-1.6,0-1.16,1.32-3.33,2.69-3.33Zm-.64,2.03c.65,0,1.32-.27,1.32-.96,0-.17-.08-.32-.28-.32-.37,0-.93,.57-1.31,1.27,.09,.01,.17,.01,.27,.01Z"/>
      <path class="cls-2" d="M13.1,13.12c0-1.2,3.32-7.21,3.32-7.21,.2-.32,.31-.35,.6-.35s.77,.2,.59,.56c-.12,.23-.31,.63-.53,1.11,.67-.85,1.57-1.67,2.2-1.67,2.28,0,.09,4.93-1.44,4.93-.85,0-1.44-.63-1.64-1.35-.87,1.95-1.79,4.16-1.85,4.85-.01,.13-.07,.17-.2,.17-.4-.11-1.04-.48-1.04-1.05Zm3.48-4.46c.03,.47,.27,.93,.72,.93,.68,0,2.25-3.28,1.6-3.28-.56,0-1.85,1.6-2.32,2.35Z"/>
      <path class="cls-3" d="M12.08,15.05c-.78,0-1.52-.23-2.07-.64-.66-.49-1-1.18-1-2,0-.08,0-.27,.03-.45,.1-.58,.46-.64,.61-.64,.17,0,.34,.07,.48,.22h0c.5,.54,1.27,.8,2.33,.8,3.01,0,5.68-.41,8.04-.77,.73-.11,1.44-.22,2.12-.31-.03-.2-.05-.39-.07-.59-.38,.29-.73,.43-1.04,.43-.81,0-1.68-.58-1.68-1.52,0-.8,.37-1.85,.93-2.68,.71-1.04,1.62-1.61,2.57-1.61,.5,0,.85,.13,1.08,.31,.17-.2,.39-.31,.64-.31,.31,0,.87,.18,1.08,.58,.13,.24,.12,.52-.03,.76-.26,.41-1.12,2.3-1.26,2.93-.07,.37-.11,.71-.11,1.02,0,.15,0,.3,.03,.44,.18,0,.37-.01,.55-.01,.75,0,1.38,.2,1.83,.58,.41,.35,.64,.84,.64,1.36,0,.85-.66,1.75-1.88,1.75-1.13,0-2.09-.62-2.69-1.7-.9,.18-1.84,.42-2.83,.68-2.48,.64-5.29,1.36-8.3,1.36Zm13.52-2.41c.13,.09,.27,.13,.41,.13,.09,0,.13-.04,.14-.06-.03-.02-.13-.08-.36-.08-.06,0-.12,0-.18,0Zm-2.13-5.7c-.17,.06-.37,.23-.57,.48-.45,.57-.74,1.33-.83,1.77,.16-.11,.37-.31,.62-.63,.51-.67,.75-1.32,.78-1.62Z"/>
      <path class="cls-2" d="M9.42,11.59c.05,0,.11,.03,.17,.09,.65,.69,1.6,.93,2.65,.93,4.16,0,7.6-.76,10.69-1.15-.11-.44-.16-.89-.16-1.33,0-.23,.01-.45,.04-.67-.52,.57-1.08,1.03-1.51,1.03-.59,0-1.24-.41-1.24-1.08,0-1.36,1.27-3.85,3.06-3.85,.67,0,.99,.28,1.09,.65,.12-.19,.21-.33,.28-.44,.09-.15,.21-.21,.35-.21,.28,0,.93,.27,.68,.67-.27,.43-1.16,2.36-1.32,3.08-.08,.4-.12,.77-.12,1.11s.04,.63,.11,.91c.31-.03,.61-.04,.91-.04,2.69,0,2.52,2.82,.59,2.82-1.17,0-2-.76-2.45-1.76-3.25,.61-7.09,2.09-11.38,2.09-1.32,0-2.64-.73-2.64-2.2,0-.13,0-.65,.2-.65Zm12.14-2c1.09,0,2.85-3.28,1.81-3.28-1.25,0-2.45,3.28-1.81,3.28Zm2.94,2.53c.32,.57,.79,.92,1.28,.92,.71,0,.91-1.01-.23-1.01-.35,0-.71,.04-1.05,.09Z"/>
      <path class="cls-2" d="M3.55,5.56c.67,0,.97,.28,1.09,.65,.12-.19,.21-.33,.28-.44,.09-.15,.21-.21,.35-.21,.28,0,.93,.27,.68,.67-.33,.53-1.61,3.36-1.29,3.36,.23,0,.96-.8,1.71-1.63,.11-.11,.2-.16,.29-.16,.19,0,.31,.21,.15,.41-.91,1.15-1.92,2.28-2.27,2.28-.29,0-1.27-.37-1.28-1.07-.52,.6-1.09,1.07-1.53,1.07-.59,0-1.24-.41-1.24-1.08,0-1.36,1.27-3.85,3.06-3.85Zm-1.57,4.02c1.09,0,2.85-3.28,1.81-3.28-1.25,0-2.45,3.28-1.81,3.28Z"/>
      <path class="cls-2" d="M6.56,8.35c-.2,0-.35-.21-.2-.39,.43-.48,.84-.99,1.16-1.37h-.16c-.39,0-.6-.56-.65-.81-.04-.15,.05-.25,.16-.25,.01,0,.03,.01,.04,.01,.08,.03,.69,.04,1.35,.04,.8,0,1.67-.01,1.79-.01,.28,0,.93,.27,.68,.67-.33,.53-1.61,3.36-1.29,3.36,.23,0,.96-.8,1.71-1.63,.11-.11,.2-.16,.29-.16,.2,0,.31,.21,.15,.41-.89,1.15-1.92,2.28-2.27,2.28-.29,0-1.28-.39-1.28-1.08,0-.73,.68-2,1.19-2.86-.39,.01-.8,.03-1.15,.03-.31,.4-.77,1.03-1.27,1.64-.08,.09-.16,.13-.24,.13Z"/>
    </g>
  </g>
</svg>